<?xml version="1.0" encoding="UTF-8"?>
<svg width="40px" height="40px" version="1.1" viewBox="0 0 1200 1200" xmlns="http://www.w3.org/2000/svg">
 <path d="m1074 552h-135.6c-32.398 0-61.199 15.602-79.199 42l-98.398 145.2-93.602-282c-13.199-38.398-46.801-64.801-87.602-66-40.801-1.1992-76.801 21.602-92.398 58.801l-84 200.4-96-93.602c-18-18-42-27.602-67.199-27.602h-115.2c-26.398 0-48 21.602-48 48 0 26.398 21.602 48 48 48h115.2l96 93.602c22.801 22.801 55.199 31.199 86.398 25.199 31.199-6 57.602-27.602 69.602-56.398l84-200.4 93.602 282c12 34.801 42 60 78 64.801 4.8008 1.1992 8.3984 1.1992 13.199 1.1992 31.199 0 61.199-15.602 79.199-42l98.398-145.2h134.4c26.398 0 48-21.602 48-48 0.003906-26.398-20.398-48-46.797-48z" />
</svg>
