<?xml version="1.0" encoding="utf-8"?>
<!-- Generator: Adobe Illustrator 27.2.0, SVG Export Plug-In . SVG Version: 6.00 Build 0)  -->
<svg version="1.1" id="Layer_1" xmlns="http://www.w3.org/2000/svg" xmlns:xlink="http://www.w3.org/1999/xlink" x="0px" y="0px"
	 viewBox="0 0 600 600" style="enable-background:new 0 0 600 600;" xml:space="preserve">
<style type="text/css">
	.st0{fill:#121212;}
	.st1{fill:#E23A2E;}
	.st2{fill:#279847;}
	.st3{fill:#FBBF12;}
	.st4{fill:#336FEA;}
	.st5{fill:#913BD2;}
	.st6{fill:#F8C54A;}
	.st7{fill:#A11414;}
	.st8{fill:#D41F1F;}
	.st9{fill:#6686D1;}
	.st10{fill:#419E6C;}
	.st11{fill:#F5B84E;}
	.st12{fill:#E89634;}
	.st13{fill:#E45656;}
	.st14{fill:#243E80;}
	.st15{fill:#80C9E8;}
	.st16{fill:#5F9D5F;}
	.st17{fill:#68B672;}
</style>
<g>
	<g>
		<path class="st0" d="M149.75,472.53c3.2-22,1.94-45.02,1.81-67.22c-0.14-22.91-0.26-45.82-0.49-68.73
			c-0.45-45.74-0.94-91.48-1.34-137.22c-0.1-11.19-0.12-22.43,1.07-33.57c0.64-5.98,1.69-11.92,3.26-17.73
			c1.46-5.38,3.72-10.27,4.17-15.86c0.21-2.64-3.32-3.77-5.04-2.09c-6.85,6.72-8.62,18.41-10.06,27.56
			c-1.52,9.7-2.05,19.5-2.16,29.31c-0.25,22.63,0.32,45.29,0.54,67.92c0.44,46.48,0.85,92.97,1.47,139.45
			c0.18,13.28,0.44,26.56,0.78,39.84c0.33,12.83,0.37,25.65,2.46,38.34C146.51,474.26,149.5,474.3,149.75,472.53L149.75,472.53z"/>
	</g>
</g>
<g>
	<g>
		<path class="st0" d="M148.35,135.83c2.41-0.49,3.94-2.71,5.72-4.3c2.69-2.41,5.42-4.56,8.66-6.19c6.86-3.46,13.09-3.37,20.51-2.76
			c4,0.33,4.92-6.26,0.95-7.04c-7.79-1.55-16.8,0.88-23.6,4.74c-4.38,2.49-14.31,9.31-12.5,15.41
			C148.12,135.8,148.23,135.86,148.35,135.83L148.35,135.83z"/>
	</g>
</g>
<g>
	<g>
		<path class="st0" d="M184.12,124.19c-0.06-2.15,0.02-4.3-0.47-6.4c-0.1-0.44-0.78-0.44-0.88,0c-0.49,2.1-0.41,4.25-0.47,6.4
			C182.26,125.36,184.16,125.36,184.12,124.19L184.12,124.19z"/>
	</g>
</g>
<g>
	<g>
		<path class="st0" d="M429.97,122.75c7.15,1.78,14.15,4.46,19.16,10.12c5.1,5.77,7.03,13.58,5.84,21.12
			c-0.31,1.96,0.19,4.07,2.08,5.1c0.74,0.4,1.41,0.69,2.28,0.62c1.8-0.16,4.04-1.28,4.36-3.32c3.04-19.54-11.98-42.2-33.7-38.25
			C427.6,118.57,427.78,122.21,429.97,122.75L429.97,122.75z"/>
	</g>
</g>
<g>
	<g>
		<path class="st0" d="M456.57,151.44c-2.73,20.16-1.48,41.02-1.51,61.32c-0.04,20.98,0.24,41.96,0.39,62.94
			c0.29,41.96,0.83,83.92,1.24,125.88c0.12,11.99,0.23,23.98,0.35,35.97c0.06,5.66,0.11,11.32,0.17,16.98
			c0.05,5.38-0.82,11.04,1.92,15.86c0.63,1.1,2.36,1.13,2.97,0c2.24-4.11,1.72-8.28,1.69-12.86c-0.04-5.33-0.08-10.66-0.12-15.99
			c-0.07-10.32-0.15-20.65-0.22-30.97c-0.15-20.98-0.29-41.96-0.43-62.94c-0.28-41.96-0.62-83.92-1.06-125.88
			c-0.13-11.99-0.42-23.98-0.65-35.97c-0.21-11.44-0.31-23.01-2.04-34.34C459.07,150.11,456.75,150.09,456.57,151.44L456.57,151.44z
			"/>
	</g>
</g>
<g>
	<g>
		<path class="st0" d="M146.34,473.81c4.37,1.48,9.56-3.76,12.93-6.13c5.07-3.57,10.13-7.15,15.15-10.81
			c10.3-7.5,20.57-15.06,30.85-22.59c1.55-1.14,2.58-3.32,1.35-5.14c-0.18-0.27-0.38-0.52-0.59-0.76c-0.97-1.14-3.31-1.51-4.55-0.59
			c-10.49,7.82-21.02,15.59-31.47,23.45c-4.97,3.74-9.91,7.54-14.83,11.35c-3.22,2.49-9.58,5.83-9.45,10.4
			C145.73,473.38,145.98,473.69,146.34,473.81L146.34,473.81z"/>
	</g>
</g>
<g>
	<g>
		<path class="st0" d="M203.24,429.61c4.19,9.96,13.18,18.97,20.1,27.15c7.91,9.34,15.83,18.68,23.74,28.02
			c3.22,3.8,8.7-1.7,5.47-5.47c-7.76-9.03-15.52-18.06-23.28-27.09c-3.66-4.26-7.45-8.4-11.22-12.56
			c-3.82-4.22-7.67-8.78-12.54-11.79C204.46,427.22,202.7,428.33,203.24,429.61L203.24,429.61z"/>
	</g>
</g>
<g>
	<g>
		<path class="st0" d="M251.95,487.62c6.04-4.18,10.99-10.19,15.88-15.62c5.29-5.88,10.54-11.78,15.8-17.68
			c5.27-5.89,10.54-11.78,15.81-17.68c2.19-2.45,10.49-9.07,6.4-12.92c-4.2-3.96-9.78,4.99-11.91,7.42
			c-5.22,5.94-10.43,11.89-15.65,17.83c-5,5.7-10,11.39-15,17.09c-5.02,5.72-10.85,11.7-14.41,18.48
			C247.9,486.39,249.99,488.98,251.95,487.62L251.95,487.62z"/>
	</g>
</g>
<g>
	<g>
		<path class="st0" d="M302.57,432.13c6.58,11.12,14.48,21.45,22.54,31.54c8.23,10.31,16.81,20.63,26.28,29.84
			c3.97,3.86,9.89-2.08,6.07-6.07c-8.97-9.35-18.1-18.45-26.55-28.3c-8.41-9.8-16.08-20.16-24.11-30.27
			C304.86,426.45,301.04,429.56,302.57,432.13L302.57,432.13z"/>
	</g>
</g>
<g>
	<g>
		<path class="st0" d="M352.59,493.02c6-0.94,10.04-8.72,13.5-13.13c4.48-5.71,8.92-11.45,13.33-17.21
			c9.31-12.16,18.87-24.18,27.92-36.54c2.38-3.25-3.14-7.57-5.63-4.35c-9.14,11.81-17.84,23.99-26.73,35.99
			c-4.35,5.88-8.7,11.76-12.98,17.7c-3.39,4.7-10.28,11.24-9.5,17.47C352.5,493,352.54,493.03,352.59,493.02L352.59,493.02z"/>
	</g>
</g>
<g>
	<g>
		<path class="st0" d="M402.28,425.25c9.07,7.13,19.41,12.52,28.55,19.65c9.31,7.26,17.25,15.66,25.39,24.16
			c4.45,4.65,10.96-2.17,6.96-6.96c-7.69-9.21-17.33-17.09-27-24.14c-9.32-6.8-20.17-14.07-31.5-16.83
			C402.49,420.61,400.22,423.64,402.28,425.25L402.28,425.25z"/>
	</g>
</g>
<g>
	<g>
		<path class="st0" d="M215.89,203.6c0.76-0.96,1.65-1.78,2.68-2.45c-1.13-0.88-2.27-1.75-3.4-2.63c-2.55,4.33-1.91,10.8-2.09,15.73
			c-0.23,6.18-0.53,12.35-0.6,18.54c-0.07,5.85-0.14,11.71-0.2,17.56c-0.07,6.18-0.65,12.63,0.42,18.72c0.74,4.18,7.68,4.17,8.43,0
			c1.04-5.78,0.54-11.88,0.5-17.75c-0.05-6.18-0.09-12.36-0.15-18.54c-0.05-5.86-0.3-11.71-0.5-17.56
			c-0.18-5.21,0.6-12.12-2.07-16.7c-1.07-1.84-4.07-1.07-4.04,1.09c-0.07,1.09-0.14,2.17-0.21,3.26
			C214.55,203.55,215.33,204.19,215.89,203.6L215.89,203.6z"/>
	</g>
</g>
<g>
	<g>
		<path class="st0" d="M391.97,200.23c-2.29,11.32-3.58,23.04-3.59,34.58c-0.01,5.84,0.12,11.68,0.57,17.5
			c0.22,2.86,0.23,5.91,0.8,8.72c0.53,2.62,1.73,3.6,3.81,5.26c1.08,0.86,2.26,0.69,3.09-0.4c1.54-2.01,2.55-3.22,2.47-5.83
			c-0.08-2.57-0.55-5.19-0.78-7.75c-0.51-5.83-0.98-11.66-1.25-17.5c-0.52-11.35-0.89-22.68-1.11-34.04
			C395.94,198.55,392.44,197.9,391.97,200.23L391.97,200.23z"/>
	</g>
</g>
<g>
	<g>
		<path class="st0" d="M214.27,270.45c14.35,3.09,29.61,2.44,44.22,2.77c14.96,0.34,29.92,0.8,44.89,0.99
			c30.25,0.4,60.51,0.6,90.77,0.9c3.44,0.03,6.44-4.28,4.22-7.35c-1.64-2.26-3.32-3.02-5.42-4.68c-1.4-1.11-3.73-0.51-3.72,1.54
			c0.01,2.56-0.53,4.36,0.21,6.9c1.57-2.06,3.14-4.12,4.71-6.18c-30.26-0.02-60.51-0.15-90.77-0.07
			c-14.96,0.04-29.93,0.34-44.89,0.51c-14.61,0.17-29.84-0.64-44.22,2.3C213.09,268.32,213.11,270.2,214.27,270.45L214.27,270.45z"
			/>
	</g>
</g>
<g>
	<g>
		<path class="st0" d="M215.36,203.94c14.59,1.98,29.63,2.17,44.33,2.6c14.94,0.44,29.88,0.81,44.82,1.22
			c14.94,0.41,29.87,0.61,44.82,0.84c7.3,0.11,14.61,0.22,21.91,0.33c6.29,0.09,15.14,2.08,20.29-2.09c1.33-1.08,1.26-3.64,0-4.72
			c-4.8-4.13-13.29-2.49-19.29-2.57c-7.3-0.09-14.61-0.19-21.91-0.28c-14.94-0.19-29.88-0.41-44.82-0.42
			c-14.61-0.01-29.21-0.02-43.82-0.02c-15.17-0.01-30.72-0.31-45.81,1.32C213.93,200.36,213.01,203.63,215.36,203.94L215.36,203.94z
			"/>
	</g>
</g>
<g>
	<g>
		<path class="st0" d="M211.54,346.1c3.31,4.88,12.44,3.53,17.72,3.85c7.31,0.44,14.63,0.78,21.95,1.06
			c15.63,0.6,31.27,1.07,46.91,1.41c30.83,0.67,62.03,1.68,92.84,0.26c6.22-0.29,6.29-9.62,0-9.72
			c-30.59-0.47-61.24,0.53-91.85,0.17c-15.31-0.18-30.61-0.48-45.91-0.9c-7.32-0.2-14.63-0.44-21.95-0.59
			c-3.99-0.08-7.98-0.29-11.97-0.27c-3.1,0.01-5.38-0.2-7.43,2.27C211.3,344.29,211,345.31,211.54,346.1L211.54,346.1z"/>
	</g>
</g>
<g>
	<g>
		<path class="st0" d="M275.54,317.6c11.13,3.77,24.39,3.83,36.03,4.09c6.09,0.13,12.19,0.08,18.28-0.16
			c5.17-0.21,12.68,0.68,16.99-2.48c1.74-1.27,2.48-4.55,0-5.65c-4.92-2.17-10.77-0.37-16.03,0.06c-6.08,0.49-12.18,0.79-18.28,0.9
			c-5.77,0.1-11.55,0.07-17.32-0.08c-6.36-0.17-12.82-0.99-19.17-0.47C273.89,313.97,273.42,316.88,275.54,317.6L275.54,317.6z"/>
	</g>
</g>
<g>
	<g>
		<path class="st0" d="M344.61,401.7c1.63-3.37,3.85-6.79,8.02-7.02c3.97-0.22,6.85,2.91,8.29,6.26c1.22,2.81,5.8,2.57,7.1,0
			c2.94-5.82,5.76-11.69,8.55-17.59c-2.28-0.3-4.55-0.59-6.83-0.89c3.27,8.26,8.08,14.87,15.48,19.91c2.14,1.46,5.07-0.06,5.74-2.34
			c2.55-8.62,6.46-15.9,13.22-21.95c-1.88-0.24-3.75-0.48-5.63-0.73c1.95,4.19,3.7,8.56,6.08,12.53c2.64,4.42,8.69,0.55,6.74-3.94
			c-1.84-4.23-4.36-8.19-6.62-12.21c-1.18-2.09-3.96-2.25-5.63-0.73c-7.31,6.68-13.21,15.27-15.69,24.94
			c1.91-0.78,3.83-1.56,5.74-2.34c-5.64-3.57-10.1-8.75-12.22-15.15c-0.97-2.93-5.21-3.84-6.83-0.89
			c-3.13,5.71-6.21,11.42-9.19,17.21c2.37,0,4.73,0,7.1,0c-5.88-12.55-26.12-10.65-27.75,3.74
			C340.02,402.81,343.64,403.71,344.61,401.7L344.61,401.7z"/>
	</g>
</g>
<g>
	<g>
		<path class="st0" d="M183.64,118.37c2.89,2.63,7.05,2.48,10.8,2.85c5.3,0.53,10.65,0.58,15.96,0.74
			c10.64,0.32,21.28,0.46,31.93,0.6c20.95,0.27,41.9,0.47,62.85,0.64c42.23,0.34,84.47,0.48,126.7,0.99c5.84,0.07,5.84-9.04,0-9.07
			c-42.24-0.21-84.47-0.79-126.7-1.17c-20.95-0.19-41.9-0.34-62.85-0.43c-10.64-0.05-21.28-0.08-31.93,0.06
			c-5.31,0.07-10.66,0.03-15.96,0.47c-3.76,0.31-7.87,0.11-10.8,2.69C183.18,117.13,183.2,117.97,183.64,118.37L183.64,118.37z"/>
	</g>
</g>
<g>
	<g>
		<path class="st0" d="M353.21,361.44c-5.79-0.12-9.66,6.05-12.47,10.49c-3.41,5.4-6.08,12-5.46,18.48
			c0.09,0.96,1.52,1.62,2.03,0.55c2.53-5.29,4.3-10.79,7.39-15.82c2.75-4.48,7.85-8.01,8.85-13.26
			C353.6,361.66,353.46,361.44,353.21,361.44L353.21,361.44z"/>
	</g>
</g>
<g>
	<g>
		<path class="st0" d="M330.06,403.09c0.26,9.64,5.64,18.68,12.71,25.03c5.35,4.8,17.25,12.94,24.58,8.55
			c0.81-0.49,1.03-1.7,0.31-2.37c-2.57-2.41-5.93-2.79-9.15-3.95c-4.14-1.49-7.96-3.81-11.33-6.63
			c-6.71-5.63-10.6-12.94-13.39-21.12C333.12,400.64,330,400.85,330.06,403.09L330.06,403.09z"/>
	</g>
</g>
<g>
	<g>
		<path class="st0" d="M375.61,432.82c4.02,3.29,8.85,4.27,13.93,3.03c4.4-1.08,10.03-3.78,10.12-9.01
			c0.02-1.24-1.11-1.81-2.18-1.66c-3.54,0.48-6.31,3.24-9.71,4.22c-3.59,1.04-7.42,1.26-11.14,0.97
			C375.44,430.26,374.66,432.04,375.61,432.82L375.61,432.82z"/>
	</g>
</g>
<g>
	<g>
		<path class="st0" d="M415.04,421.82c0.31,0.08,0.63,0.16,0.94,0.25c0.77,0.44,1.91,0.53,2.67,0c12.84-8.96,21.21-33.13,8.09-45.23
			c-0.9-0.83-2.13,0.01-1.94,1.13c1.42,8.2,2.98,16.44,0.55,24.6c-1.21,4.06-3.14,7.92-5.87,11.18c-1.19,1.42-3.05,2.64-4.04,4.17
			c-0.74,1.15-0.51,1.96-0.8,3.22C414.59,421.4,414.73,421.77,415.04,421.82L415.04,421.82z"/>
	</g>
</g>
<g>
	<g>
		<path class="st0" d="M380.4,352.12c6.77,0.51,14.16,2.23,20.16,5.44c2.87,1.54,5.44,3.42,7.9,5.56c2.15,1.87,3.94,4,6.65,4.99
			c0.93,0.34,2.14-0.56,2.05-1.56c-0.66-6.83-9.45-11.93-15.06-14.57c-7.22-3.4-14.29-4.45-22.12-2.97
			C378.12,349.37,378.72,352,380.4,352.12L380.4,352.12z"/>
	</g>
</g>
</svg>
