<?xml version="1.0" encoding="utf-8"?>
<!-- Generator: Adobe Illustrator 27.2.0, SVG Export Plug-In . SVG Version: 6.00 Build 0)  -->
<svg version="1.1" id="Layer_1" xmlns="http://www.w3.org/2000/svg" xmlns:xlink="http://www.w3.org/1999/xlink" x="0px" y="0px"
	 viewBox="0 0 600 600" style="enable-background:new 0 0 600 600;" xml:space="preserve">
<style type="text/css">
	.st0{fill:#121212;}
	.st1{fill:#E23A2E;}
	.st2{fill:#279847;}
	.st3{fill:#FBBF12;}
	.st4{fill:#336FEA;}
	.st5{fill:#913BD2;}
	.st6{fill:#F8C54A;}
	.st7{fill:#A11414;}
	.st8{fill:#D41F1F;}
	.st9{fill:#6686D1;}
	.st10{fill:#419E6C;}
	.st11{fill:#F5B84E;}
	.st12{fill:#E89634;}
	.st13{fill:#E45656;}
	.st14{fill:#243E80;}
	.st15{fill:#80C9E8;}
	.st16{fill:#5F9D5F;}
	.st17{fill:#68B672;}
</style>
<g>
	<g>
		<path class="st0" d="M225.77,232.81c0.15,0.17,0.29,0.33,0.44,0.5c0.71,0.82,2.01,1.08,3.03,0.8
			c12.02-3.28,23.34-9.64,34.61-14.83c11.72-5.39,23.43-10.82,35.1-16.32c11.37-5.36,22.74-10.72,34.1-16.08
			c5.98-2.82,11.97-5.64,17.95-8.46c5-2.36,10.93-3.49,11.7-9.62c0.16-1.24-0.8-2.48-1.78-3.1c-4.76-3.04-9.88,1.16-14.29,3.29
			c-5.66,2.73-11.31,5.45-16.97,8.18c-11.61,5.6-23.22,11.19-34.83,16.79c-11.31,5.45-22.59,10.96-33.84,16.52
			c-11.39,5.62-23.8,10.52-34.16,17.94c-1.24,0.89-1.68,2.03-1.43,3.51C225.47,232.3,225.53,232.53,225.77,232.81L225.77,232.81z"/>
	</g>
</g>
<g>
	<g>
		<path class="st0" d="M359.89,168.9c-3.25,6.04-0.04,16.47,1.08,22.89c1.47,8.44,3.08,16.86,4.7,25.27
			c3.37,17.46,6.75,34.93,10.12,52.39c0.81,4.2,1.5,8.44,2.44,12.61c0.67,2.97,2,6.55,5.44,7.07c7.6,1.15,5.21-9.89,4.42-13.88
			c-3.4-17.12-6.79-34.23-10.19-51.35c-1.92-9.69-3.79-19.38-5.86-29.04c-1.03-4.83-2.08-9.64-3.3-14.42
			c-1.06-4.15-1.77-9.18-5.19-12.02C362.44,167.51,360.65,167.47,359.89,168.9L359.89,168.9z"/>
	</g>
</g>
<g>
	<g>
		<path class="st0" d="M229.48,226.35c-2.98-0.49-4.34,2-5.8,4.26c-2.86,4.44-5.57,9.03-8.17,13.62c-5.23,9.21-10.07,18.66-15.06,28
			c-9.83,18.41-19.41,36.97-29.09,55.45c-9.69,18.49-19.35,37-28.91,55.56c-4.86,9.43-9.72,18.86-14.58,28.28
			c-2.43,4.71-4.86,9.43-7.29,14.14c-2.28,4.42-5.4,8.97-6.44,13.86c-0.99,4.69,4.87,8.94,8.52,4.96c5.23-5.68,8.2-14.25,11.73-21.1
			c3.8-7.37,7.59-14.73,11.39-22.1c7.59-14.73,15.23-29.44,22.72-44.23c15.15-29.87,30.42-59.68,45.33-89.67
			c4.14-8.33,8.39-16.6,12.07-25.15C226.61,240.61,234.05,227.1,229.48,226.35L229.48,226.35z"/>
	</g>
</g>
<g>
	<g>
		<path class="st0" d="M113.62,444.58c2.02,4.68,8.54,7.75,12.68,10.41c5.4,3.47,11.01,6.63,16.6,9.78
			c11.19,6.31,22.43,12.53,33.74,18.62c11.02,5.94,22.1,11.78,33.23,17.52c11.51,5.94,23.01,12.38,34.96,17.39
			c5.99,2.52,9.95-7.35,4.39-10.41c-11.22-6.16-23.2-11.19-34.69-16.85c-11.25-5.54-22.44-11.18-33.59-16.91
			c-11.15-5.73-22.26-11.54-33.31-17.45c-5.66-3.03-11.32-6.13-17.1-8.93c-4.41-2.13-10.49-6.2-15.53-5.56
			C113.72,442.36,113.11,443.4,113.62,444.58L113.62,444.58z"/>
	</g>
</g>
<g>
	<g>
		<path class="st0" d="M386.06,287.21c-3.09,2.47-4.47,6.21-6.1,9.72c-1.83,3.92-3.67,7.84-5.53,11.74
			c-3.72,7.82-7.53,15.6-11.2,23.45c-7.23,15.43-14.71,30.75-22.45,45.93c-15.76,30.92-32.48,61.38-50.19,91.22
			c-9.97,16.79-20.26,33.39-30.86,49.79c-3.35,5.18,4.93,9.99,8.26,4.83c37.6-58.43,71.15-119.32,100.21-182.43
			c4.04-8.77,7.86-17.6,11.53-26.53c1.76-4.28,3.5-8.58,5.22-12.88c1.72-4.31,4.28-8.98,3.82-13.72
			C388.62,286.89,387.16,286.32,386.06,287.21L386.06,287.21z"/>
	</g>
</g>
<g>
	<g>
		<path class="st0" d="M309.85,244.56c-3.81-3.52-9.7-2.05-13.48,0.77c-4.68,3.49-7.22,9.87-6.42,15.62
			c1.73,12.46,16.44,18.63,27.56,15.05c11.95-3.84,20.18-18.99,13.76-30.63c-5.29-9.6-20.63-13.98-27.9-4.4
			c-0.77,1.01-0.58,2.63,0,3.66c-0.08-0.09-0.17-0.18-0.25-0.27c-0.01,0.9,0.85,1.95,1.83,1.83c-0.5,0.06,0.15,0.08,0.59,0.11
			c0.88,0.05,1.53,0,2.41-0.17c1.37-0.26,2.67-0.84,4.06-1.07c2.99-0.51,6.2-0.19,8.81,1.46c7.51,4.76,3.76,15.6-2.24,19.87
			c-5.95,4.24-15.88,3.06-20.09-3.21c-2.54-3.78-1.56-8.23,1.04-11.7c2.65-3.53,5.92-4.86,10.04-5.86
			C310.02,245.51,310.19,244.88,309.85,244.56L309.85,244.56z"/>
	</g>
</g>
<g>
	<g>
		<path class="st0" d="M317.94,257.91c24.43,13.85,58.38,11.1,83.11-0.32c25.09-11.58,43.96-34.77,50.84-61.46
			c6.86-26.63,1-54.35-15.76-76.09c-16.05-20.82-41.27-34.09-67.83-33.03c-14.7,0.59-29.3,5.14-41.74,13
			c-11.12,7.02-25.45,18.96-27.74,32.65c-0.66,3.97,3.98,7.58,7.23,4.21c3.85-4,6.51-8.76,10.06-13.01c3.85-4.6,8.3-8.76,13.22-12.2
			c9.19-6.43,19.67-10.76,30.73-12.66c23.27-3.98,46.15,5.15,62.54,21.61c16.99,17.06,25.07,41.1,21.5,64.96
			c-3.65,24.37-17.97,47.27-38.92,60.4c-12.34,7.73-26.63,12.29-41.13,13.45c-15.38,1.23-29.5-2.03-44.22-6
			C317.17,252.7,315.48,256.52,317.94,257.91L317.94,257.91z"/>
	</g>
</g>
<g>
	<g>
		<path class="st0" d="M232.46,275.25c19.13,7.86,38.9,13.72,57.71,22.47c9.05,4.22,18.19,8.22,27.15,12.64
			c4.48,2.21,8.92,4.5,13.36,6.78c3.69,1.9,7.31,4.56,11.57,3.24c0.95-0.29,1.59-1.3,1.3-2.29c-1.26-4.29-5.22-5.74-8.94-7.68
			c-4.43-2.31-8.93-4.5-13.43-6.66c-9.28-4.44-18.66-8.86-28.25-12.58c-19.24-7.47-39.02-16-59.25-20.34
			C230.74,270.22,229.79,274.16,232.46,275.25L232.46,275.25z"/>
	</g>
</g>
<g>
	<g>
		<path class="st0" d="M152.41,431.03c8.7,4.87,18.55,8.07,27.68,12.05c9.55,4.16,19.1,8.33,28.54,12.72
			c9.17,4.26,18.24,8.7,27.26,13.26c4.51,2.28,9.01,4.58,13.49,6.93c2.01,1.05,4.18,2.66,6.35,3.31c1.95,0.59,3.36-0.17,5.32-0.44
			c1.08-0.15,1.29-1.49,0.92-2.27c-0.87-1.84-0.95-3.26-2.61-4.54c-1.91-1.47-4.56-2.44-6.69-3.57c-4.47-2.36-8.96-4.69-13.48-6.94
			c-9.33-4.66-18.76-9.13-28.25-13.43c-8.94-4.05-17.93-8-27.04-11.64c-9.5-3.79-19.31-8.39-29.35-10.53
			C151.58,425.32,149.55,429.42,152.41,431.03L152.41,431.03z"/>
	</g>
</g>
<g>
	<g>
		<path class="st0" d="M221.26,299.06c-8.73,15.97-15.56,33.04-24.16,49.12c-4.31,8.06-8.81,16.03-13.38,23.96
			c-2.13,3.7-4.31,7.37-6.52,11.02c-1.86,3.05-4.4,5.81-3.62,9.49c0.14,0.68,0.9,0.99,1.51,0.86c3.61-0.78,5.19-4.54,7.06-7.46
			c2.3-3.6,4.56-7.22,6.77-10.87c4.91-8.09,9.44-16.37,13.75-24.79c8.13-15.89,16.81-32.8,21.48-50.1
			C224.61,298.58,222.14,297.46,221.26,299.06L221.26,299.06z"/>
	</g>
</g>
<g>
	<g>
		<path class="st0" d="M335.08,336.76c-13.47,15.2-22.87,33.77-32.03,51.83c-4.59,9.06-8.92,18.23-13.03,27.52
			c-1.97,4.45-3.89,8.92-5.77,13.41c-1.8,4.31-5.3,9.73-4.73,14.47c0.21,1.76,2.02,2.6,3.42,1.42c3.28-2.77,4.27-7.91,5.86-11.78
			c2.01-4.89,4.09-9.75,6.22-14.59c4.22-9.57,8.67-19.05,13.29-28.43c8.85-17.98,19.45-35.18,26.94-53.73
			C335.3,336.76,335.15,336.68,335.08,336.76L335.08,336.76z"/>
	</g>
</g>
<g>
	<g>
		<path class="st0" d="M223.58,464.24c-1.09,2.24-0.76,3.86-0.39,6.3c0.56,3.78,1.13,7.56,1.69,11.34
			c0.94,6.26,0.7,15.26,4.38,20.59c0.27,0.4,0.88,0.35,1.03-0.13c1.8-5.81-0.86-13.64-1.79-19.48c-0.6-3.77-1.2-7.54-1.81-11.31
			c-0.46-2.86-0.49-5.26-2.51-7.38C224.03,463.99,223.69,464.01,223.58,464.24L223.58,464.24z"/>
	</g>
</g>
<g>
	<g>
		<path class="st0" d="M233.31,459.49c0.56,8.32,1.61,16.55,2.68,24.81c0.99,7.6,1.52,15.95,4.43,23.07
			c0.27,0.65,1.19,0.58,1.24-0.17c0.57-7.66-1.51-15.78-2.92-23.27c-1.55-8.21-3.1-16.38-5.16-24.48
			C233.55,459.3,233.3,459.33,233.31,459.49L233.31,459.49z"/>
	</g>
</g>
<g>
	<g>
		<path class="st0" d="M258,475.56c-0.23,0.12-0.45,0.24-0.68,0.36c-0.65,0.34-1.1,1.14-1.07,1.87c0.22,6.08,1.15,12.18,1.8,18.24
			c0.46,4.29,0.12,9.93,3.41,13.12c0.43,0.42,1.12,0.32,1.44-0.18c2.63-4.19,0.62-10.25,0.01-14.86
			c-0.75-5.62-1.27-11.33-2.41-16.89c-0.15-0.71-0.82-1.34-1.51-1.51C258.81,475.65,258.27,475.41,258,475.56L258,475.56z"/>
	</g>
</g>
<g>
	<g>
		<path class="st0" d="M268.92,459.44c0.6,6.72,1.3,13.42,2.05,20.13c0.6,5.43,0.47,12.04,3.45,16.75c0.42,0.67,1.44,0.55,1.67-0.22
			c1.59-5.32-0.32-11.73-1.2-17.07c-1.1-6.66-2.24-13.3-3.48-19.93C271.15,457.72,268.79,458.02,268.92,459.44L268.92,459.44z"/>
	</g>
</g>
</svg>
