<svg xmlns="http://www.w3.org/2000/svg" width="126" height="24" viewBox="0 0 126 24">
    <g>
        <g>
            <path fill="#1b2124"
                d="M27.483 0l.069 24H22.34l-.034-14.4-7.063 11.863H12.74L5.712 9.908V24H.5V0h4.594l8.983 14.914L22.923 0zm18.351 0l10.732 24h-5.829l-2.126-5.143H37.47L35.343 24h-5.691L40.349 0zm-6.583 14.64h7.612l-3.806-9.188zM80.797 0v24h-4.56L64.271 9.429V24h-5.485V0h4.594l11.931 14.571V0zm23.914 0v4.526h-7.68V24h-5.554V4.526h-7.68V0zm8.555 0v19.474H125.3V24h-17.589V0z" />
        </g>
    </g>
</svg>