<?xml version="1.0" encoding="utf-8"?>
<!-- Generator: Adobe Illustrator 27.2.0, SVG Export Plug-In . SVG Version: 6.00 Build 0)  -->
<svg version="1.1" id="Layer_1" xmlns="http://www.w3.org/2000/svg" xmlns:xlink="http://www.w3.org/1999/xlink" x="0px" y="0px"
	 viewBox="0 0 600 600" style="enable-background:new 0 0 600 600;" xml:space="preserve">
<style type="text/css">
	.st0{fill:#E23A2E;}
	.st1{fill:#279847;}
	.st2{fill:#FFFFFF;}
	.st3{fill:#FBBF12;}
	.st4{fill:#336FEA;}
	.st5{fill:#913BD2;}
	.st6{fill:#F8C54A;}
	.st7{fill:#A11414;}
	.st8{fill:#D41F1F;}
	.st9{fill:#6686D1;}
	.st10{fill:#419E6C;}
	.st11{fill:#F5B84E;}
	.st12{fill:#E89634;}
	.st13{fill:#E45656;}
	.st14{fill:#243E80;}
	.st15{fill:#80C9E8;}
	.st16{fill:#5F9D5F;}
	.st17{fill:#68B672;}
</style>
<g>
	<g>
		<path class="st0" d="M190.14,183.22c0.06,0,0.06-0.1,0-0.1C190.07,183.12,190.07,183.22,190.14,183.22L190.14,183.22z"/>
	</g>
</g>
<g>
	<g>
		<path class="st0" d="M191.69,184.56c-43.92,43.08-54.91,114.1-29.1,169.3c25.76,55.11,83.16,91.42,144.14,89.2
			c17.69-0.64,35.32-4.17,51.77-10.71c15.64-6.22,32.75-14.85,44.14-27.55c2.26-2.52-0.67-6.95-3.79-4.91
			c-12.52,8.16-24.1,16.8-37.99,22.68c-13.48,5.7-27.98,9.58-42.52,11.25c-28.92,3.31-58.36-1.77-84.09-15.51
			c-50.77-27.12-82.09-82.25-77.99-139.79c2.41-33.81,16.32-65.48,38.33-91.07C196.27,185.48,193.59,182.7,191.69,184.56
			L191.69,184.56z"/>
	</g>
</g>
<g>
	<g>
		<path class="st0" d="M182.67,181.53c4.43,8.5,12.21,15.88,18.52,23.02c6.87,7.77,13.74,15.54,20.72,23.21
			c13.74,15.08,27.76,29.91,41.84,44.68c28.37,29.76,57.04,59.26,86.13,88.32c8.25,8.24,16.56,16.41,24.88,24.57
			c3.93,3.85,7.87,7.7,11.81,11.54c3.95,3.85,7.43,8.48,12.95,9.89c2.33,0.59,4.62-1.55,3.94-3.94c-1.34-4.67-4.7-7.33-8.09-10.63
			c-3.71-3.61-7.42-7.23-11.12-10.86c-7.4-7.25-14.78-14.52-22.14-21.81c-14.49-14.36-29-28.69-43.4-43.15
			c-29.01-29.14-57.43-58.85-86.1-88.33c-8.12-8.35-16.28-16.68-24.42-25c-7.5-7.67-15.02-17.16-24.12-22.92
			C183.16,179.56,182.22,180.66,182.67,181.53L182.67,181.53z"/>
	</g>
</g>
<g>
	<g>
		<path class="st0" d="M186.45,147.49c14.49,15.67,28.48,31.77,43.2,47.23c14.93,15.68,29.78,31.45,44.86,46.99
			c29.68,30.6,59.33,61.24,89.07,91.8c8.36,8.59,16.73,17.19,25.09,25.78c8.1,8.33,15.87,18.77,25.98,24.64
			c2.85,1.65,5.97-1.62,4.43-4.43c-4.91-8.94-13.46-15.77-20.54-23.01c-7.46-7.62-14.91-15.23-22.37-22.85
			c-15.15-15.47-30.32-30.92-45.49-46.36c-29.88-30.41-59.79-60.79-89.94-90.93c-17.21-17.21-35.04-33.71-52.5-50.65
			C187.07,144.56,185.35,146.29,186.45,147.49L186.45,147.49z"/>
	</g>
</g>
<g>
	<g>
		<path class="st0" d="M413.12,377.33c27.35-13.74,43.44-42.57,48.7-72.01c5.44-30.46-0.12-61.88-13.75-89.49
			c-13.69-27.73-35.54-51.63-62.26-67.28c-27.61-16.16-60.17-22.57-91.92-19.28c-17.57,1.82-34.7,6.39-50.81,13.65
			c-8.38,3.77-16.43,8.29-24,13.51c-7.24,5.01-14.37,10.31-19.44,17.57c-1.61,2.31,1.56,5.35,3.85,3.85
			c6.21-4.08,11.62-9.14,17.67-13.45c6.07-4.33,12.47-8.19,19.11-11.56c13.46-6.84,27.97-11.57,42.82-14.23
			c29.42-5.27,60.72-1.89,87.83,10.93c52.59,24.88,89.04,82.67,85.81,141.23c-1.82,32.94-16.64,65.87-45.04,84.12
			C410.17,375.88,411.51,378.14,413.12,377.33L413.12,377.33z"/>
	</g>
</g>
</svg>
