<?xml version="1.0" encoding="utf-8"?>
<!-- Generator: Adobe Illustrator 27.2.0, SVG Export Plug-In . SVG Version: 6.00 Build 0)  -->
<svg version="1.1" id="Layer_1" xmlns="http://www.w3.org/2000/svg" xmlns:xlink="http://www.w3.org/1999/xlink" x="0px" y="0px"
	 viewBox="0 0 600 600" style="enable-background:new 0 0 600 600;" xml:space="preserve">
<style type="text/css">
	.st0{fill:#121212;}
</style>
<g>
	<g>
		<path class="st0" d="M274.76,56.58c-21.51,1.16-41.97,11.75-56.56,27.45c-16.23,17.47-25.05,40.12-27.69,63.62
			c-2.67,23.74,0.29,49.94,10.7,71.62c10.71,22.31,30.72,35.62,55.03,38.91c42.75,5.78,91.9-10.8,117.81-46.28
			c25.34-34.69,21.53-84.68-3.97-118.2c-14.72-19.35-36.43-32.5-59.93-38.26c-23.17-5.68-49.87-5.87-70.76,6.83
			c-1.86,1.13-0.57,3.68,1.41,3.34c19.65-3.33,39.82-6.37,59.65-2.81c19.56,3.52,38.28,12.07,52.76,25.84
			c27.3,25.96,37.39,70.38,20.96,104.87c-17.3,36.33-58.53,54.4-97.07,55.71c-21.63,0.74-44.66-3.8-59-21.38
			c-13.73-16.83-18.74-40.95-19.44-62.16c-0.82-24.69,5.05-50.02,20.09-69.98c13.77-18.28,33.9-31.09,56.66-34.29
			C278.16,61.03,277.51,56.43,274.76,56.58L274.76,56.58z"/>
	</g>
</g>
<g>
	<g>
		<path class="st0" d="M114.67,441.22c1.57-7.9,1.84-15.86,3.07-23.8c1.24-7.98,3.13-15.91,5.57-23.61
			c4.98-15.76,12.6-30.62,22.18-44.08c19.64-27.57,48.42-48.14,80.45-58.74c69.27-22.91,146.03,0.04,196.64,50.99
			c26.99,27.17,46.51,60.85,58.42,97.14c1.91,5.82,11.11,3.35,9.22-2.54c-21.86-68.11-73.57-128.23-142.17-151.77
			c-35.92-12.32-75.63-14.59-112.49-5.12c-34.55,8.88-65.62,28.79-87.82,56.74c-11.72,14.75-21.24,31.1-27.63,48.85
			c-3.34,9.27-5.74,18.79-7.09,28.55c-1.28,9.21-2.1,18.32,0.35,27.37C113.54,441.83,114.54,441.89,114.67,441.22L114.67,441.22z"/>
	</g>
</g>
<g>
	<g>
		<path class="st0" d="M114.31,443.2c10.59,5.75,23.76,7.43,35.5,9.61c11.92,2.21,23.9,4.19,35.91,5.85
			c24.76,3.43,49.67,5.78,74.62,7.15c50.06,2.73,100.36,1.26,150.21-4.11c13.42-1.45,26.81-3.19,40.16-5.22
			c6.95-1.05,13.88-2.21,20.79-3.46c6.83-1.24,14.14-1.79,20.1-5.51c2.03-1.27,2.02-5.14-0.73-5.59
			c-5.63-0.92-10.55,0.26-16.14,1.27c-6.29,1.14-12.59,2.2-18.89,3.23c-12.52,2.06-25.08,3.86-37.68,5.38
			c-24.1,2.91-48.32,4.9-72.58,5.77c-49.16,1.76-98.45-0.25-147.27-6.27c-14.19-1.75-28.35-3.75-42.45-6.09
			c-6.94-1.15-13.88-2.34-20.82-3.49c-6.6-1.09-13.1-2.38-19.81-1.93C113.53,439.91,112.62,442.28,114.31,443.2L114.31,443.2z"/>
	</g>
</g>
<g>
	<g>
		<path class="st0" d="M222.05,146.47c0.17,0.07,0.34,0.14,0.51,0.21c0.63,0.26,1.51-0.05,1.96-0.52c3.78-3.92,6.74-8.66,9.58-13.28
			c2.58-4.19,5.24-8.41,5.85-13.37c0.12-1-1.23-1.67-2.01-1.15c-4.16,2.76-6.73,7.15-9.3,11.33c-2.84,4.62-5.7,9.37-7.49,14.52
			c-0.22,0.62,0,1.54,0.52,1.96C221.29,145.85,221.93,146.42,222.05,146.47L222.05,146.47z"/>
	</g>
</g>
<g>
	<g>
		<path class="st0" d="M252.28,107.23c6.23-3.1,11.3-8.5,17.48-11.91c3.25-1.79,6.53-3.12,9.97-4.47c2.6-1.02,4.7-1.76,5.61-4.57
			c0.22-0.69-0.01-1.6-0.55-2.09c-4.89-4.35-15.06,2.14-19.55,4.96c-5.94,3.74-13.21,9.22-15.48,16.13
			C249.25,106.81,251.03,107.86,252.28,107.23L252.28,107.23z"/>
	</g>
</g>
<g>
	<g>
		<path class="st0" d="M259.06,285.2c3.51,7.26,7.03,14.52,10.54,21.78c1.69,3.48,3.38,6.97,5.11,10.43
			c1.64,3.28,2.59,6.17,5.65,8.26c1.75,1.19,3.87-0.42,3.97-2.28c0.18-3.38-1.49-5.75-2.96-8.75c-1.85-3.76-3.74-7.5-5.63-11.24
			c-3.65-7.18-7.3-14.36-10.95-21.55C262.84,278.03,257.21,281.39,259.06,285.2L259.06,285.2z"/>
	</g>
</g>
<g>
	<g>
		<path class="st0" d="M274.88,326.22c10.86,1.3,23.57,2.42,34.37,0.34c3.9-0.75,2.59-6.18-0.88-6.49
			c-5.8-0.52-11.95,0.62-17.73,1.26c-5.39,0.6-10.77,1.42-16.07,2.61C273.19,324.25,273.68,326.08,274.88,326.22L274.88,326.22z"/>
	</g>
</g>
<g>
	<g>
		<path class="st0" d="M307.84,329.69c5.96-5.67,9.61-13.97,13.67-21.01c2.13-3.69,4.22-7.39,6.32-11.1
			c1.89-3.32,4.5-6.51,4.18-10.46c-0.16-2-2.07-3.19-3.91-2.25c-3.53,1.81-4.83,5.6-6.66,8.97c-2.04,3.74-4.08,7.48-6.09,11.23
			c-3.86,7.19-9.02,14.68-10.69,22.76C304.29,329.68,306.41,331.05,307.84,329.69L307.84,329.69z"/>
	</g>
</g>
<g>
	<g>
		<path class="st0" d="M277.07,326.06c-3.55,2.75-3.6,8.69-4.52,12.86c-1.21,5.49-2.43,10.97-3.62,16.46
			c-2.45,11.31-4.65,22.68-6.97,34.02c-2.25,11.02-4.49,22.04-6.74,33.06c-2.3,11.31-5.14,22.66-6.72,34.09
			c-0.58,4.2,5.41,6.19,6.58,1.81c2.98-11.15,4.76-22.7,7.02-34.01c2.27-11.36,4.54-22.71,6.81-34.07
			c2.21-11.03,4.52-22.05,6.58-33.1c1.1-5.86,2.16-11.73,3.24-17.59c0.77-4.19,2.87-9.35,0.64-13.24
			C278.87,325.45,277.8,325.49,277.07,326.06L277.07,326.06z"/>
	</g>
</g>
<g>
	<g>
		<path class="st0" d="M308.85,319.65c0.24,11.38,3.64,22.98,5.97,34.07c2.53,12.06,5.21,24.09,7.93,36.11
			c2.65,11.7,5.43,23.38,8.34,35.02c1.42,5.66,2.86,11.31,4.34,16.96c1.38,5.28,2.06,12.35,6.06,16.27
			c1.83,1.79,5.26,1.08,5.88-1.55c1.19-5.07-1.39-10.35-2.85-15.2c-1.78-5.9-3.54-11.8-5.26-17.72
			c-3.35-11.52-6.56-23.07-9.65-34.65c-3-11.27-5.82-22.59-8.5-33.94c-2.78-11.79-4.38-24.54-8.81-35.83
			C311.62,317.45,308.8,317.52,308.85,319.65L308.85,319.65z"/>
	</g>
</g>
<g>
	<g>
		<path class="st0" d="M348.99,185.19c3.22,4.18,6.41,8.38,9.65,12.54c2.57,3.29,5.47,7.9,9.39,9.56c0.97,0.41,2.07-0.26,1.81-1.39
			c-0.98-4.16-4.97-7.74-7.77-10.82c-3.56-3.92-7.21-7.76-10.82-11.64C350.16,182.27,347.98,183.88,348.99,185.19L348.99,185.19z"/>
	</g>
</g>
<g>
	<g>
		<path class="st0" d="M359.16,173.86c2.72,2.28,5.68,5.66,9.25,6.46c0.82,0.18,1.37-0.62,1.03-1.34c-1.57-3.3-5.54-5.45-8.36-7.6
			C359.66,170.3,357.79,172.71,359.16,173.86L359.16,173.86z"/>
	</g>
</g>
<g>
	<g>
		<path class="st0" d="M362.77,171.84c-0.87-2.2-0.3-5.35,2.15-6.32c2.46-0.97,4.9,0.82,6.08,2.85c0.33,0.57,1.03,1.03,1.71,0.98
			c0.37-0.03,0.68-0.06,1-0.27c0.69-0.45,1.22-1.4,0.91-2.24c-1.52-4.15-6.56-6.54-10.65-4.45c-3.66,1.87-5.6,6.36-3.99,10.21
			C360.69,174.29,363.46,173.58,362.77,171.84L362.77,171.84z"/>
	</g>
</g>
<g>
	<g>
		<path class="st0" d="M368.93,149.02c1.26,1.22,2.52,2.44,3.78,3.67c1.15,1.11,2.23,2.52,3.9,2.77c0.82,0.12,1.37-0.44,1.25-1.25
			c-0.24-1.67-1.64-2.76-2.75-3.92c-1.21-1.27-2.43-2.53-3.64-3.8C369.87,144.82,367.27,147.41,368.93,149.02L368.93,149.02z"/>
	</g>
</g>
<g>
	<g>
		<path class="st0" d="M428.39,434.28c1.67,3.04,3.93,5.68,6.75,7.72c2.37,1.71,6.06,3.63,9.04,3.07c0.74-0.14,0.78-1.19,0.2-1.54
			c-2.34-1.43-5.25-1.88-7.68-3.32c-2.86-1.69-5.11-3.96-6.86-6.78C429.27,432.5,427.86,433.32,428.39,434.28L428.39,434.28z"/>
	</g>
</g>
<g>
	<g>
		<path class="st0" d="M436.72,419.89c4.56,2.17,8.96,4.72,13.13,7.58c4.11,2.82,7.62,6.8,12.01,9.14c0.99,0.53,2.09-0.54,1.54-1.54
			c-4.74-8.64-16.95-14.1-25.78-17.3C436.39,417.32,435.53,419.32,436.72,419.89L436.72,419.89z"/>
	</g>
</g>
<g>
	<g>
		<path class="st0" d="M450.15,412.51c3.91,1.32,7.62,3.1,11.02,5.45c3.13,2.16,5.65,5.22,8.95,7.1c0.92,0.52,2.43-0.37,1.96-1.51
			c-3.14-7.7-13.44-12.55-20.83-15.04C448.71,407.66,447.63,411.66,450.15,412.51L450.15,412.51z"/>
	</g>
</g>
<g>
	<g>
		<path class="st0" d="M280.84,276.35c-2.46,5.89-2.38,13.26-4.05,19.5c-1.68,6.3-5.41,12.55-6.34,18.92
			c-0.14,0.99,1.05,2.04,1.88,1.09c4.32-4.92,5.99-12.95,7.56-19.16c1.52-6.03,3.96-14.16,2.44-20.35
			C282.13,275.54,281.1,275.71,280.84,276.35L280.84,276.35z"/>
	</g>
</g>
<g>
	<g>
		<path class="st0" d="M293.88,274.58c-2.83,7.99-5.55,15.98-8,24.09c-2.23,7.37-5.23,15.28-5.4,23.03
			c-0.02,0.88,1.2,1.18,1.64,0.44c3.94-6.7,5.52-14.99,7.49-22.45c2.17-8.19,4.05-16.41,5.83-24.69
			C295.66,273.99,294.23,273.6,293.88,274.58L293.88,274.58z"/>
	</g>
</g>
<g>
	<g>
		<path class="st0" d="M306.21,268.04c-3.24,7.96-4.81,16.72-6.78,25.05c-1.82,7.66-4.63,15.87-4.91,23.76
			c-0.03,0.9,1.37,1.35,1.77,0.48c3.38-7.47,4.58-16.41,6.41-24.38c1.87-8.13,4.28-16.39,4.9-24.73
			C307.65,267.37,306.48,267.37,306.21,268.04L306.21,268.04z"/>
	</g>
</g>
<g>
	<g>
		<path class="st0" d="M312.84,276.37c-3.18,15.43-7.96,31.31-8.6,47.09c-0.04,0.99,1.36,1.09,1.66,0.22
			c5.06-14.84,6.33-31.33,8.91-46.77C315.02,275.64,313.11,275.07,312.84,276.37L312.84,276.37z"/>
	</g>
</g>
<g>
	<g>
		<path class="st0" d="M283.38,331.88c1.28-2.03,2.54-4.08,3.78-6.13c-0.6-0.25-1.2-0.51-1.8-0.76c-3.25,20.71-5.4,41.6-8.63,62.33
			c-1.59,10.23-3.36,20.43-5.18,30.62c-1.73,9.67-5.21,20.11-5.17,29.95c0,0.82,1.26,1.26,1.64,0.44
			c4.13-8.86,5.13-19.89,7.04-29.43c2.09-10.46,3.88-20.98,5.53-31.53c3.2-20.47,6.15-41.41,6.71-62.13
			c0.03-1.15-1.59-1.28-1.93-0.26c-0.77,2.25-1.51,4.52-2.24,6.78C283.07,331.93,283.3,332.01,283.38,331.88L283.38,331.88z"/>
	</g>
</g>
<g>
	<g>
		<path class="st0" d="M297.64,328.5c-2.5,19.11-3.36,38.54-4.91,57.74c-0.75,9.29-1.5,18.58-2.2,27.88
			c-0.73,9.72-2.58,20.15-1.71,29.87c0.09,1.05,1.65,1.41,1.93,0.26c2.25-8.99,2.07-18.92,2.81-28.14
			c0.77-9.62,1.5-19.25,2.21-28.87c1.45-19.52,3.65-39.17,4.12-58.74C299.93,327.01,297.82,327.11,297.64,328.5L297.64,328.5z"/>
	</g>
</g>
<g>
	<g>
		<path class="st0" d="M308.99,333.49c-0.29,20.13-1.02,40.29-2.08,60.4c-0.52,9.72-1.16,19.44-1.94,29.15
			c-0.82,10.27-2.63,20.67-2.68,30.97c0,0.87,1.29,1.05,1.52,0.21c2.57-9.41,3.27-19.57,4.39-29.24
			c1.16-10.02,2.08-20.05,2.73-30.12c1.32-20.47,1.34-40.89,0.24-61.37C311.09,332.09,309.01,332.08,308.99,333.49L308.99,333.49z"
			/>
	</g>
</g>
<g>
	<g>
		<path class="st0" d="M319.79,383.71c-0.62,20.56-2.7,41.42-1.06,61.96c0.11,1.37,1.96,1.34,2.11,0
			c2.35-20.48,1.03-41.4,1.13-61.96C321.98,382.3,319.84,382.3,319.79,383.71L319.79,383.71z"/>
	</g>
</g>
<g>
	<g>
		<path class="st0" d="M333.91,421.99c-2.68,16.33-4.34,33.97-2.96,50.48c0.08,0.99,1.64,1.38,1.86,0.25
			c3.21-16.27,3.54-33.99,2.68-50.52C335.46,421.35,334.07,421.04,333.91,421.99L333.91,421.99z"/>
	</g>
</g>
</svg>
