<?xml version="1.0" encoding="utf-8"?>
<!-- Generator: Adobe Illustrator 27.2.0, SVG Export Plug-In . SVG Version: 6.00 Build 0)  -->
<svg version="1.1" id="Layer_1" xmlns="http://www.w3.org/2000/svg" xmlns:xlink="http://www.w3.org/1999/xlink" x="0px" y="0px"
	 viewBox="0 0 600 600" style="enable-background:new 0 0 600 600;" xml:space="preserve">
<style type="text/css">
	.st0{fill:#121212;}
</style>
<g>
	<g>
		<path class="st0" d="M151.72,224.67c-3.29,40.7-3.13,81.14,1.53,121.74c1.63,14.17,4.27,30.68,18.35,37.86
			c6.87,3.5,14.79,4.09,22.37,3.95c9.73-0.18,19.47-0.98,29.18-1.51c23.08-1.26,46.26-2.01,69.31-3.85c5.61-0.45,5.77-9.03,0-8.86
			c-18.82,0.56-37.64,2.01-56.44,3.05c-9.57,0.53-19.14,1.06-28.71,1.59c-7.81,0.43-15.99,1.47-23.78,0.32
			c-17.67-2.61-20.53-19.56-22.38-34.51c-2.3-18.55-3.9-37.21-4.83-55.88c-1.06-21.32-1.91-42.54-1.36-63.9
			C155.01,222.56,151.88,222.62,151.72,224.67L151.72,224.67z"/>
	</g>
</g>
<g>
	<g>
		<path class="st0" d="M293.37,379.7c-4.47,3.86-6.92,10.85-9.66,16c-3.13,5.89-6.37,11.82-8.99,17.97
			c-1.92,4.51,4.27,8.53,6.79,3.97c3.39-6.13,6.18-12.65,9.02-19.05c2.38-5.35,6.24-11.43,6.53-17.35
			C297.16,379.22,294.69,378.55,293.37,379.7L293.37,379.7z"/>
	</g>
</g>
<g>
	<g>
		<path class="st0" d="M278.31,420.53c4.78-1.77,8.9-5.24,13.02-8.19c4.85-3.48,9.7-6.96,14.55-10.44c4.58-3.29,9.15-6.6,13.7-9.93
			c3.96-2.91,9.52-5.6,11.62-10.2c1.03-2.25-0.65-4.27-3.02-3.92c-4.94,0.71-9.24,5.38-13.13,8.34c-4.47,3.41-8.92,6.84-13.36,10.29
			c-4.45,3.46-8.9,6.91-13.35,10.37c-4.25,3.31-9.05,6.41-12.29,10.75C275.02,418.96,276.73,421.12,278.31,420.53L278.31,420.53z"/>
	</g>
</g>
<g>
	<g>
		<path class="st0" d="M324.72,380.72c9.35,2.44,20.2-0.18,29.7-0.86c10.48-0.75,20.95-1.42,31.46-1.65
			c1.51-0.03,3.06-0.8,3.79-2.18c0.93-1.75,1.02-2.68,0-4.43c-0.76-1.31-2.26-2.22-3.79-2.18c-10.83,0.29-21.67,0.82-32.44,2.06
			c-9.4,1.08-20.9,1.34-29.07,6.54C323.32,378.68,323.45,380.38,324.72,380.72L324.72,380.72z"/>
	</g>
</g>
<g>
	<g>
		<path class="st0" d="M386.74,376.33c5,1.1,9.74-3.87,12.49-7.48c3.52-4.63,6-10,7.58-15.59c4.2-14.94,2.67-31.39,1.88-46.68
			c-0.84-16.27-2.21-32.5-4.38-48.64c-1-7.47-2.14-14.92-3.35-22.36c-1.09-6.7-0.96-16.5-6.31-21.34c-0.79-0.71-2.23-0.7-2.76,0.36
			c-2.82,5.6-0.43,12.45,0.49,18.32c1.2,7.68,2.22,15.38,3.11,23.1c1.68,14.55,3.09,29.14,4.03,43.75
			c0.91,14.21,2.36,29.01,0.92,43.21c-0.64,6.34-2.26,12.71-5.46,18.25c-2.48,4.3-8.23,8.29-9.4,13.08
			C385.38,375.13,385.85,376.13,386.74,376.33L386.74,376.33z"/>
	</g>
</g>
<g>
	<g>
		<path class="st0" d="M152.84,231.66c6.7-11.47,18.46-15.86,31.03-17.82c15.85-2.48,32.36-1.85,48.35-2.25
			c37.1-0.94,74.19-2.26,111.28-3.66c9.8-0.37,20.75-2.11,30.43-0.06c4.02,0.85,7.79,2.52,10.3,5.88c2.53,3.39,2.23,6.78,2.35,10.77
			c0.09,2.94,3.78,4.68,5.94,2.46c5.16-5.31,2.9-13.33-1.18-18.71c-5.14-6.79-13.18-9.31-21.38-9.94
			c-10.03-0.77-20.4,0.37-30.43,0.74c-10.93,0.41-21.86,0.82-32.79,1.29c-21.53,0.92-43.06,1.73-64.58,2.81
			c-19.05,0.96-38.56,0.69-57.46,3.42c-14.71,2.13-31.27,7.82-36.86,22.95C146.73,232.51,151.31,234.29,152.84,231.66L152.84,231.66
			z"/>
	</g>
</g>
<g>
	<g>
		<path class="st0" d="M127.91,242.78c-22.93,32.82-29.44,77.74-22.71,116.61c6.43,37.15,26.39,75.03,56.24,98.66
			c8.12,6.43,17.28,11.91,27.37,14.55c8.04,2.11,21.93,4.16,26.83-4.47c0.62-1.1,0.02-2.35-1.11-2.74
			c-3.82-1.32-7.02-0.63-10.94-0.31c-4.18,0.34-8.35-0.1-12.4-1.13c-8.79-2.23-16.89-6.91-24.01-12.44
			c-13.98-10.86-25.43-25.5-34.35-40.69c-18.53-31.56-26.14-68.92-20.89-105.18c3.1-21.42,10.85-40.99,20.45-60.24
			C133.91,242.38,129.83,240.04,127.91,242.78L127.91,242.78z"/>
	</g>
</g>
<g>
	<g>
		<path class="st0" d="M137.67,243.92c-2.89,2.87-4.04,6.6-5.45,10.34c-1.72,4.57-3.22,9.22-4.6,13.91
			c-2.85,9.65-5.08,19.45-6.6,29.4c-2.89,18.85-3.28,37.98-0.44,56.87c4.73,31.42,21.19,61.28,46.44,80.83
			c6.73,5.21,13.98,9.64,21.79,13.03c7.21,3.13,16.63,7.47,24.58,5.75c3.32-0.72,3.68-5.45,0.92-7.07
			c-5.85-3.45-13.55-3.91-19.93-6.43c-6.44-2.54-12.55-5.97-18.24-9.89c-11.81-8.13-21.88-18.93-29.69-30.93
			c-18.46-28.35-23.39-62.69-19.65-95.87c1.16-10.3,3.18-20.5,5.63-30.57c1.16-4.75,2.49-9.43,3.84-14.13
			c1.35-4.69,3.53-9.58,3.14-14.52C139.34,243.79,138.33,243.27,137.67,243.92L137.67,243.92z"/>
	</g>
</g>
<g>
	<g>
		<path class="st0" d="M209.26,450.32c-0.37,1.45-1.16,2.06-1.28,3.59c-0.22,2.74,0.12,5.28-0.36,8.04
			c-0.68,3.88-3.49,7.85-2.47,11.79c0.26,1,1.36,1.59,2.34,1.33c4.91-1.33,6.02-7.89,6.32-12.28c0.18-2.64-0.01-5.54-0.73-8.1
			c-0.84-2.99-1.6-2.67-3.73-4.39C209.31,450.28,209.27,450.28,209.26,450.32L209.26,450.32z"/>
	</g>
</g>
<g>
	<g>
		<path class="st0" d="M177.7,195.91c2.63-0.83,2.92-0.34,5.12-1.84c1.41-0.96,2.75-2.02,4.14-2.98c3.04-2.1,6.16-4.08,9.35-5.94
			c6.89-4.01,14.11-7.3,21.46-10.36c1.3-0.54,2.7-1.72,2.53-3.33c-0.07-0.65-0.08-1.2-0.47-1.74c-0.83-1.16-2.4-2.15-3.9-1.59
			c-7.74,2.91-15.1,6.69-22.11,11.08c-3.38,2.12-6.66,4.38-9.85,6.77c-1.55,1.17-3.16,2.32-4.62,3.6c-2.11,1.85-1.54,2.08-2.93,4.67
			C175.98,195.09,176.72,196.22,177.7,195.91L177.7,195.91z"/>
	</g>
</g>
<g>
	<g>
		<path class="st0" d="M185.46,200.48c4.05,1.4,9.09-2.98,12.69-4.67c5.75-2.7,11.64-5.11,17.63-7.21
			c5.67-1.99,11.45-3.58,17.23-5.23c2.33-0.67,7.12-1.84,5.7-5.42c-1.58-3.98-8.41-0.99-11-0.24c-5.49,1.59-10.86,3.57-16.14,5.75
			c-5.24,2.17-10.37,4.56-15.37,7.23c-3.61,1.93-10.63,4.13-11.43,8.58C184.67,199.82,184.92,200.29,185.46,200.48L185.46,200.48z"
			/>
	</g>
</g>
<g>
	<g>
		<path class="st0" d="M213.77,170.65c-0.49-2.8-3.33-3.44-5.62-4.72c-3.79-2.12-7.6-4.2-11.28-6.5c-3.45-2.15-6.94-4.22-10.32-6.48
			c-3.05-2.04-5.92-5.29-9.8-4.79c-1.81,0.24-2.86,1.49-2.54,3.34c0.66,3.9,4.63,5.65,7.72,7.63c3.92,2.51,7.92,4.86,12.17,6.78
			c3.93,1.78,7.93,3.49,12.05,4.78c2.66,0.83,5.14,2.27,7.5,0.44C213.79,171.02,213.8,170.81,213.77,170.65L213.77,170.65z"/>
	</g>
</g>
<g>
	<g>
		<path class="st0" d="M176.85,154.25c1.1-0.94,2.53-1.57,3.7-2.44c1.09-0.8,2.08-1.75,3.09-2.64c2.09-1.85,4.15-3.77,6.02-5.84
			c2.29-2.55-1.19-6-3.75-3.75c-2.09,1.85-4.03,3.89-5.9,5.96c-1.91,2.12-3.29,4.6-5.14,6.72
			C173.66,153.63,175.47,155.42,176.85,154.25L176.85,154.25z"/>
	</g>
</g>
<g>
	<g>
		<path class="st0" d="M186.77,136.43c-0.44,1.5-0.93,2.91-1.53,4.35c-0.41,0.99,0.46,2.1,1.35,2.38
			c14.27,4.43,29.76,5.56,44.53,7.34c15.33,1.85,30.71,3.29,46.1,4.63c4.87,0.42,4.84-7.16,0-7.59
			c-15.05-1.34-30.08-2.91-45.12-4.46c-14.85-1.52-30.04-4.2-45-3.71c0.62,0.47,1.24,0.95,1.86,1.42c-0.29-1.36-0.47-2.74-0.54-4.12
			C188.35,135.74,187.05,135.48,186.77,136.43L186.77,136.43z"/>
	</g>
</g>
<g>
	<g>
		<path class="st0" d="M278.92,150.65c-7.95,8.48-13.48,19.86-19.43,29.78c-3,5-6.01,10-9.01,15.01c-2.3,3.84-6.38,8.25-4.35,12.79
			c0.24,0.53,0.98,0.93,1.55,0.89c4.67-0.37,6.45-5.52,8.59-9.16c3.11-5.31,6.2-10.65,9.29-15.97c5.82-10,13.11-20.33,16.71-31.38
			C282.88,150.7,280.26,149.21,278.92,150.65L278.92,150.65z"/>
	</g>
</g>
<g>
	<g>
		<path class="st0" d="M239.25,183.45c0.3-1.24,0.61-2.47,0.91-3.71c0.42-1.71-2.11-2.4-2.63-0.72c-1.62,5.19-3.24,10.23-4.22,15.59
			c-0.72,3.92-2.78,8.61-0.37,12.12c0.52,0.75,1.7,1.31,2.55,0.67c3.64-2.78,3.21-7.83,3.81-12.13c0.75-5.3,0.8-10.55,0.91-15.9
			c-0.91,0-1.82,0-2.73,0c-0.05,1.27-0.11,2.54-0.16,3.81C237.27,184.29,238.99,184.52,239.25,183.45L239.25,183.45z"/>
	</g>
</g>
<g>
	<g>
		<path class="st0" d="M342.74,397.83c-3.96,6.22-6.55,13.46-9.76,20.09c-3.25,6.73-6.49,13.46-9.9,20.11
			c-3.41,6.65-6.95,13.24-10.61,19.75c-3.14,5.59-8.05,11.5-8.81,17.97c-0.22,1.86,2.33,3.22,3.81,2.19
			c5.33-3.72,8.07-11.01,11.13-16.58c3.76-6.82,7.38-13.72,10.86-20.69c3.34-6.69,6.59-13.43,9.57-20.29
			c2.91-6.69,6.46-13.59,8.07-20.72C347.7,397.03,344.21,395.51,342.74,397.83L342.74,397.83z"/>
	</g>
</g>
<g>
	<g>
		<path class="st0" d="M300.84,477.71c7.35,1.82,15.58,1.83,23.13,2.29c8.21,0.49,16.44,0.8,24.66,1.03
			c7.89,0.23,15.78,0.45,23.67,0.68c8.37,0.24,17.34,1.42,25.65,0.45c3.62-0.42,5.32-6.31,0.95-7.04
			c-7.98-1.35-16.54-0.76-24.63-0.94c-8.22-0.18-16.44-0.36-24.66-0.54c-8.22-0.18-16.44-0.28-24.66-0.25
			c-7.84,0.04-16.4-0.35-24.11,1.14C299.22,474.84,299.31,477.34,300.84,477.71L300.84,477.71z"/>
	</g>
</g>
<g>
	<g>
		<path class="st0" d="M345.7,400.73c4.73,1.29,9.7,2.56,14.58,3.04c3.76,0.37,4.4-5.55,0.88-6.49c-4.71-1.26-9.85-1.75-14.69-2.21
			C343.17,394.76,342.63,399.9,345.7,400.73L345.7,400.73z"/>
	</g>
</g>
<g>
	<g>
		<path class="st0" d="M360.43,397.2c-3.31,7.48-5.57,15.61-7.76,23.48c-1.13,4.05-2.3,8.09-3.38,12.16
			c-0.95,3.59-2.23,7.15-0.82,10.74c0.49,1.24,1.78,1.59,2.82,0.74c2.97-2.43,3.6-6.11,4.51-9.69c1.03-4.08,1.99-8.18,2.99-12.27
			c1.94-7.96,3.96-16.16,4.72-24.33C363.66,396.45,361.09,395.72,360.43,397.2L360.43,397.2z"/>
	</g>
</g>
<g>
	<g>
		<path class="st0" d="M349.78,443.94c25.09-8.74,48.52-26.28,66.02-46.03c18.28-20.63,31.81-45.65,37.19-72.79
			c11.11-56.11-9.9-115.78-59.14-146.84c-12.73-8.03-26.95-13.95-41.68-17.12c-7.16-1.54-14.48-2.47-21.8-2.71
			c-7.53-0.25-15.42-0.45-22.12,3.34c-1.82,1.03-1.56,4.18,0.6,4.63c5.98,1.24,11.73,0.39,17.79,0.36
			c6.33-0.03,12.68,0.47,18.92,1.56c12.69,2.21,24.98,6.46,36.34,12.53c22.91,12.24,41.15,31.22,52.31,54.69
			c23.27,48.93,14.12,107.59-18.16,150.15c-8.75,11.54-19.22,22.19-30.57,31.19c-11.6,9.2-24.34,16.21-37.35,23.14
			C346.02,441.15,347.46,444.75,349.78,443.94L349.78,443.94z"/>
	</g>
</g>
<g>
	<g>
		<path class="st0" d="M314.37,161.31c1.16-3.66,1.63-7.55,2.15-11.36c0.64-4.74-6.33-5.59-6.43-0.87
			c-0.08,4.08-0.16,8.18,0.45,12.23C310.86,163.38,313.84,163.01,314.37,161.31L314.37,161.31z"/>
	</g>
</g>
<g>
	<g>
		<path class="st0" d="M311.16,150.32c29.98-9.92,64.31-9.29,92.53,5.56c24.01,12.64,42.63,33.83,54.38,58.09
			c27.66,57.14,12.17,125.78-20.36,177.48c-8.43,13.39-18.33,25.9-30.06,36.55c-12.39,11.25-26.25,18.38-41.63,24.62
			c-4.02,1.63-2.6,7.64,1.83,6.64c14.23-3.2,27.33-11.7,38.58-20.72c11.8-9.47,21.9-20.91,30.67-33.2
			c19.43-27.21,33.32-59.4,39.29-92.32c5.72-31.57,3.95-64.64-8.49-94.44c-10.97-26.29-29.39-49.77-53.78-64.83
			c-31.38-19.38-70.93-22.62-104.21-6.38C308.27,148.17,309.42,150.9,311.16,150.32L311.16,150.32z"/>
	</g>
</g>
<g>
	<g>
		<path class="st0" d="M364.7,458.02c-0.57,6.69,13.86,8.94,18.55,9.72c8.36,1.4,18.66,2.11,26.54-1.49
			c3.32-1.52,1.56-6.74-1.81-6.68c-4.52,0.08-8.97,1.28-13.53,1.42c-4.81,0.15-9.6-0.19-14.31-1.17
			C378.51,459.48,365,454.41,364.7,458.02L364.7,458.02z"/>
	</g>
</g>
<g>
	<g>
		<path class="st0" d="M405.59,465.45c-1.54,2.68-2.84,5.45-4.72,7.93c-0.85,1.13-1.83,2.17-2.63,3.34c-0.77,1.13-0.99,2.21-1.5,3.4
			c-0.48,1.13,0.3,2.34,1.59,2.07c1.73-0.37,2.79-0.49,4.29-1.62c1.35-1.02,2.39-2.37,3.37-3.74c1.98-2.76,3.64-6.1,4.11-9.48
			C410.46,464.78,407.1,462.81,405.59,465.45L405.59,465.45z"/>
	</g>
</g>
<g>
	<g>
		<path class="st0" d="M396.7,486.56c5.75,0,5.76-8.93,0-8.93C390.95,477.63,390.94,486.56,396.7,486.56L396.7,486.56z"/>
	</g>
</g>
<g>
	<g>
		<path class="st0" d="M130.79,238.49c1.07,2.38,2.12,4.78,3.29,7.12c1.6,3.2,6.39,0.39,4.8-2.8c-1.16-2.33-2.45-4.59-3.71-6.87
			C133.56,233.02,129.48,235.58,130.79,238.49L130.79,238.49z"/>
	</g>
</g>
<g>
	<g>
		<path class="st0" d="M178.15,187.44c1.42,4.82,5.89,8.79,10.34,10.83c3.52,1.61,6.56-3.25,3.09-5.29
			c-1.8-1.06-3.54-2.25-5.19-3.54c-1.64-1.28-2.97-2.84-4.58-4.14C180.23,184.02,177.48,185.17,178.15,187.44L178.15,187.44z"/>
	</g>
</g>
<g>
	<g>
		<path class="st0" d="M227.08,262.32c2.68,1.73,5.75,1.4,8.89,1.53c4.24,0.16,8.5,0.16,12.74,0.11c8.16-0.09,16.34-0.51,24.5-0.79
			c16.65-0.56,33.36-1.29,49.98-2.52c5.04-0.37,5.16-8.16,0-7.95c-16.99,0.7-34.01,1.92-50.96,3.3c-8.49,0.69-17.01,1.22-25.48,2.18
			c-3.47,0.39-6.94,0.76-10.4,1.27c-3.23,0.48-6.72,0.52-9.3,2.64C226.98,262.16,227.02,262.27,227.08,262.32L227.08,262.32z"/>
	</g>
</g>
<g>
	<g>
		<path class="st0" d="M186.66,295.93c6.02,2.32,13.71,1.21,20.06,1.04c7.27-0.19,14.53-0.51,21.79-0.83
			c14.86-0.65,29.72-1.32,44.58-2.12c14.53-0.78,29.06-1.57,43.58-2.35c7.27-0.39,14.53-0.8,21.79-1.23
			c5.51-0.33,14.11,1,18.28-3.16c0.71-0.71,0.87-2.2,0-2.88c-4.68-3.7-12.67-1.6-18.28-1.32c-7.27,0.36-14.53,0.75-21.79,1.15
			c-14.86,0.82-29.72,1.63-44.58,2.45c-14.54,0.8-29.06,1.73-43.58,2.68c-7.27,0.48-14.53,0.95-21.79,1.55
			c-6.43,0.53-14.48,0.29-20.29,3.3C185.64,294.6,185.95,295.66,186.66,295.93L186.66,295.93z"/>
	</g>
</g>
<g>
	<g>
		<path class="st0" d="M240.4,331.72c6.84,1.35,14.21,0.79,21.14,0.68c7.5-0.12,15.01-0.42,22.49-0.78
			c7.17-0.34,14.34-0.73,21.52-1.09c6.75-0.34,15.25,0.65,21.42-2.24c3.11-1.45,1.85-5.8-0.88-6.75
			c-5.97-2.06-14.26-0.15-20.54,0.19c-7.5,0.41-15,0.77-22.49,1.22c-7.17,0.43-14.36,0.9-21.52,1.53
			c-6.92,0.61-14.49,0.77-21.14,2.83C238.38,327.94,238.08,331.26,240.4,331.72L240.4,331.72z"/>
	</g>
</g>
</svg>
