<?xml version="1.0" encoding="utf-8"?>
<!-- Generator: Adobe Illustrator 27.2.0, SVG Export Plug-In . SVG Version: 6.00 Build 0)  -->
<svg version="1.1" id="Layer_1" xmlns="http://www.w3.org/2000/svg" xmlns:xlink="http://www.w3.org/1999/xlink" x="0px" y="0px"
	 viewBox="0 0 600 600" style="enable-background:new 0 0 600 600;" xml:space="preserve">
<style type="text/css">
	.st0{fill:#E23A2E;}
	.st1{fill:#279847;}
	.st2{fill:#FFFFFF;}
	.st3{fill:#FBBF12;}
	.st4{fill:#336FEA;}
	.st5{fill:#913BD2;}
	.st6{fill:#F8C54A;}
	.st7{fill:#A11414;}
	.st8{fill:#D41F1F;}
	.st9{fill:#6686D1;}
	.st10{fill:#419E6C;}
	.st11{fill:#F5B84E;}
	.st12{fill:#E89634;}
	.st13{fill:#E45656;}
	.st14{fill:#243E80;}
	.st15{fill:#80C9E8;}
	.st16{fill:#5F9D5F;}
	.st17{fill:#68B672;}
</style>
<g>
	<g>
		<path class="st3" d="M104.49,411.19c12.75-18.49,22.5-39.38,33.32-59.03c10.9-19.8,21.88-39.56,33.01-59.24
			c21.92-38.79,44.12-77.42,66.37-116.02c6.22-10.79,12.46-21.56,18.73-32.31c3.3-5.66,6.6-11.32,9.91-16.97
			c3.11-5.31,6.49-10.37,8.16-16.34c0.56-2.01-2-3.47-3.47-2.02c-7.62,7.54-12.35,18.62-17.72,27.82
			c-5.61,9.62-11.21,19.26-16.78,28.9c-11.31,19.57-22.53,39.2-33.58,58.92c-22.11,39.44-43.78,79.13-65.3,118.9
			c-5.93,10.95-11.83,21.91-17.71,32.89c-5.91,11.05-12.16,22.06-16.81,33.71C102.18,411.54,103.88,412.08,104.49,411.19
			L104.49,411.19z"/>
	</g>
</g>
<g>
	<g>
		<path class="st3" d="M269.79,117.82c9.16-10.71,21.74-18.06,36.08-18.34c6.75-0.13,13.54,1.26,19.69,4.04
			c6.56,2.96,11.26,7.78,16.63,12.36c2.47,2.1,6.89-0.64,4.8-3.71c-8.39-12.37-26.79-18.31-41.13-17.37
			c-15.02,0.99-29.62,8.97-37.91,21.61C267.25,117.51,268.92,118.83,269.79,117.82L269.79,117.82z"/>
	</g>
</g>
<g>
	<g>
		<path class="st3" d="M339.03,111.03c17.65,41.37,38.46,81.49,57.45,122.27c18.73,40.23,36.76,80.75,54.66,121.36
			c10.26,23.27,20.36,46.62,30.5,69.95c2.29,5.27,9.94,0.71,7.71-4.51c-35.05-82.11-73-163.07-111.87-243.43
			c-11.05-22.85-21.88-45.92-34.39-68.02C341.56,105.94,337.88,108.32,339.03,111.03L339.03,111.03z"/>
	</g>
</g>
<g>
	<g>
		<path class="st3" d="M108.19,396.48c-12.39,19.64-10.18,47.61,3.65,65.95c6.77,8.99,15.85,16.04,26.19,20.48
			c8.07,3.46,22.94,8.56,30.72,2.19c1.05-0.86,0.59-2.52-0.41-3.15c-3.64-2.32-8.45-2.17-12.59-2.87c-4.67-0.8-9.3-2.02-13.71-3.78
			c-9.34-3.72-17.81-10.01-23.89-18.03c-13.21-17.42-14.44-39.56-7.33-59.68C111.39,396,109.04,395.14,108.19,396.48L108.19,396.48z
			"/>
	</g>
</g>
<g>
	<g>
		<path class="st3" d="M164.62,479.8c36.58,5.99,73.94,7.81,110.94,9.38c37.21,1.58,74.46,2.01,111.7,1.38
			c10.54-0.18,21.09-0.45,31.62-0.81c10.2-0.35,21.53,0.47,31.47-1.95c3.81-0.93,2.46-5.85-0.85-6.28
			c-8.91-1.18-18.68,0.45-27.65,0.83c-9.22,0.39-18.44,0.7-27.67,0.95c-18.45,0.49-36.9,0.7-55.36,0.61
			c-36.91-0.18-73.81-1.5-110.64-3.83c-21.03-1.33-41.99-3.17-63.05-4C163.03,475.99,162.48,479.45,164.62,479.8L164.62,479.8z"/>
	</g>
</g>
<g>
	<g>
		<path class="st3" d="M442.8,487.84c2.89,1.53,6.5,0.35,9.51-0.44c4.07-1.06,8.02-2.79,11.69-4.83c7.49-4.17,14.07-9.9,19.2-16.76
			c5.58-7.46,9.47-16.36,10.97-25.57c1.34-8.19,2.69-20.31-3.18-27.05c-1.42-1.63-4.5-0.81-4.94,1.3c-0.86,4.14,0.27,8.09,0.6,12.24
			c0.31,3.86,0.26,7.78-0.24,11.62c-1.07,8.34-3.91,16.43-8.53,23.47c-4.25,6.49-10.01,12.02-16.56,16.16
			c-2.96,1.87-6.1,3.47-9.31,4.88c-2.97,1.31-7.07,1.92-9.28,4.43C442.58,487.45,442.59,487.73,442.8,487.84L442.8,487.84z"/>
	</g>
</g>
<g>
	<g>
		<path class="st3" d="M134.24,416.27c10.84-17.74,20.4-36.3,30.5-54.47c9.96-17.91,20.19-35.65,30.53-53.35
			c20.85-35.67,41.1-71.68,62.12-107.25c5.96-10.08,11.91-20.17,17.89-30.24c5.74-9.68,11.71-19.3,15.37-30.01
			c0.61-1.77-1.87-3.13-3.11-1.81c-6.86,7.29-12.09,15.85-17.2,24.41c-5.34,8.94-10.66,17.88-15.91,26.87
			c-10.33,17.7-20.57,35.45-30.72,53.26c-20.47,35.94-39.84,72.39-59.3,108.88c-11.01,20.65-22.56,41.18-32.24,62.49
			C131.55,416.44,133.42,417.61,134.24,416.27L134.24,416.27z"/>
	</g>
</g>
<g>
	<g>
		<path class="st3" d="M283.98,146.79c1.02-0.89,2.78-1.39,3.92-2.21c2.1-1.52,4.04-2.87,6.36-4.03c4.3-2.14,8.8-3.48,13.62-3.7
			c4.66-0.21,9.37,0.57,13.66,2.44c3.18,1.39,6.73,5.6,10.3,4.66c0.59-0.16,1.25-0.71,1.35-1.35c0.73-4.72-5.63-7.4-9.31-8.86
			c-5.04-2.01-10.61-2.75-16-2.31c-5.15,0.42-10.44,1.8-14.94,4.41c-2.27,1.32-4.36,3.1-6.14,5.01c-1.94,2.08-1.81,3.48-2.88,5.89
			C283.91,146.79,283.95,146.82,283.98,146.79L283.98,146.79z"/>
	</g>
</g>
<g>
	<g>
		<path class="st3" d="M136.4,408.01c-2,11.77,1.53,24.34,10.61,32.42c7.76,6.89,22.39,12.67,32.05,6.34
			c1.41-0.92,0.72-2.75-0.8-2.95c-9.9-1.28-18.9-0.53-27.02-7.63c-7.57-6.62-11.24-16.88-9.83-26.8
			C141.87,406.15,136.96,404.67,136.4,408.01L136.4,408.01z"/>
	</g>
</g>
<g>
	<g>
		<path class="st3" d="M174.02,445.25c33.03,3.55,66.71,3.31,99.89,4.46c33.63,1.17,67.26,2.33,100.89,3.49
			c9.32,0.32,18.65,0.66,27.97,0.93c9.28,0.26,18.39,1.36,27.24-2c0.72-0.27,1.13-1.47,0.24-1.86c-7.07-3.18-13.87-3.28-21.49-3.52
			c-8.66-0.27-17.31-0.51-25.97-0.72c-16.65-0.41-33.3-0.82-49.95-1.24c-33.63-0.83-67.26-1.66-100.89-2.48
			c-19.26-0.47-38.69-1.36-57.94-0.43C171.81,441.98,171.89,445.02,174.02,445.25L174.02,445.25z"/>
	</g>
</g>
<g>
	<g>
		<path class="st3" d="M326.77,135.4c1.06,8.42,6.59,16.96,10.24,24.52c4.36,9.04,8.96,17.98,13.33,27.02
			c8.62,17.8,16.84,35.78,24.99,53.8c16.55,36.61,31.96,73.76,45.76,111.5c3.88,10.6,7.71,21.22,11.47,31.86
			c3.56,10.09,6.06,21.38,11.73,30.51c1.13,1.82,4.54,1.24,4.32-1.17c-0.85-9.54-4.94-18.65-8.09-27.64
			c-3.32-9.47-6.7-18.93-10.25-28.32c-7.11-18.78-14.47-37.47-22.08-56.05c-15.09-36.82-31.4-73.1-49.11-108.73
			c-4.89-9.82-9.86-19.6-14.93-29.34c-2.61-5.01-5.37-9.91-8.17-14.82c-2.61-4.57-5.13-9.69-9.15-13.17
			C326.81,135.36,326.77,135.37,326.77,135.4L326.77,135.4z"/>
	</g>
</g>
<g>
	<g>
		<path class="st3" d="M444.56,406.84c3.48,10.9,2.1,24.76-4.85,34c-3.19,4.24-7.49,7.55-12.33,9.69
			c-4.42,1.95-9.19,2.73-13.61,4.77c-0.95,0.44-0.99,2.13,0,2.55c11.23,4.84,24.68-4.7,31.02-13.59
			c8.26-11.58,8.04-26.16-0.16-37.45C444.61,406.78,444.55,406.8,444.56,406.84L444.56,406.84z"/>
	</g>
</g>
<g>
	<g>
		<path class="st3" d="M277.32,198.84c-1.29,13.17-0.25,26.66,0.31,39.86c0.57,13.29,1.29,26.58,2.02,39.86
			c0.71,12.96,1.43,25.91,2.14,38.87c0.37,6.64,0.73,13.29,1.1,19.93c0.36,6.59,0.23,13.41,1.49,19.89c0.67,3.46,6.21,3.4,6.93,0
			c0.46-2.2,0.93-4.4,1.34-6.61c0.33-1.75-1.97-3.65-3.35-1.95c-1.36,1.67-2.68,3.37-4,5.07c2.04,0.85,4.09,1.69,6.13,2.54
			c0.48-6.56-0.53-13.37-0.94-19.93c-0.42-6.64-0.84-13.29-1.27-19.93c-0.84-13.29-1.69-26.58-2.53-39.86
			c-0.82-12.96-1.67-25.92-2.66-38.87c-0.99-13.04-1.57-26.4-4.38-39.18C279.36,197.12,277.44,197.59,277.32,198.84L277.32,198.84z"
			/>
	</g>
</g>
<g>
	<g>
		<path class="st3" d="M287.45,356.45c5.82,4.36,15.07,4.28,22,3.82c5.13-0.34,16.21-0.15,17.73-6.39c0.15-0.62,0.02-1.37-0.48-1.81
			c-1.83-1.61-3.35-1.76-5.82-1.38c-4,0.61-7.86,2.03-11.91,2.59c-6.91,0.95-14.7-0.12-21.36,1.96
			C287.02,355.42,287,356.12,287.45,356.45L287.45,356.45z"/>
	</g>
</g>
<g>
	<g>
		<path class="st3" d="M321.38,358.69c4.85-13.3,6.69-27.81,8.82-41.75c2.14-14.01,3.82-28.09,5.01-42.22
			c1.2-14.21,1.93-28.46,2.19-42.72c0.13-7.13,0.13-14.26,0.18-21.39c0.02-3.57-0.05-7.13-0.15-10.69
			c-0.09-3.27,0.21-6.13-1.68-8.89c-0.91-1.32-2.96-1.53-3.82,0c-2.84,5.04-0.91,12.99-0.68,18.61c0.3,7.13,0.37,14.25,0.3,21.39
			c-0.14,14.26-0.75,28.51-1.82,42.73c-1.1,14.62-2.68,29.23-4.73,43.75c-1.92,13.6-5.14,27.14-6.08,40.85
			C318.79,359.87,320.92,359.96,321.38,358.69L321.38,358.69z"/>
	</g>
</g>
<g>
	<g>
		<path class="st3" d="M272.48,203.4c3,0.48,2.78,1.04,5.91-0.08c2.84-1.02,5.74-1.97,8.65-2.76c5.86-1.59,11.88-2.47,17.95-2.58
			c6.03-0.11,12.06,0.48,17.93,1.86c5.12,1.2,10.66,4.69,15.91,3.79c1.81-0.31,2.66-2.78,1.72-4.23
			c-3.16-4.92-11.05-6.02-16.43-7.06c-6.57-1.26-13.29-1.75-19.97-1.28c-6.36,0.45-12.69,1.58-18.75,3.59
			c-2.87,0.95-5.65,2.07-8.33,3.46c-3.52,1.83-3.18,2.05-4.64,5.22C272.44,203.35,272.45,203.39,272.48,203.4L272.48,203.4z"/>
	</g>
</g>
<g>
	<g>
		<path class="st3" d="M290,381.88c-5.43-0.09-10.19,0.76-14.38,4.41c-4.14,3.61-7.17,8.68-8.24,14.08
			c-2.34,11.87,5.36,23.53,15.83,28.63c22.82,11.1,50.92-10.82,41.87-35.69c-3.88-10.68-13.74-18.3-25.33-17.79
			c-5.37,0.24-10.74,2.03-15.07,5.24c-3.27,2.42-9.2,8.11-7.02,12.78c2.05,4.42,6.01-0.37,7.66-2.44c3.9-4.89,9.31-8.15,15.68-8.39
			c13.22-0.49,21.61,14.74,17.98,26.48c-4.99,16.16-26.57,20.83-38.67,9.87c-5.81-5.26-9.02-12.76-7.16-20.57
			c1.78-7.52,9.05-15.38,16.87-16.52C290.07,381.97,290.06,381.88,290,381.88L290,381.88z"/>
	</g>
</g>
</svg>
