<?xml version="1.0" encoding="utf-8"?>
<!-- Generator: Adobe Illustrator 27.2.0, SVG Export Plug-In . SVG Version: 6.00 Build 0)  -->
<svg version="1.1" id="Layer_1" xmlns="http://www.w3.org/2000/svg" xmlns:xlink="http://www.w3.org/1999/xlink" x="0px" y="0px"
	 viewBox="0 0 600 600" style="enable-background:new 0 0 600 600;" xml:space="preserve">
<style type="text/css">
	.st0{fill:#121212;}
</style>
<g>
	<g>
		<path class="st0" d="M112,140.95c-2.34,21.12-2.79,42.49-3.62,63.71c-0.84,21.57-1.32,43.15-1.63,64.74
			c-0.61,42.5-0.41,85.01,0.52,127.5c0.26,11.95,0.58,23.9,0.96,35.85c0.19,5.97,0.39,11.95,0.61,17.92
			c0.22,5.94-0.11,12.08,1.92,17.74c0.98,2.72,5.06,3.08,5.9,0c2.6-9.55,0.48-20.86,0.16-30.68c-0.35-10.62-0.66-21.24-0.92-31.86
			c-0.53-21.58-0.88-43.16-1.04-64.74c-0.31-42.51,0.22-85,0.96-127.5c0.42-24.2,1.83-48.47,1.39-72.67
			C117.14,137.53,112.36,137.69,112,140.95L112,140.95z"/>
	</g>
</g>
<g>
	<g>
		<path class="st0" d="M109.98,465.53c3.56,4.89,7.92,8.72,13.28,11.58c4.48,2.39,10.92,5.57,15.81,3.15
			c1.71-0.84,1.93-3.44,0.6-4.69c-3.18-3-8.42-3.04-12.39-4.8c-4.75-2.1-8.91-5.26-12.66-8.81
			C112.3,459.75,107.93,462.71,109.98,465.53L109.98,465.53z"/>
	</g>
</g>
<g>
	<g>
		<path class="st0" d="M128.65,479.07c20.83,2.85,42.22,2.51,63.21,2.71c21.56,0.21,43.11,0.29,64.67,0.23
			c42.78-0.11,85.55-0.93,128.32-2c24.09-0.6,48.56-0.31,72.58-2.4c5.81-0.51,6.02-9.22,0-9.21c-21.17,0.02-42.46,1.89-63.63,2.68
			c-21.54,0.8-43.09,1.37-64.65,1.84c-42.44,0.92-84.89,1.33-127.34,1.24c-24.08-0.05-48.62-1.4-72.62,0.98
			C127.14,475.34,126.23,478.74,128.65,479.07L128.65,479.07z"/>
	</g>
</g>
<g>
	<g>
		<path class="st0" d="M461.73,473.55c1.28-2.89,2.43-5.95,3.87-8.75c1.51-2.93,3.3-5.25,3.88-8.51c0.28-1.57-0.93-3.01-2.59-2.59
			c-7.63,1.89-10.69,12.35-9.46,19.29C457.76,474.89,460.92,475.36,461.73,473.55L461.73,473.55z"/>
	</g>
</g>
<g>
	<g>
		<path class="st0" d="M468.13,464.53c1.97-12.89,1.84-26.09,2.23-39.12c0.41-13.56,0.82-27.12,1.14-40.68
			c0.64-27.12,1.34-54.24,1.78-81.37c0.08-4.89-7.5-4.89-7.59,0c-0.53,26.79-0.8,53.58-1.13,80.38
			c-0.16,13.23-0.24,26.46-0.32,39.69c-0.08,13.52-0.79,27.26,0.77,40.68C465.21,465.7,467.83,466.46,468.13,464.53L468.13,464.53z"
			/>
	</g>
</g>
<g>
	<g>
		<path class="st0" d="M106.63,142.23c4.3-2.93,7.56-6.96,12.16-9.59c4.12-2.35,9.79-2.62,12.99-6.2c0.56-0.63,0.51-1.65-0.27-2.1
			c-4.89-2.78-11.22,0.92-15.48,3.58c-4.69,2.92-9.94,7.21-11.42,12.75C104.32,141.77,105.6,142.92,106.63,142.23L106.63,142.23z"/>
	</g>
</g>
<g>
	<g>
		<path class="st0" d="M125.22,129.23c21.13,3,43.08,2.59,64.39,3.21c21.9,0.64,43.81,1.29,65.71,1.91
			c44.14,1.25,88.28,2.49,132.43,3.74c24.89,0.7,49.78,1.38,74.68,2.07c5.52,0.15,5.52-8.43,0-8.58
			c-87.62-2.3-175.24-4.55-262.86-6.7c-11.95-0.29-23.89-0.62-35.84-0.77c-12.56-0.16-25.31-0.88-37.84,0.22
			C123.31,124.56,122.22,128.81,125.22,129.23L125.22,129.23z"/>
	</g>
</g>
<g>
	<g>
		<path class="st0" d="M458.98,133.75c-0.69,2.75,1.47,5.44,2.96,7.61c1.81,2.64,3.59,5.53,5.83,7.82c2.71,2.77,7.18-0.76,5.31-4.1
			c-1.57-2.79-3.88-5.3-5.9-7.77c-1.67-2.04-3.62-4.8-6.44-4.91C459.96,132.37,459.17,132.99,458.98,133.75L458.98,133.75z"/>
	</g>
</g>
<g>
	<g>
		<path class="st0" d="M467.99,146.34c-3.03,1.38-2.72,4.18-2.96,7.17c-0.4,4.9-0.6,9.83-0.9,14.74c-0.28,4.58-0.44,9.17-0.63,13.76
			c-0.18,4.21-1.22,8.62,1.1,12.32c1.27,2.03,3.85,1.81,5.16,0c2.65-3.67,1.75-8.95,1.87-13.3c0.15-5.57,0.28-11.14,0.33-16.71
			C471.97,162.11,473.96,143.62,467.99,146.34L467.99,146.34z"/>
	</g>
</g>
<g>
	<g>
		<path class="st0" d="M132.09,152.14c8.67,2.11,18.41,1.15,27.27,1.18c9.62,0.03,19.23,0.08,28.85,0.06
			c19.57-0.04,39.13,0.15,58.69,0.5c38.79,0.7,77.57,2.18,116.31,4.48c10.59,0.63,21.18,1.32,31.77,2.07
			c11.02,0.78,22.71,2.9,33.73,1.95c3.82-0.33,5.11-5.99,0.95-7.04c-9.22-2.33-19.27-2.17-28.73-2.82
			c-9.59-0.66-19.19-1.27-28.79-1.82c-19.53-1.14-39.07-2.07-58.62-2.8c-38.77-1.44-77.57-2.06-116.36-1.84
			c-10.95,0.06-21.88,0.22-32.83,0.57c-10.39,0.34-22.22-0.53-32.25,2.45C130.63,149.52,130.53,151.76,132.09,152.14L132.09,152.14z
			"/>
	</g>
</g>
<g>
	<g>
		<path class="st0" d="M129.28,152.23c-2.36,3.47-1.76,7.29-1.65,11.34c0.13,4.98,0.28,9.95,0.4,14.93
			c0.24,9.95,0.44,19.91,0.59,29.87c0.31,20.26,0.38,40.49,0.35,60.75c-0.07,40.18-0.42,80.35-1.61,120.51
			c-0.67,22.57-1.69,45.12-2.66,67.68c-0.25,5.72,8.53,5.66,8.86,0c4.71-80.58,4.9-161.33,2.08-241.97
			c-0.4-11.29-0.92-22.57-1.48-33.85c-0.28-5.64-0.56-11.28-0.88-16.92c-0.25-4.45,0.14-8.91-2.79-12.49
			C130.16,151.66,129.53,151.85,129.28,152.23L129.28,152.23z"/>
	</g>
</g>
<g>
	<g>
		<path class="st0" d="M130.82,461.89c80.62,3.91,161.7,2.23,242.37,0.59c11.59-0.24,23.17-0.54,34.75-0.91
			c5.63-0.18,11.25-0.33,16.88-0.56c5.81-0.23,10.98-1.78,16.66-2.8c3.47-0.62,2.26-5.44-0.78-5.73c-5.05-0.48-9.78-1.65-14.89-1.47
			c-4.96,0.17-9.93,0.41-14.89,0.6c-10.26,0.4-20.52,0.76-30.78,1.13c-20.19,0.74-40.38,1.36-60.58,1.83
			c-40.06,0.93-80.14,1.07-120.2,0.84c-22.85-0.13-45.69-0.19-68.54,0C126.64,455.46,126.68,461.69,130.82,461.89L130.82,461.89z"/>
	</g>
</g>
<g>
	<g>
		<path class="st0" d="M444.56,317.81c-1.83,10.54-1.42,21.6-1.63,32.26c-0.22,11.55-0.43,23.09-0.64,34.64
			c-0.21,11.22-0.44,22.43-0.69,33.65c-0.12,5.61-0.24,11.22-0.36,16.82c-0.11,5.29-1,10.5,1.77,15.24c1.06,1.81,3.67,1.75,4.74,0
			c2.7-4.41,2.06-9.25,2.06-14.25c0-5.61-0.01-11.22-0.01-16.82c-0.01-11.55-0.02-23.09,0.01-34.64
			c0.02-11.22,0.05-22.43,0.07-33.65c0.02-10.98,0.68-22.37-0.97-33.25C448.57,315.65,444.93,315.69,444.56,317.81L444.56,317.81z"
			/>
	</g>
</g>
<g>
	<g>
		<path class="st0" d="M448.36,320.48c5.94-2.24,10.94-6.25,15.99-10.01c4.05-3.02,10.51-6.18,12.03-11.25
			c0.37-1.23-0.65-2.64-1.97-2.58c-5.29,0.25-9.93,5.72-13.85,8.93c-4.87,3.99-9.99,7.89-13.6,13.11
			C446.38,319.52,447.37,320.85,448.36,320.48L448.36,320.48z"/>
	</g>
</g>
<g>
	<g>
		<path class="st0" d="M441.68,150.8c-2.62,8.97-2.69,18.53-2.94,27.81c-0.13,4.6-0.16,9.21-0.26,13.81
			c-0.1,4.79-1.01,10.13,0.56,14.72c1.1,3.23,5.47,3.24,6.58,0c1.56-4.59,0.66-9.93,0.56-14.72c-0.1-4.6-0.13-9.21-0.26-13.81
			c-0.25-9.27-0.32-18.84-2.94-27.81C442.78,150.16,441.87,150.16,441.68,150.8L441.68,150.8z"/>
	</g>
</g>
<g>
	<g>
		<path class="st0" d="M439.95,212.11c6.84-2.66,13.19-6.36,19.59-9.93c5.23-2.91,13.52-5.64,15.81-11.52
			c0.7-1.79-1.04-3.28-2.61-3.43c-5.9-0.57-12.88,6.28-17.54,9.44c-5.81,3.94-11.73,7.8-16.95,12.5
			C436.99,210.3,438.31,212.75,439.95,212.11L439.95,212.11z"/>
	</g>
</g>
<g>
	<g>
		<path class="st0" d="M421.63,160.03c5.3,1.11,12.9,3.49,17.96,0.7c0.67-0.37,0.87-1.46,0.26-1.99
			c-4.44-3.77-12.17-3.01-17.64-2.99C419.81,155.76,419.16,159.52,421.63,160.03L421.63,160.03z"/>
	</g>
</g>
<g>
	<g>
		<path class="st0" d="M191.16,273.07c-1.73,0.01-2.4,1.96-2.94,3.27c-1.21,2.93-2.52,5.79-4.28,8.43
			c-1.29,1.94-8.32,9.1-2.71,10.46c4.77,1.15,8.75-8.27,9.97-11.49C191.78,282.26,194.8,273.04,191.16,273.07L191.16,273.07z"/>
	</g>
</g>
<g>
	<g>
		<path class="st0" d="M179.44,293.35c0.06,0,0.06-0.1,0-0.1C179.38,293.25,179.38,293.35,179.44,293.35L179.44,293.35z"/>
	</g>
</g>
<g>
	<g>
		<path class="st0" d="M179.34,289.3c3.61,5.9,8.6,11.18,13.08,16.44c4.81,5.65,9.78,11.13,14.86,16.53
			c10.36,11.01,20.93,21.82,31.79,32.34c21.47,20.82,43.77,40.83,66.73,59.98c2.14,1.78,5.09,1.6,6.66-0.86
			c3.01-4.71,0.02-9.66-5.34-9.79c-1.05-0.03-2.01,1.34-1.31,2.27c0.71,0.95-0.1,2.29-0.68,3.24c2.22-0.29,4.44-0.57,6.66-0.86
			c-23.08-18.61-45.3-38.18-66.63-58.77c-10.65-10.28-21.14-20.75-31.4-31.42c-4.92-5.12-9.76-10.29-14.73-15.36
			c-5.32-5.43-10.41-11.56-16.33-16.35C180.93,285.26,177.97,287.06,179.34,289.3L179.34,289.3z"/>
	</g>
</g>
<g>
	<g>
		<path class="st0" d="M311.57,412.16c16.8-13.66,32.55-28.57,48.58-43.13c16.02-14.54,31.87-29.26,47.78-43.93
			c31.57-29.1,63.26-58.06,94.72-87.28c8.78-8.15,17.55-16.3,26.33-24.46c8.52-7.91,18.93-15.26,24.31-25.68
			c0.85-1.64-0.81-3.01-2.36-2.36c-9.51,4.03-16.4,12.07-23.93,19.01c-8.08,7.44-16.15,14.89-24.23,22.33
			c-15.91,14.66-31.77,29.36-47.58,44.12c-31.36,29.31-63.08,58.24-94.31,87.68c-17.65,16.64-35.77,32.91-52.49,50.5
			C306.35,411.12,309.36,413.96,311.57,412.16L311.57,412.16z"/>
	</g>
</g>
<g>
	<g>
		<path class="st0" d="M192.4,282.92c13.17,18.26,31.2,33.67,48.69,47.65c17.81,14.24,36.72,27.51,56.8,38.37
			c4.06,2.19,7.6-3.83,3.62-6.19c-19.45-11.52-38.35-23.66-56.06-37.76c-17.51-13.93-32.9-30-49.79-44.59
			C194,278.98,190.93,280.89,192.4,282.92L192.4,282.92z"/>
	</g>
</g>
<g>
	<g>
		<path class="st0" d="M295.87,369.8c8.95-4.04,16.92-10.37,24.76-16.2c7.97-5.92,15.8-12.01,23.7-18.01
			c15.55-11.82,30.98-23.79,46.45-35.71c31.21-24.04,62.4-48.1,93.64-72.11c8.65-6.65,17.27-13.33,25.88-20.04
			c4.18-3.26,8.36-6.51,12.55-9.77c3.97-3.09,8.69-5.6,10.29-10.6c0.37-1.17-0.65-2.57-1.9-2.49c-3.81,0.23-5.94,1.99-8.87,4.26
			c-4.19,3.25-8.38,6.5-12.56,9.75c-7.85,6.09-15.72,12.16-23.53,18.3c-15.36,12.07-30.73,24.12-46.1,36.17
			c-31,24.31-62.12,48.48-93.01,72.92c-8.82,6.98-17.61,13.99-26.42,20.99c-8.64,6.87-18.01,13.81-24.93,22.48
			C295.8,369.78,295.83,369.82,295.87,369.8L295.87,369.8z"/>
	</g>
</g>
<g>
	<g>
		<path class="st0" d="M526,191.33c3.4,1.27,6.78,2.56,10.28,3.52c2.74,0.75,5.96,2.11,8.03-0.49c0.64-0.8,0.8-1.66,0.34-2.6
			c-0.11-0.23-0.23-0.45-0.34-0.68c-0.52-1.04-1.7-1.54-2.8-1.6c-5.19-0.29-10.4,0.72-15.5,1.53
			C525.81,191.02,525.86,191.28,526,191.33L526,191.33z"/>
	</g>
</g>
<g>
	<g>
		<path class="st0" d="M542.79,195.63c5.75,0,5.76-8.93,0-8.93C537.04,186.7,537.04,195.63,542.79,195.63L542.79,195.63z"/>
	</g>
</g>
</svg>
