<?xml version="1.0" encoding="utf-8"?>
<!-- Generator: Adobe Illustrator 27.2.0, SVG Export Plug-In . SVG Version: 6.00 Build 0)  -->
<svg version="1.1" id="Layer_1" xmlns="http://www.w3.org/2000/svg" xmlns:xlink="http://www.w3.org/1999/xlink" x="0px" y="0px"
	 viewBox="0 0 600 600" style="enable-background:new 0 0 600 600;" xml:space="preserve">
<style type="text/css">
	.st0{fill:#121212;}
</style>
<g>
	<g>
		<path class="st0" d="M95.1,331.65c10.4-13.93,20.21-28.08,32.05-40.87c11.59-12.51,24.22-24.02,37.95-34.14
			c27.51-20.28,58.78-35.42,91.86-44.08c67.52-17.68,139.75-5.8,199.16,30.44c33.52,20.45,61.23,48.46,83.19,80.84
			c3.14,4.63,10.61,0.42,7.59-4.44c-37.44-60.15-104-102.3-172.69-116.85c-70.11-14.84-143.68,0.83-203.01,40.64
			c-16.35,10.97-31.59,23.65-45.23,37.86c-13.58,14.14-26.73,30.29-35,48.17C89.66,332.06,93.26,334.11,95.1,331.65L95.1,331.65z"/>
	</g>
</g>
<g>
	<g>
		<path class="st0" d="M91.49,330.19c31.42,65.26,98.9,112.5,168.58,128.35c71.63,16.3,147.26-1.42,206.04-45
			c16.2-12.01,31.09-25.73,44.13-41.13c6.63-7.83,12.82-16.05,18.46-24.61c5.57-8.46,11.47-17.24,13.96-27.15
			c0.76-3.01-3.42-6.07-5.64-3.28c-5.45,6.85-9.26,14.63-13.93,22.01c-4.67,7.38-9.73,14.51-15.19,21.32
			c-10.82,13.48-23.04,25.82-36.35,36.83c-26.96,22.31-58.64,39.05-92.27,48.71c-68.75,19.76-142.63,6.27-202.26-32.54
			c-33.72-21.95-60.74-51.58-81.89-85.65C93.68,325.73,90.32,327.77,91.49,330.19L91.49,330.19z"/>
	</g>
</g>
<g>
	<g>
		<path class="st0" d="M295.13,263.36c-27.22,2.58-48.82,28.02-52.93,54.13c-4.4,27.92,11.9,55.04,36.78,67.46
			c26.26,13.11,57.07,7.89,77.98-12.65c21.71-21.33,26.2-54.35,12.37-81.24c-7.79-15.15-20.79-26.47-36.7-32.45
			c-15.19-5.71-35.06-7.28-49.46,1.3c-3.47,2.07-1.06,6.89,2.63,6.23c13.16-2.35,25.61-4.25,38.78-0.69
			c12.8,3.46,24.45,10.97,32.39,21.66c15.65,21.09,16.18,50.94,0.57,72.14c-15.23,20.69-42.02,30.23-66.58,22.16
			c-23.28-7.65-42.48-29.03-42.66-54.25c-0.2-28.46,20.59-52.44,47.4-59.72C297.87,266.85,297.52,263.14,295.13,263.36
			L295.13,263.36z"/>
	</g>
</g>
<g>
	<g>
		<path class="st0" d="M109.73,336.71c19.11-24.71,39.31-47.44,65.09-65.44c25.18-17.59,53.47-30.63,83.26-38.14
			c60.86-15.34,126.03-4.97,180.31,26.14c31,17.77,56.6,41.81,77.88,70.37c3.2,4.29,10.48,0.31,7.35-4.29
			c-35.98-52.96-96.83-89.75-159.14-101.98c-63.01-12.37-129.34,1.82-183.1,36.52c-29.12,18.8-57.38,44.18-74.13,74.9
			C106.43,336.3,108.59,338.19,109.73,336.71L109.73,336.71z"/>
	</g>
</g>
<g>
	<g>
		<path class="st0" d="M111.01,330.44c6.86,13.54,17.68,26.04,28.36,36.72c11.03,11.03,23.1,21.04,36.02,29.78
			c26.08,17.65,55.17,30.96,85.89,38.03c62.23,14.32,128.11,2.6,182.64-30.28c15.3-9.22,29.68-20.06,42.73-32.26
			c6.37-5.96,12.43-12.26,18.12-18.88c5.74-6.68,12.32-13.56,14.93-22.06c1.13-3.67-3.31-5.32-5.82-3.39
			c-6.08,4.7-10.09,11.48-15.05,17.34c-4.81,5.68-9.88,11.14-15.19,16.35c-10.89,10.69-22.77,20.32-35.48,28.77
			c-25.36,16.86-53.68,29.06-83.41,35.7c-59.63,13.33-123.78,2.28-176.05-29.35c-14.59-8.83-28.33-19.09-40.85-30.67
			c-6.17-5.7-12.04-11.76-17.83-17.85c-5.95-6.27-11.02-13.28-16.81-19.67C112.1,327.51,110.32,329.07,111.01,330.44L111.01,330.44z
			"/>
	</g>
</g>
<g>
	<g>
		<path class="st0" d="M109.24,355.08c0.06,0,0.06-0.1,0-0.1C109.17,354.98,109.17,355.08,109.24,355.08L109.24,355.08z"/>
	</g>
</g>
<g>
	<g>
		<path class="st0" d="M254.3,315.63c1.48,1.83,2.13,4.11,4.08,5.55c1.73,1.27,4.39,2.09,6.4,2.73c4.68,1.51,9.66,1.99,14.53,1.33
			c9.82-1.34,19.06-6.5,24.54-14.89c5.41-8.27,6.43-19.05,4.1-28.52c-2.21-8.96-8.45-19.64-18.72-20.13
			c-1.75-0.08-2.99,2.08-2.03,3.54c4.03,6.2,9.65,11.1,12.14,18.31c2.55,7.37,2.25,15.59-1.79,22.38
			c-3.97,6.65-11.08,10.75-18.57,12.14c-3.89,0.73-8.1,0.92-12.01,0.26c-1.88-0.31-3.6-0.96-5.41-1.51c-2.18-0.66-4.98-0.57-7-1.53
			C254.33,315.19,254.15,315.44,254.3,315.63L254.3,315.63z"/>
	</g>
</g>
<g>
	<g>
		<path class="st0" d="M150.66,152.02c-0.29,1.53-1.29,2.85-1.41,4.38c-0.12,1.62,0.7,3.62,1.12,5.16
			c1.01,3.71,2.48,7.25,4.06,10.74c3.28,7.26,7.39,13.97,12.29,20.24c4.95,6.35,10.57,12.09,16.84,17.13
			c5.9,4.74,11.92,10.2,19.78,9.52c1.71-0.15,2.86-1.83,1.97-3.44c-3.6-6.49-10.4-9.25-16.1-13.85c-5.45-4.41-10.47-9.39-15-14.74
			c-4.6-5.43-8.69-11.38-12.19-17.57c-1.72-3.05-3.23-6.2-4.76-9.34c-0.79-1.61-1.45-3.96-2.59-5.34c-1.05-1.27-2.52-1.75-3.67-3
			C150.91,151.82,150.69,151.87,150.66,152.02L150.66,152.02z"/>
	</g>
</g>
<g>
	<g>
		<path class="st0" d="M505.98,166.89c0.21-0.52,0.42-1.05,0.63-1.57c0.31-0.77-0.88-1.44-1.4-0.81c-3.37,4.09-4.44,8.88-6.69,13.72
			c-2.49,5.35-5.55,10.49-9.05,15.23c-6.77,9.16-15.7,16.33-22.63,25.33c-0.94,1.22,0.6,2.74,1.87,2.43
			c12.01-2.95,20.83-13.01,27.19-23.11c3.18-5.04,5.83-10.4,7.92-15.98c2.12-5.65,4.38-11.34,2.79-17.25
			c-0.51,0.22-1.02,0.43-1.53,0.65c0.28,0.46,0.56,0.92,0.84,1.38C505.93,166.92,505.97,166.92,505.98,166.89L505.98,166.89z"/>
	</g>
</g>
<g>
	<g>
		<path class="st0" d="M316.03,133.79c-3.23,9.31-4.15,19.3-2.94,29.08c0.98,7.87,2.24,19.33,9.5,23.9
			c1.25,0.79,2.48-0.28,2.65-1.52c0.59-4.54-1.15-8.05-2.45-12.35c-1.24-4.12-2.17-8.34-2.67-12.62c-1-8.65-0.68-17.26,0.47-25.88
			C320.95,131.68,316.84,131.47,316.03,133.79L316.03,133.79z"/>
	</g>
</g>
<g>
	<g>
		<path class="st0" d="M282.55,317.62c-2.04,2.59-4.8,4.73-6.88,7.38c-2.43,3.1-4.76,6.28-7.13,9.42
			c-4.17,5.51-10.12,11.5-12.22,18.19c-0.33,1.07,1.04,2.27,2.01,1.55c5.31-3.93,8.78-10.77,12.41-16.19
			c2.18-3.26,4.4-6.49,6.55-9.77c2.16-3.29,3.57-7.05,5.65-10.29C283.08,317.69,282.72,317.4,282.55,317.62L282.55,317.62z"/>
	</g>
</g>
<g>
	<g>
		<path class="st0" d="M340.68,270.51c-3.53,2.16-5.76,6.09-8.18,9.37c-3.13,4.24-6.18,8.54-9.25,12.83
			c-5.76,8.03-11.52,16.06-17.28,24.08c-11.81,16.46-24.95,32.57-34.48,50.5c-0.47,0.89,0.7,1.9,1.44,1.11
			c13.51-14.49,24.21-31.68,35.64-47.81c5.71-8.06,11.42-16.11,17.13-24.17c3.05-4.3,6.12-8.57,9.13-12.9
			c2.59-3.72,6.1-7.58,7.09-12.06C342.07,270.77,341.33,270.11,340.68,270.51L340.68,270.51z"/>
	</g>
</g>
<g>
	<g>
		<path class="st0" d="M352.74,282.47c0.06,0,0.06-0.1,0-0.1C352.68,282.37,352.68,282.47,352.74,282.47L352.74,282.47z"/>
	</g>
</g>
<g>
	<g>
		<path class="st0" d="M345.19,285.89c-10.54,14.6-21.08,29.21-31.63,43.81c-10.39,14.39-22.59,28.57-30.24,44.62
			c-0.53,1.11,0.81,2.3,1.77,1.36c12.64-12.34,22.02-28.29,32.21-42.67c10.59-14.95,21.19-29.9,31.78-44.86
			C350.76,285.78,346.87,283.56,345.19,285.89L345.19,285.89z"/>
	</g>
</g>
<g>
	<g>
		<path class="st0" d="M361.6,294.28c-10.53,13.92-21.21,27.71-31.58,41.75c-5.08,6.87-10.07,13.8-15.09,20.72
			c-4.85,6.69-10.2,13.26-13.32,20.97c-0.49,1.22,1.2,1.84,2,1.16c6.15-5.21,10.6-12.2,15.28-18.68
			c5.19-7.19,10.39-14.37,15.52-21.6c10.04-14.19,19.75-28.59,29.63-42.89C365.07,294.19,362.67,292.87,361.6,294.28L361.6,294.28z"
			/>
	</g>
</g>
<g>
	<g>
		<path class="st0" d="M362.69,314.66c-6.83,8.19-12.44,17.49-18.38,26.34c-5.84,8.71-12.89,17.41-16.76,27.23
			c-0.47,1.2,1.24,2,2.06,1.2c7.31-7.18,12.42-16.84,17.98-25.36c5.91-9.06,12.42-18.01,17.36-27.65
			C365.66,315.03,363.8,313.34,362.69,314.66L362.69,314.66z"/>
	</g>
</g>
<g>
	<g>
		<path class="st0" d="M316.41,266.18c-6.18,5.74-12.58,11.33-16.96,18.59c-0.55,0.92,0.56,2.07,1.49,1.49
			c7.19-4.49,12.67-10.98,18.3-17.25C320.97,267.1,318.31,264.41,316.41,266.18L316.41,266.18z"/>
	</g>
</g>
</svg>
