<?xml version="1.0" encoding="utf-8"?>
<!-- Generator: Adobe Illustrator 27.2.0, SVG Export Plug-In . SVG Version: 6.00 Build 0)  -->
<svg version="1.1" id="Layer_1" xmlns="http://www.w3.org/2000/svg" xmlns:xlink="http://www.w3.org/1999/xlink" x="0px" y="0px"
	 viewBox="0 0 600 600" style="enable-background:new 0 0 600 600;" xml:space="preserve">
<style type="text/css">
	.st0{fill:#121212;}
</style>
<g>
	<g>
		<path class="st0" d="M150.76,416.6c-26.69-11.91-58.3,4.19-64.81,32.56c-3.12,13.62-0.46,27.98,7.96,39.21
			c7.54,10.04,20.85,20.22,34.06,17.26c2.25-0.5,2.59-3.79,0.64-4.88c-9.39-5.26-19.21-8.3-26.23-17.08
			c-7.19-8.98-9.83-20.78-7.33-31.99c5.39-24.17,30.16-36.15,53.08-28.84C151.74,423.98,154.33,418.19,150.76,416.6L150.76,416.6z"
			/>
	</g>
</g>
<g>
	<g>
		<path class="st0" d="M147.3,417.51c-19.19-17.98,9.7-46.29,23.88-56.99c8.91-6.73,19.37-11.5,30.7-11.35
			c5.07,0.07,10.21,1.03,14.84,3.15c4.56,2.08,7.98,6.02,12.42,8.07c2.24,1.03,4.78-0.66,4.18-3.22
			c-2.74-11.71-20.65-15.83-30.74-15.96c-13.75-0.17-26.44,5.73-37.06,14.11c-11.01,8.7-22.72,20.8-28.4,33.82
			c-4.68,10.72-4,25.72,7.75,31.52C146.81,421.62,149.05,419.15,147.3,417.51L147.3,417.51z"/>
	</g>
</g>
<g>
	<g>
		<path class="st0" d="M226.83,357.53c1.34-2.41,1.52-5.02,2.14-7.67c0.89-3.84,2.06-7.56,3.76-11.12
			c2.99-6.23,6.93-11.98,11.61-17.05c9.72-10.53,22.25-18.65,36-22.8c26.31-7.94,58.08,0.73,71.77,25.93
			c3.52,6.48,5.69,13.74,6.2,21.1c0.27,3.89,0.12,7.85-0.58,11.69c-0.67,3.7-2.17,7.16-2.79,10.85c-0.61,3.65,3.64,5.41,5.85,2.47
			c4.23-5.65,5.06-14.39,5.09-21.26c0.03-7.61-1.49-15.23-4.35-22.27c-5.68-13.99-16.76-25.14-30.37-31.57
			c-29.73-14.06-64.34-4.9-87.47,17.29c-6.27,6.02-11.99,13.15-15.59,21.11c-2.85,6.29-6.92,16.73-3.15,23.33
			C225.34,358.23,226.43,358.24,226.83,357.53L226.83,357.53z"/>
	</g>
</g>
<g>
	<g>
		<path class="st0" d="M352.16,376.19c2.88-0.6,5.31-2.58,7.87-3.97c3.09-1.69,6.35-3.04,9.68-4.18c5.96-2.05,12.25-3.36,18.55-3.68
			c13.07-0.66,26.46,2.82,37.01,10.71c10.36,7.74,17.72,19.64,20.54,32.21c1.34,5.99,1.74,12.23,1.32,18.36
			c-0.44,6.22-2.63,12.67-2,18.93c0.17,1.67,1.88,2.37,3.18,1.32c8.44-6.85,8.36-21.68,7.08-31.41
			c-1.47-11.26-5.59-22.45-12.25-31.69c-13.91-19.32-37.45-28.26-60.81-25c-6.38,0.89-12.62,2.79-18.35,5.76
			c-4.64,2.41-11.33,6.03-13.33,11.13C350.27,375.62,351.33,376.36,352.16,376.19L352.16,376.19z"/>
	</g>
</g>
<g>
	<g>
		<path class="st0" d="M448.3,438.67c10.19-4.6,21.37-6.24,32.05-2.15c9.6,3.67,16.98,11.94,20.14,21.65
			c3.07,9.43,2.05,19.38-2.99,27.93c-2.52,4.29-5.99,8.11-10.06,10.98c-3.71,2.61-8.02,4.31-11.53,7.19
			c-2.29,1.88-0.16,4.96,2.16,5.22c11.47,1.29,22.78-11.16,27.58-20.28c5.81-11.06,6.14-24.08,1.29-35.55
			c-9.73-23.04-40.31-34.3-61.1-18.17C443.89,437,446.38,439.54,448.3,438.67L448.3,438.67z"/>
	</g>
</g>
<g>
	<g>
		<path class="st0" d="M121.86,508.23c45.36,6.54,91.59,8.17,137.36,9.27c46.37,1.11,92.78,1.11,139.16-0.13
			c13.25-0.35,26.5-0.8,39.74-1.34c6.62-0.27,13.24-0.56,19.86-0.88c6.24-0.3,12.87,0.16,18.74-2.16c2.84-1.12,3.36-5.38,0-6.31
			c-5.22-1.44-10.41-0.72-15.76-0.45c-5.96,0.3-11.92,0.59-17.87,0.85c-11.59,0.51-23.18,0.96-34.77,1.33
			c-23.18,0.74-46.38,1.22-69.57,1.4c-46.07,0.37-92.09-0.72-138.14-2.04c-26.14-0.75-52.25-2.08-78.4-2.03
			C120.82,505.74,120.41,508.02,121.86,508.23L121.86,508.23z"/>
	</g>
</g>
<g>
	<g>
		<path class="st0" d="M250.06,232.45c3.66-0.86,6.81-3.87,10.07-5.74c3.88-2.23,7.88-4.15,12.12-5.59
			c7.99-2.72,16.21-4.37,24.68-4.19c8.47,0.18,16.99,2.04,24.76,5.44c8.2,3.58,14.52,8.95,21.27,14.64
			c4.56,3.84,10.12-1.89,6.46-6.46c-11.88-14.85-33.96-22.8-52.49-22.77c-9.54,0.02-19.15,1.9-27.86,5.8
			c-6.92,3.09-18.69,8.8-21.42,16.45C247.11,231.51,248.7,232.77,250.06,232.45L250.06,232.45z"/>
	</g>
</g>
<g>
	<g>
		<path class="st0" d="M211.67,201.99c6.44-2.14,11.84-7.49,17.37-11.26c6.2-4.22,12.76-7.93,19.59-11.03
			c14.09-6.4,29.57-10.74,45.01-11.99c31.8-2.56,63.58,7.12,88.89,26.43c4.64,3.54,9.16-4.33,4.58-7.83
			c-26.83-20.47-61.4-30.73-95.07-27.35c-16.04,1.61-31.53,5.95-45.89,13.31c-7.16,3.67-13.98,7.98-20.38,12.86
			c-5.58,4.26-12.4,9.3-14.76,16.2C210.89,201.71,211.3,202.11,211.67,201.99L211.67,201.99z"/>
	</g>
</g>
<g>
	<g>
		<path class="st0" d="M187.81,158.1c3.12,0.09,5.04-1.56,7.43-3.36c3.43-2.57,6.91-5.08,10.35-7.63
			c6.51-4.83,13.38-9.14,20.49-13.03c14.16-7.73,29.42-13.33,45.2-16.65c32.32-6.8,66.17-3.51,96.58,9.44
			c8.56,3.64,16.81,8.04,24.63,13.07c7.83,5.03,14.83,11.1,22.43,16.44c3.91,2.74,7.57-3.02,4.81-6.24
			c-10.98-12.82-27.54-22.23-42.71-29.24c-15.81-7.31-32.55-12.28-49.81-14.62c-34.21-4.64-68.98,1.72-99.62,17.55
			c-8.42,4.35-16.4,9.44-23.93,15.2c-3.7,2.83-7.25,5.76-10.47,9.14c-2.63,2.76-5.87,5.42-5.8,9.51
			C187.4,157.91,187.58,158.09,187.81,158.1L187.81,158.1z"/>
	</g>
</g>
<g>
	<g>
		<path class="st0" d="M249.74,360.81c2.2-7.23,4.48-13.88,9.2-19.93c4.45-5.71,10.87-9.01,15.39-14.44c0.7-0.84,0.3-2.32-0.94-2.28
			c-7.99,0.24-14.46,7.06-19.1,13.13c-4.95,6.48-8.82,14.65-9.1,22.91C245.09,362.86,249,363.27,249.74,360.81L249.74,360.81z"/>
	</g>
</g>
<g>
	<g>
		<path class="st0" d="M284.93,321.64c3.13-0.04,6.27-1.21,9.25-2.09c2.54-0.75,5.93-1.09,7.24-3.64c0.38-0.74,0.25-1.86-0.59-2.26
			c-2.69-1.3-5.32,0.29-7.93,1.26c-2.91,1.08-6.23,2.02-8.75,3.86C282.98,319.61,283.28,321.66,284.93,321.64L284.93,321.64z"/>
	</g>
</g>
<g>
	<g>
		<path class="st0" d="M162.74,409.19c2.04-3.38,3.05-7.31,4.88-10.83c2-3.83,4.17-7.56,7.03-10.83c2.68-3.06,5.8-5.71,9.2-7.93
			c3.08-2.01,6.88-3.24,8.96-6.41c0.67-1.01-0.03-2.3-1.07-2.63c-8.09-2.62-18.22,7.82-22.67,13.44
			c-5.05,6.37-10.51,16.6-7.88,24.99C161.41,409.68,162.35,409.83,162.74,409.19L162.74,409.19z"/>
	</g>
</g>
<g>
	<g>
		<path class="st0" d="M205.81,373.53c2.14,0.65,4.37,0.84,6.6,0.8c2.99-0.05,2.99-4.59,0-4.65c-2.23-0.04-4.46,0.15-6.6,0.8
			C204.31,370.93,204.31,373.07,205.81,373.53L205.81,373.53z"/>
	</g>
</g>
<g>
	<g>
		<path class="st0" d="M114.7,476.87c1.8-3.17-0.87-6.7-1.17-10.07c-0.38-4.34,1.18-8.14,2.49-12.15c0.48-1.46-1.34-2.87-2.63-2.02
			c-5.16,3.36-6.58,10.04-5.7,15.8c0.41,2.7,1.26,5.83,3.41,7.69C111.66,476.61,114.01,478.08,114.7,476.87L114.7,476.87z"/>
	</g>
</g>
<g>
	<g>
		<path class="st0" d="M126.46,443.4c2.55-1.26,5.11-2.51,7.46-4.12c1.88-1.28,4.59-2.62,4.99-5.06c0.12-0.73-0.18-1.66-1.03-1.82
			c-2.67-0.49-4.72,1.49-6.74,3c-2.31,1.72-4.37,3.73-6.42,5.74C123.5,442.32,125.04,444.1,126.46,443.4L126.46,443.4z"/>
	</g>
</g>
<g>
	<g>
		<path class="st0" d="M239.57,476.44c1.6-7.54,2.52-14.86,5.78-21.97c3.3-7.2,8.08-13.6,14-18.86c5.86-5.2,12.95-9,20.45-11.23
			c3.75-1.11,7.6-1.87,11.5-2.15c3.33-0.24,6.76,0.03,9.65-1.9c0.94-0.63,1.32-2.08,0.38-2.93c-5.61-5-17.01-1.79-23.42,0.11
			c-8.46,2.49-16.34,6.76-23.03,12.51c-12.42,10.66-22.5,29.68-19.78,46.41C235.47,478.71,239.11,478.6,239.57,476.44L239.57,476.44
			z"/>
	</g>
</g>
<g>
	<g>
		<path class="st0" d="M313.61,424.76c3.19,5.64,9.24,9.28,15.61,10.07c1.2,0.15,2.28-0.95,2.61-1.99c0.07-0.23,0.09-0.48,0.1-0.72
			c0.04-1.21-0.88-2.27-1.99-2.61c-5.2-1.61-9.61-3.86-14.03-7.05C314.49,421.41,312.84,423.39,313.61,424.76L313.61,424.76z"/>
	</g>
</g>
<g>
	<g>
		<path class="st0" d="M336.79,445.72c0.79,0.84,1.5,2.54,2.15,3.54c0.87,1.35,1.73,2.71,2.48,4.14c1.5,2.84,2.79,5.78,3.98,8.76
			c1.36,3.4,6.93,1.96,5.58-1.54c-1.35-3.51-3.24-6.68-5.87-9.39c-1.09-1.12-2.28-2.21-3.53-3.14c-1.51-1.12-3.2-1.51-4.7-2.48
			C336.8,445.57,336.73,445.67,336.79,445.72L336.79,445.72z"/>
	</g>
</g>
<g>
	<g>
		<path class="st0" d="M328.72,424.5c8.61-3.96,15.31-10.22,24.82-12.58c4.43-1.1,9-1.53,13.56-1.29c3.88,0.2,8.7,2.21,12.3,0.39
			c0.86-0.44,1.11-1.66,0.64-2.45c-2.33-3.99-8.8-4.04-12.94-4.22c-5.33-0.22-10.76,0.44-15.89,1.85
			c-9.14,2.51-20.57,7.73-23.78,17.31C327.17,424.31,328.08,424.8,328.72,424.5L328.72,424.5z"/>
	</g>
</g>
</svg>
