<?xml version="1.0" encoding="utf-8"?>
<!-- Generator: Adobe Illustrator 27.2.0, SVG Export Plug-In . SVG Version: 6.00 Build 0)  -->
<svg version="1.1" id="Layer_1" xmlns="http://www.w3.org/2000/svg" xmlns:xlink="http://www.w3.org/1999/xlink" x="0px" y="0px"
	 viewBox="0 0 600 600" style="enable-background:new 0 0 600 600;" xml:space="preserve">
<style type="text/css">
	.st0{fill:#121212;}
</style>
<g>
	<g>
		<path class="st0" d="M126.32,355.26c0.05-1.2,0.24-2.37,0.58-3.53c-1.05-0.14-2.1-0.27-3.15-0.41
			c6.32,29.16-7.99,58.36-2.12,87.65c2.38,11.87,8.56,22.59,18.38,29.8c7.33,5.38,22.41,11.9,30.28,4.42
			c2.12-2.01,0.93-5.39-1.64-6.23c-4.58-1.5-9.48-0.15-14.21-1.54c-4.95-1.46-9.39-4.36-13.07-7.94
			c-8.62-8.37-12.27-19.92-13.23-31.67c-2.05-25.25,5.99-50.48-1.07-75.41c-0.73-2.57-4.74-0.63-2.88,1.68
			c0.53,1.06,0.94,2.16,1.23,3.3C125.57,355.89,126.27,355.76,126.32,355.26L126.32,355.26z"/>
	</g>
</g>
<g>
	<g>
		<path class="st0" d="M159.4,475.51c18.21,0.9,36.52-0.32,54.73-0.99c18.58-0.69,37.18-1.27,55.77-1.7
			c36.53-0.86,73.07-1.02,109.6-0.48c20.92,0.31,41.84,0.85,62.76,1.61c5.75,0.21,5.74-8.73,0-8.93
			c-73.99-2.56-148.19-2.64-222.15,0.97c-20.43,1-41.1,1.69-61.28,5.24C156.3,471.67,157.06,475.39,159.4,475.51L159.4,475.51z"/>
	</g>
</g>
<g>
	<g>
		<path class="st0" d="M432.55,470.16c9.01,7.22,22.36,1.94,29.68-5.23c9.85-9.65,12.56-24.32,14.74-37.34
			c2.59-15.48,3.96-31.19,4.12-46.89c0.08-7.65-0.15-15.3-0.68-22.94c-0.5-7.15-0.06-16.4-3.44-22.83c-1.47-2.8-6.19-2.23-6.88,0.9
			c-1.31,5.98,0.57,12.98,1.03,19.07c0.5,6.68,0.77,13.37,0.85,20.06c0.15,13.39-0.58,26.79-2.2,40.08
			c-1.46,11.96-2.72,25.48-8.31,36.34c-2.62,5.08-6.25,9.33-11.37,11.99c-5.19,2.69-9.93,2.41-15.54,2
			C432.23,465.19,430.66,468.65,432.55,470.16L432.55,470.16z"/>
	</g>
</g>
<g>
	<g>
		<path class="st0" d="M175.74,408.49c19.56,3.29,40.2,1.74,59.98,1.87c20.87,0.13,41.74,0.12,62.61,0.18
			c20.54,0.05,41.08,0.04,61.61-0.03c10.27-0.03,20.54-0.07,30.81-0.1c5.3-0.02,10.6,0.02,15.9,0.05
			c4.94,0.03,10.19,0.64,14.89-1.12c3.46-1.29,3.53-5.85,0-7.12c-4.73-1.7-9.95-1.05-14.89-0.96c-5.3,0.1-10.6,0.19-15.9,0.24
			c-9.94,0.08-19.88,0.17-29.81,0.25c-20.87,0.17-41.74,0.4-62.61,0.7c-20.54,0.29-41.08,0.52-61.61,0.89
			c-20.1,0.36-41.14-1-60.97,2.58C174.47,406.14,174.45,408.28,175.74,408.49L175.74,408.49z"/>
	</g>
</g>
<g>
	<g>
		<path class="st0" d="M181.32,352.8c-2.52-1.02-4.48-2.24-6.74-3.67c-0.46,1.71-0.93,3.42-1.39,5.13
			c20.87-1.02,41.74-3.68,62.59-5.28c20.27-1.56,40.59-2.57,60.91-3.06c20.33-0.49,40.67-0.4,61,0.26
			c10.49,0.34,20.98,0.83,31.45,1.48c10.21,0.63,21.22,2.81,31.39,1.9c4.35-0.39,5.72-6.66,1.07-7.94
			c-9.59-2.65-20.61-2.27-30.51-2.9c-10.47-0.66-20.96-1.17-31.45-1.52c-20.98-0.71-41.98-0.81-62.96-0.29
			c-20.99,0.51-41.95,1.68-62.88,3.5c-20.38,1.77-41.4,3.83-61.36,8.45c-2.98,0.69-2.39,5.62,0.73,5.4c2.73-0.19,5.2-0.31,7.93,0
			C182.02,354.35,182.02,353.08,181.32,352.8L181.32,352.8z"/>
	</g>
</g>
<g>
	<g>
		<path class="st0" d="M172.73,299.62c21.15,1.78,42.55,0.04,63.75-0.41c20.6-0.44,41.2-0.69,61.8-0.82
			c20.61-0.13,41.21-0.03,61.82,0.3c21.26,0.34,42.54,1.54,63.79,1.68c6.43,0.04,6.32-9.52,0-9.91
			c-21.18-1.33-42.58-1.16-63.79-1.33c-20.94-0.17-41.88-0.09-62.81,0.22c-20.95,0.31-41.87,0.99-62.8,1.94
			c-20.72,0.94-41.79,1.19-62.18,5.23C170.45,296.88,171.06,299.48,172.73,299.62L172.73,299.62z"/>
	</g>
</g>
<g>
	<g>
		<path class="st0" d="M173.7,214.57c5.99,3.27,15.04,2.61,21.76,3.15c8.58,0.7,17.17,1.41,25.76,2.04
			c16.85,1.23,33.64,2.99,50.41,5.03c33.71,4.09,67.2,10.08,100.26,17.83c18.61,4.36,37.07,9.31,55.37,14.78
			c6,1.79,8.56-7.57,2.58-9.36c-65.39-19.52-132.9-32.17-201-36.83c-9.53-0.65-19.06-0.97-28.61-1.12
			c-4.78-0.07-9.54,0.03-14.32,0.17c-4.17,0.13-8.41-0.15-12.21,1.75C172.71,212.51,172.76,214.06,173.7,214.57L173.7,214.57z"/>
	</g>
</g>
<g>
	<g>
		<path class="st0" d="M194.51,135.96c0.06,0,0.06-0.1,0-0.1C194.45,135.86,194.45,135.96,194.51,135.96L194.51,135.96z"/>
	</g>
</g>
<g>
	<g>
		<path class="st0" d="M193.72,136.51c9.1,4.48,19.16,7.36,28.74,10.69c10.05,3.49,20.23,6.58,30.38,9.77
			c19.66,6.18,39.34,12.27,59.02,18.37c19.68,6.1,39.36,12.2,59.03,18.3c10.16,3.15,20.31,6.3,30.47,9.45
			c5.08,1.57,10.16,3.15,15.23,4.72c4.33,1.34,9.1,3.82,13.56,2.05c1.8-0.72,3.21-2.85,1.93-4.75c-2.62-3.91-6.74-4.59-11.05-5.92
			c-5.08-1.57-10.16-3.13-15.24-4.7c-10.16-3.13-20.32-6.26-30.48-9.39c-19.69-6.07-39.38-12.13-59.06-18.2
			c-19.69-6.07-39.37-12.14-59.08-18.13c-10.17-3.09-20.3-6.35-30.56-9.13c-10.16-2.76-20.5-6.25-30.94-7.75
			C193.11,131.51,190.9,135.11,193.72,136.51L193.72,136.51z"/>
	</g>
</g>
<g>
	<g>
		<path class="st0" d="M122.89,348.88c-3.09-1.23-6.18-1.95-9.45-2.54c-2.58-0.47-5.12-1.09-6.96,1.26
			c-0.41,0.53-0.5,1.05-0.21,1.66c1.35,2.89,4.22,2.71,6.98,2.82c3.28,0.13,6.41,0.04,9.65-0.48
			C124.42,351.34,124.01,349.32,122.89,348.88L122.89,348.88z"/>
	</g>
</g>
<g>
	<g>
		<path class="st0" d="M112.03,348.63c-2.04,2.26-1.9,5.05-2.27,8c-0.57,4.63-0.81,9.3-1.15,13.94c-0.63,8.63-1.25,17.26-1.88,25.9
			c-0.67,9.3-1.35,18.59-2.02,27.89c-0.56,7.75-1.19,15.53-0.15,23.27c1.82,13.53,9.88,24.76,21.45,31.82
			c6.28,3.83,13.33,6.38,20.44,8.18c7.14,1.81,16.16,4.75,23.32,2.38c2.1-0.7,2.39-3.34,0.6-4.56c-5.67-3.85-13.45-3.53-20.04-5.01
			c-6.89-1.54-13.66-3.68-19.81-7.18c-13.12-7.46-19.9-18.7-20.44-33.82c-0.55-15.24,1.06-30.73,1.77-45.96
			c0.37-7.97,0.75-15.94,1.12-23.9c0.19-3.98,0.45-7.97,0.47-11.95c0.02-3.2,0.56-6.33-1.32-8.99
			C112.09,348.62,112.06,348.61,112.03,348.63L112.03,348.63z"/>
	</g>
</g>
<g>
	<g>
		<path class="st0" d="M157.32,488.81c9.18,1.65,18.99,0.72,28.29,0.69c9.96-0.04,19.91-0.09,29.87-0.27
			c19.91-0.35,39.83-0.7,59.74-1.06c39.82-0.7,79.65-1.64,119.48-2.02c22.53-0.22,45.2,0.21,67.7-1c4.58-0.25,4.65-7.1,0-7.17
			c-19.88-0.31-39.86,0.78-59.74,1.33c-19.91,0.56-39.82,0.96-59.74,1.35c-39.83,0.8-79.65,1.6-119.48,2.4
			c-11.29,0.23-22.57,0.49-33.85,0.89c-10.57,0.37-21.91-0.4-32.27,1.87C155.88,486.15,155.81,488.54,157.32,488.81L157.32,488.81z"
			/>
	</g>
</g>
<g>
	<g>
		<path class="st0" d="M456.27,484.38c11.51-4.64,21.62-12.77,28.63-23.03c3.54-5.19,6.06-11.26,7.65-17.33
			c1.48-5.64,3.19-12.63,0.18-17.98c-0.84-1.49-3.4-1.67-4.19,0c-2.26,4.76-1.72,10.24-2.86,15.33c-1.26,5.65-3.44,10.9-6.15,16
			c-5.62,10.55-13.77,18.7-24.56,23.92C453.28,482.12,454.49,485.1,456.27,484.38L456.27,484.38z"/>
	</g>
</g>
<g>
	<g>
		<path class="st0" d="M492.33,424.21c4.58-14.15,3.34-30.94,2.76-45.6c-0.3-7.72-0.91-15.42-1.74-23.1
			c-0.81-7.46-1.31-15.5-3.35-22.73c-0.84-2.96-5.74-2.5-5.52,0.75c0.51,7.65,2.29,15.3,3.13,22.94c0.85,7.68,1.43,15.39,1.8,23.1
			c0.71,14.71-1.2,30.09,1.02,44.64C490.59,425.24,492.06,425.05,492.33,424.21L492.33,424.21z"/>
	</g>
</g>
<g>
	<g>
		<path class="st0" d="M475.81,339.72c3.87-0.41,7.86-0.58,11.67-1.34c3.5-0.7,2.76-6.6-0.85-6.29c-3.88,0.34-7.75,1.27-11.59,1.97
			C471.89,334.63,472.57,340.07,475.81,339.72L475.81,339.72z"/>
	</g>
</g>
</svg>
