<?xml version="1.0" encoding="utf-8"?>
<!-- Generator: Adobe Illustrator 27.2.0, SVG Export Plug-In . SVG Version: 6.00 Build 0)  -->
<svg version="1.1" id="Layer_1" xmlns="http://www.w3.org/2000/svg" xmlns:xlink="http://www.w3.org/1999/xlink" x="0px" y="0px"
	 viewBox="0 0 600 600" style="enable-background:new 0 0 600 600;" xml:space="preserve">
<style type="text/css">
	.st0{fill:#121212;}
	.st1{fill:#E23A2E;}
	.st2{fill:#279847;}
	.st3{fill:#FBBF12;}
	.st4{fill:#336FEA;}
	.st5{fill:#913BD2;}
	.st6{fill:#F8C54A;}
	.st7{fill:#A11414;}
	.st8{fill:#D41F1F;}
	.st9{fill:#6686D1;}
	.st10{fill:#419E6C;}
	.st11{fill:#F5B84E;}
	.st12{fill:#E89634;}
	.st13{fill:#E45656;}
	.st14{fill:#243E80;}
	.st15{fill:#80C9E8;}
	.st16{fill:#5F9D5F;}
	.st17{fill:#68B672;}
</style>
<g>
	<g>
		<path class="st0" d="M83.8,259.81c-1.55,14.32-10.58,31.73-2.42,45.53c6.07,10.26,20.78,13.65,28.32,3.08
			c3.19-4.48,4.24-10.04,4.69-15.43c0.68-8.1,0.37-16.36,0.48-24.49c0.24-17.61,0.48-35.23,0.72-52.84
			c0.14-9.97,0.27-19.94,0.41-29.91c0.13-9.78,1.29-20.18-0.77-29.78c-0.68-3.17-5.56-3.06-6.31,0c-2.18,8.92-1.42,18.64-1.55,27.79
			c-0.14,9.64-0.27,19.28-0.41,28.91c-0.26,18.61-0.53,37.22-0.79,55.83c-0.12,8.33,0.32,16.86-0.55,25.15
			c-0.59,5.64-2.8,14.44-10.32,12.77c-9.09-2.02-9.61-13.24-8.77-20.55c1.02-8.88,4.28-17.73,2.04-26.7
			C87.85,256.33,84.07,257.25,83.8,259.81L83.8,259.81z"/>
	</g>
</g>
<g>
	<g>
		<path class="st0" d="M111.95,158.44c5.19-22.31,26.33-36.55,48.72-34.78c5.14,0.41,5.12-7.61,0-8.02
			c-24.64-1.95-48.5,17.78-53.02,41.61C107.13,160.04,111.3,161.26,111.95,158.44L111.95,158.44z"/>
	</g>
</g>
<g>
	<g>
		<path class="st0" d="M154.87,119.92c16.23,2.33,33.02,1.69,49.39,2.05c16.55,0.37,33.09,0.72,49.64,0.94
			c33.43,0.45,66.85,0.89,100.28,1.34c19.12,0.25,38.49,1.43,57.59,0.63c5.59-0.23,5.53-8.27,0-8.65
			c-16.45-1.12-33.16-0.56-49.64-0.76c-16.55-0.21-33.1-0.41-49.64-0.62c-33.43-0.42-66.85-0.93-100.28-1.05
			c-18.69-0.06-38.01-1.51-56.59,0.67C152.82,114.79,151.47,119.43,154.87,119.92L154.87,119.92z"/>
	</g>
</g>
<g>
	<g>
		<path class="st0" d="M152.61,125.04c10.79,0.47,20.96,0.68,30.73,6c9.37,5.1,17.54,13.08,22.65,22.46
			c12.44,22.84,11.08,50.68,10.74,75.83c-0.78,57.04-1.56,114.07-2.34,171.11c-0.22,15.92-0.43,31.83-0.65,47.75
			c-0.11,7.96-0.22,15.92-0.33,23.88c-0.11,8.25-0.91,16.81,0.8,24.91c0.8,3.78,6.65,3.66,7.53,0c1.65-6.85,1.3-13.92,1.4-20.93
			c0.11-7.96,0.22-15.92,0.33-23.88c0.21-15.25,0.42-30.51,0.62-45.76c0.42-30.51,0.83-61.02,1.25-91.52
			c0.42-30.43,0.87-60.86,1.25-91.3c0.32-25.75,0.1-53.85-14.38-76.25c-6.73-10.41-16.12-19.2-27.49-24.31
			c-10.05-4.52-23.13-7.08-32.68-0.15C151.11,123.55,151.4,124.99,152.61,125.04L152.61,125.04z"/>
	</g>
</g>
<g>
	<g>
		<path class="st0" d="M412.56,121.04c3.34,3.16,7.03,3.66,11.17,5.53c4.49,2.03,8.68,4.81,12.35,8.08
			c7.52,6.71,12.86,15.37,16.14,24.85c7.87,22.8,6.88,48.63,7.58,72.44c1.52,51.16,0.64,102.49-2.17,153.6
			c-0.79,14.42-1.76,28.84-2.91,43.24c-0.55,6.87-1.14,13.74-1.77,20.61c-0.33,3.6-0.67,7.19-1.02,10.79
			c-0.4,4.1,0.21,7.66,0.66,11.76c0.36,3.27,4.75,4.15,5.87,0.79c0.96-2.87,2.23-5.66,2.78-8.63c0.6-3.19,0.66-6.57,0.98-9.8
			c0.7-7.19,1.35-14.39,1.95-21.58c1.13-13.42,2.11-26.84,2.93-40.28c1.66-27.19,2.82-54.45,3.09-81.69
			c0.27-26.91-0.24-53.86-1.17-80.76c-0.85-24.52-0.01-51.24-9-74.47c-4.1-10.6-10.38-20.36-19.22-27.63
			c-6.54-5.38-19.87-13.84-28.09-8C412.33,120.14,412.18,120.68,412.56,121.04L412.56,121.04z"/>
	</g>
</g>
<g>
	<g>
		<path class="st0" d="M215.65,492.69c4.99,7.18,12.38,12.48,19.12,17.94c3.6,2.91,7.19,5.83,10.82,8.7c3.04,2.4,5.45,5.06,9.53,4.9
			c2.22-0.09,3.59-2.01,3.15-4.14c-0.86-4.16-4.54-6.06-7.72-8.51c-3.45-2.67-6.94-5.28-10.41-7.91
			c-6.91-5.23-13.84-11.11-21.99-14.23C216.38,488.76,214.58,491.16,215.65,492.69L215.65,492.69z"/>
	</g>
</g>
<g>
	<g>
		<path class="st0" d="M252.09,522.99c7.49-2.35,12.75-8.89,18.42-14.17c6.41-5.97,12.83-11.94,19.23-17.92
			c3.57-3.33-1.84-8.75-5.36-5.36c-6.32,6.07-12.61,12.16-18.92,18.24c-5.59,5.39-12.25,10.21-15.02,17.57
			C250.08,522.3,251.17,523.28,252.09,522.99L252.09,522.99z"/>
	</g>
</g>
<g>
	<g>
		<path class="st0" d="M286.31,487.15c7.86,7.85,17.84,13.76,27.04,19.9c4.67,3.12,9.34,6.23,14.01,9.35
			c4.3,2.87,8.71,7.29,14.07,7.28c3.21-0.01,4.52-3.25,3.37-5.87c-1.95-4.45-7.71-6.76-11.67-9.31c-5-3.21-10-6.42-15-9.63
			c-9.3-5.97-18.63-12.59-28.95-16.66C286.33,481.09,284.36,485.21,286.31,487.15L286.31,487.15z"/>
	</g>
</g>
<g>
	<g>
		<path class="st0" d="M338.68,522.69c8.92-4.35,16.44-12.54,24.25-18.6c4.11-3.18,8.55-5.96,12.63-9.17
			c1.84-1.45,4.4-4.19,2.37-6.6c-2.36-2.79-6.31,0.1-8.4,1.57c-3.92,2.75-7.77,5.62-11.55,8.57c-7.7,6.01-17.21,12.91-21.8,21.72
			C335.31,521.86,337.04,523.49,338.68,522.69L338.68,522.69z"/>
	</g>
</g>
<g>
	<g>
		<path class="st0" d="M375.14,496.05c6.32,5.3,13.77,9.27,20.93,13.32c7.13,4.03,14.37,9.2,22.1,11.93
			c3.78,1.33,7.27-4.35,4.04-6.93c-6.41-5.12-14.57-8.56-21.76-12.48c-7.23-3.94-14.56-8.23-22.42-10.79
			C375.3,490.2,372.86,494.13,375.14,496.05L375.14,496.05z"/>
	</g>
</g>
<g>
	<g>
		<path class="st0" d="M420.86,521.29c5.5-5.07,10.24-10.9,14.88-16.75c3.92-4.94,9.98-10.38,11.59-16.58
			c0.64-2.47-2.06-4.56-4.29-3.3c-5.56,3.15-9.27,10.43-13.01,15.47c-4.45,6-8.85,12.1-12.33,18.72
			C416.65,520.88,419.16,522.86,420.86,521.29L420.86,521.29z"/>
	</g>
</g>
<g>
	<g>
		<path class="st0" d="M442.09,486.7c1.09,5.09,4.45,8.95,9.2,11.03c2,0.87,4.99,0.38,5.47-2.23c1.17-6.33,2.19-12.7,3.26-19.06
			c0.79-4.71,2.77-11.04-0.07-15.32c-0.69-1.04-1.88-1.1-2.82-0.36c-4.02,3.19-4.08,9.84-4.8,14.56c-0.93,6.06-1.92,12.12-2.75,18.2
			c1.53-0.87,3.06-1.74,4.58-2.6c-3.3-1.04-5.4-3.35-7-6.36C445.64,481.66,441.46,483.72,442.09,486.7L442.09,486.7z"/>
	</g>
</g>
<g>
	<g>
		<path class="st0" d="M84.49,262.38c3.76,2.58,9.54,2.33,13.95,2.47c4.68,0.15,10.68,1.56,14.73-1.14c1.97-1.31,1.97-3.97,0-5.28
			c-4.01-2.68-10.09-1.29-14.73-1.14c-4.46,0.15-10.16-0.13-13.95,2.47C83.52,260.43,83.52,261.71,84.49,262.38L84.49,262.38z"/>
	</g>
</g>
<g>
	<g>
		<path class="st0" d="M99.65,312.65c3.96,1.79,8.34,1.29,12.61,1.17c5.27-0.14,10.52-0.39,15.78-0.64
			c10.52-0.5,21.05-0.9,31.59-1.17c10.54-0.28,21.08-0.44,31.61-0.49c10.13-0.05,20.81,0.9,30.85-0.55c4.3-0.62,4.29-8.04,0-8.68
			c-10-1.48-20.76-0.4-30.85-0.08c-10.54,0.33-21.08,0.77-31.61,1.33c-10.54,0.56-21.07,1.23-31.59,2.01
			c-5.27,0.39-10.53,0.84-15.78,1.46c-4.23,0.5-8.98,0.56-12.61,2.97C98.77,310.56,98.51,312.14,99.65,312.65L99.65,312.65z"/>
	</g>
</g>
<g>
	<g>
		<path class="st0" d="M99.89,274.4c-4.13,4.65-7.63,9.54-11.11,14.7c-3.38,5.01-7.43,10.01-9.47,15.75
			c-0.41,1.16,1.14,1.85,1.94,1.13c4.28-3.9,7.21-9.32,10.36-14.13c3.52-5.37,6.82-10.64,9.6-16.43
			C101.61,274.61,100.57,273.63,99.89,274.4L99.89,274.4z"/>
	</g>
</g>
<g>
	<g>
		<path class="st0" d="M105.76,279.13c-3.47,3.97-6.03,8.63-8.76,13.12c-2.71,4.46-5.88,8.85-7.64,13.78
			c-0.33,0.93,1,1.65,1.65,0.96c3.57-3.83,6.02-8.69,8.73-13.15c2.73-4.49,5.67-8.89,7.61-13.79
			C107.69,279.17,106.36,278.44,105.76,279.13L105.76,279.13z"/>
	</g>
</g>
<g>
	<g>
		<path class="st0" d="M161.17,123.46c-3.36,3.35-5.34,8.34-7.66,12.44c-2.42,4.28-4.58,8.58-6.23,13.21
			c-0.28,0.8,0.93,1.55,1.47,0.86c3.01-3.86,5.49-7.97,7.81-12.29c2.23-4.17,5.41-8.52,6.44-13.16
			C163.22,123.48,161.97,122.66,161.17,123.46L161.17,123.46z"/>
	</g>
</g>
<g>
	<g>
		<path class="st0" d="M172.53,123.82c-4.9,8.49-11.12,17.07-13.99,26.5c-0.21,0.7,0.8,1.38,1.29,0.75
			c6.1-7.75,9.61-17.74,13.79-26.61C173.96,123.73,172.94,123.1,172.53,123.82L172.53,123.82z"/>
	</g>
</g>
<g>
	<g>
		<path class="st0" d="M181.85,127.21c-3.84,5.77-6.91,11.79-10,17.99c-2.75,5.5-6.53,11.38-7.65,17.48
			c-0.21,1.17,1.24,2.32,2.17,1.27c4.31-4.87,6.67-11.74,9.44-17.57c2.89-6.1,5.61-12.05,7.72-18.46
			C183.86,126.89,182.4,126.39,181.85,127.21L181.85,127.21z"/>
	</g>
</g>
<g>
	<g>
		<path class="st0" d="M195.7,131.95c-4.63,4.12-7.5,9.98-10.59,15.27c-3.11,5.3-6.93,10.61-8.36,16.66
			c-0.27,1.14,1.08,1.92,1.94,1.13c4.57-4.22,7.31-10.16,10.4-15.47c3.08-5.3,6.78-10.67,8.09-16.74
			C197.36,131.93,196.36,131.35,195.7,131.95L195.7,131.95z"/>
	</g>
</g>
<g>
	<g>
		<path class="st0" d="M201.09,143.74c-2.77,5.04-6.17,9.67-7.49,15.34c-0.17,0.73,0.8,1.45,1.35,0.79
			c3.73-4.49,5.36-9.93,7.71-15.2C203.14,143.61,201.67,142.68,201.09,143.74L201.09,143.74z"/>
	</g>
</g>
<g>
	<g>
		<path class="st0" d="M278.66,179.42c11.54,1.49,23.59,0.54,35.23,0.85c11.62,0.32,23.6,1.84,35.2,1.29
			c4.15-0.19,5.59-6.89,1.04-7.67c-11.74-2-24.34-1.58-36.23-1.74c-11.86-0.15-24.34-0.98-36.07,1.04
			C273.98,173.86,275.47,179.01,278.66,179.42L278.66,179.42z"/>
	</g>
</g>
<g>
	<g>
		<path class="st0" d="M273.03,241.76c6.38,3.19,14.49,3.01,21.49,3.32c8.29,0.37,16.57,0.74,24.86,1.1
			c16.53,0.73,33.17,1.95,49.72,1.91c5.48-0.01,5.37-8.07,0-8.44c-16.18-1.11-32.52-1-48.73-1.35c-7.96-0.17-15.91-0.34-23.87-0.52
			c-7.43-0.16-16.2-1.14-23.19,1.78C272.47,239.93,272.01,241.25,273.03,241.76L273.03,241.76z"/>
	</g>
</g>
<g>
	<g>
		<path class="st0" d="M278.44,302.83c-0.96-0.07-1.92-0.13-2.87-0.2c-2.62-0.5-4.05,2.75-1.81,4.28c3.19,2.18,7.32,2.08,11.08,2.48
			c3.96,0.42,7.91,0.74,11.88,1.01c8.91,0.62,17.84,1.09,26.77,1.43c8.6,0.33,17.2,0.44,25.8,0.44c8.42,0,17.65,0.83,25.91-0.88
			c3.86-0.8,4.12-7.49,0-8.07c-8.1-1.14-16.74-0.05-24.92,0.02c-8.93,0.08-17.86,0-26.79-0.13c-8.6-0.12-17.19-0.37-25.78-0.75
			c-4.29-0.19-8.58-0.4-12.87-0.56c-3.88-0.14-7.49-0.72-11.08,0.95c1.07,1.07,2.14,2.14,3.21,3.21c0.6-0.82,1.2-1.64,1.8-2.47
			C279.02,303.33,278.86,302.82,278.44,302.83L278.44,302.83z"/>
	</g>
</g>
<g>
	<g>
		<path class="st0" d="M266.08,369.83c11.89,0.79,23.5,1.63,35.46,1.1c5.57-0.25,11.15-0.53,16.72-0.91
			c4.41-0.3,10.63,0.27,13.05-4.11c0.6-1.09,0.36-2.24-0.41-3.15c-3.03-3.62-8.47-2.07-12.64-1.65c-5.9,0.59-11.8,1.17-17.7,1.69
			c-11.59,1.03-22.97,2.96-34.47,4.44C264.45,367.44,264.36,369.72,266.08,369.83L266.08,369.83z"/>
	</g>
</g>
</svg>
