<?xml version="1.0" encoding="utf-8"?>
<!-- Generator: Adobe Illustrator 27.2.0, SVG Export Plug-In . SVG Version: 6.00 Build 0)  -->
<svg version="1.1" id="Layer_1" xmlns="http://www.w3.org/2000/svg" xmlns:xlink="http://www.w3.org/1999/xlink" x="0px" y="0px"
	 viewBox="0 0 600 600" style="enable-background:new 0 0 600 600;" xml:space="preserve">
<style type="text/css">
	.st0{fill:#E23A2E;}
	.st1{fill:#279847;}
	.st2{fill:#FFFFFF;}
	.st3{fill:#FBBF12;}
	.st4{fill:#336FEA;}
	.st5{fill:#913BD2;}
	.st6{fill:#F8C54A;}
	.st7{fill:#A11414;}
	.st8{fill:#D41F1F;}
	.st9{fill:#6686D1;}
	.st10{fill:#419E6C;}
	.st11{fill:#F5B84E;}
	.st12{fill:#E89634;}
	.st13{fill:#E45656;}
	.st14{fill:#243E80;}
	.st15{fill:#80C9E8;}
	.st16{fill:#5F9D5F;}
	.st17{fill:#68B672;}
</style>
<g>
	<g>
		<path class="st4" d="M116.59,184.18c1.98-7,4.51-13.86,6.84-20.75c-2.04-0.56-4.08-1.12-6.12-1.69
			c-3.34,18.73-4.28,38.19-5.74,57.15c-1.5,19.44-2.74,38.91-3.74,58.38c-2.01,39.29-2.9,78.58-2.61,117.92
			c0.16,22.1,0.24,44.32,1.53,66.39c0.37,6.36,10.08,6.48,9.98,0c-0.56-39-1.82-77.92-1.26-116.94
			c0.55-38.65,1.59-77.27,3.84-115.86c1.28-22,3.99-44.17,4.24-66.2c0.04-3.46-5.73-4.46-6.23-0.84c-1,7.25-1.8,14.57-3.17,21.76
			C113.85,185.09,116.14,185.77,116.59,184.18L116.59,184.18z"/>
	</g>
</g>
<g>
	<g>
		<path class="st4" d="M89.11,455.05c8.95,3.5,19.46,2.83,28.93,3.08c10.3,0.27,20.6,0.47,30.91,0.61
			c20.94,0.27,41.87,0.36,62.81,0.45c41.21,0.19,82.42,0.21,123.63,0.23c23.6,0.01,47.19,0.02,70.79,0.03c5.75,0,5.76-8.93,0-8.93
			c-82.74,0.04-165.52-0.49-248.25,0.59c-11.63,0.15-23.26,0.29-34.9,0.6c-10.97,0.29-23.55-0.85-33.92,3.21
			C89.05,454.94,89.05,455.02,89.11,455.05L89.11,455.05z"/>
	</g>
</g>
<g>
	<g>
		<path class="st4" d="M431.71,457.16c10.29,2,21,2.07,31.44,2.49c10.9,0.44,21.8,0.84,32.7,1.15c5.75,0.16,5.74-8.77,0-8.93
			c-10.9-0.31-21.8-0.52-32.7-0.69c-10.44-0.16-21.06-0.64-31.44,0.76C429.06,452.3,429.2,456.67,431.71,457.16L431.71,457.16z"/>
	</g>
</g>
<g>
	<g>
		<path class="st4" d="M299.39,330.9c-15.91,0-27.97,14.8-30.84,29.62c-3.16,16.31,6.59,31.93,21.39,38.68
			c15.13,6.9,32.37,2.88,42.62-10.29c9.7-12.47,11.47-30.39,1.42-43.2c-5.29-6.73-13.15-11.51-21.52-13.27
			c-7.49-1.57-18.37-1.76-23.64,4.8c-1.49,1.86-0.77,5.53,2.19,5.28c5.67-0.47,10.83-2.63,16.62-2.01c5.6,0.6,11.13,2.94,15.47,6.52
			c9.73,8.03,11.3,21.31,5.39,32.16c-6.15,11.27-18.35,17.53-30.97,14c-12.54-3.51-22.11-14.73-22.88-27.79
			c-0.93-15.75,11.51-28.1,24.84-34.25C299.59,331.1,299.52,330.9,299.39,330.9L299.39,330.9z"/>
	</g>
</g>
<g>
	<g>
		<path class="st4" d="M472.46,166.04c-6.26-7.11-17.53-7.75-26.16-5.54c-9.63,2.47-18,8.9-22.62,17.73
			c-9.41,17.97-4.43,40.34,11.69,52.51c15.46,11.68,37.74,12.65,52.48-0.72c13.45-12.19,18.5-34.45,7.9-50.03
			c-10.42-15.31-36.95-24.1-51.39-9.26c-1.83,1.88,0,5.89,2.77,4.76c12.58-5.11,27.03-5.18,37.45,4.65
			c10.78,10.18,10.03,26.7,1.91,38.3c-8.96,12.8-25.45,15.98-39.32,9.53c-14.59-6.79-23.37-22.84-19.68-38.81
			c2.07-8.94,7.8-16.55,16.25-20.34c9.13-4.1,17.91-2.37,27.17-0.14C472.51,169.07,473.5,167.22,472.46,166.04L472.46,166.04z"/>
	</g>
</g>
<g>
	<g>
		<path class="st4" d="M156.21,401.76c14.5-12.94,27.47-27.73,41.15-41.53c6.65-6.71,13.21-13.49,19.89-20.17
			c3.56-3.56,7.14-7.1,10.74-10.63c2.91-2.84,6.02-5.49,6.15-9.77c0.04-1.39-1.21-2.57-2.57-2.57c-4.27,0-7.06,3.15-9.93,5.99
			c-3.58,3.54-7.14,7.1-10.68,10.68c-6.86,6.94-13.66,13.94-20.24,21.15c-12.98,14.24-26.48,28.7-37.22,44.75
			C152.37,401.37,154.81,403.01,156.21,401.76L156.21,401.76z"/>
	</g>
</g>
<g>
	<g>
		<path class="st4" d="M224.73,320.5c0.86,3.07,3.67,4.28,6.23,5.98c3.84,2.55,7.79,4.96,11.7,7.4c7.53,4.7,15.27,9.15,23.01,13.49
			c7.76,4.35,15.51,8.7,23.27,13.05c4.02,2.26,8.05,4.5,12.08,6.74c3.31,1.84,6.1,3.9,9.96,2.76c1.5-0.44,2.47-2.05,2.04-3.59
			c-1.09-3.87-4.15-5.09-7.47-6.92c-4.04-2.22-8.09-4.42-12.15-6.63c-7.82-4.25-15.63-8.49-23.45-12.74
			c-7.81-4.24-15.71-8.42-23.71-12.29c-4.16-2.01-8.32-4.08-12.53-5.97c-2.81-1.27-5.41-3.07-8.48-2.15
			C224.86,319.74,224.63,320.12,224.73,320.5L224.73,320.5z"/>
	</g>
</g>
<g>
	<g>
		<path class="st4" d="M310.17,366.73c19.81-34.15,38.77-68.81,57.96-103.31c2.53-4.56-4.52-8.66-6.98-4.08
			c-18.7,34.8-37.65,69.49-55.71,104.63C303.83,367.08,308.39,369.8,310.17,366.73L310.17,366.73z"/>
	</g>
</g>
<g>
	<g>
		<path class="st4" d="M360.65,264.35c6.57,7.68,13.69,14.67,20.94,21.7c7.14,6.93,14.01,14.64,21.78,20.86
			c4.32,3.46,9.96-1.88,6.17-6.17c-6.81-7.69-15.13-14.37-22.64-21.37c-7.35-6.85-14.7-13.51-22.66-19.66
			C361.42,257.54,358.62,261.98,360.65,264.35L360.65,264.35z"/>
	</g>
</g>
<g>
	<g>
		<path class="st4" d="M403.26,307.14c12.33-16.56,23.17-34.2,34.15-51.69c10.95-17.45,22.38-34.71,32.74-52.52
			c2.48-4.26-3.88-7.89-6.56-3.83c-11.35,17.19-21.72,35.1-32.48,52.67c-10.77,17.58-21.74,35.11-31.07,53.49
			C398.94,307.44,401.85,309.04,403.26,307.14L403.26,307.14z"/>
	</g>
</g>
</svg>
