<svg width="19" height="18" viewBox="0 0 19 18" fill="none" xmlns="http://www.w3.org/2000/svg">
<path fill-rule="evenodd" clip-rule="evenodd" d="M9.5 1.621C11.905 1.621 12.189 1.632 13.135 1.674C14.014 1.713 14.489 1.86 14.805 1.983C15.223 2.145 15.526 2.342 15.839 2.654C16.155 2.97 16.349 3.269 16.514 3.688C16.637 4.004 16.785 4.483 16.823 5.358C16.865 6.307 16.876 6.592 16.876 8.993C16.876 11.394 16.865 11.682 16.823 12.628C16.784 13.507 16.637 13.982 16.514 14.298C16.3699 14.6882 16.1406 15.0414 15.843 15.332C15.527 15.648 15.228 15.842 14.809 16.007C14.493 16.13 14.014 16.278 13.139 16.316C12.19 16.358 11.905 16.369 9.504 16.369C7.103 16.369 6.815 16.358 5.869 16.316C4.99 16.277 4.515 16.13 4.199 16.007C3.8088 15.8629 3.45559 15.6336 3.165 15.336C2.86625 15.0455 2.6357 14.6924 2.49 14.302C2.367 13.986 2.219 13.507 2.181 12.632C2.139 11.683 2.128 11.398 2.128 8.997C2.128 6.596 2.139 6.308 2.181 5.362C2.22 4.483 2.367 4.008 2.49 3.692C2.652 3.274 2.849 2.971 3.161 2.658C3.477 2.342 3.776 2.148 4.195 1.983C4.511 1.86 4.99 1.712 5.865 1.674C6.811 1.632 7.095 1.621 9.5 1.621ZM9.5 0C7.057 0 6.751 0.011 5.791 0.053C4.835 0.095 4.177 0.25 3.608 0.471C3.00619 0.696935 2.46135 1.05231 2.012 1.512C1.55305 1.96079 1.19776 2.50448 0.971 3.105C0.75 3.678 0.595 4.332 0.553 5.288C0.511 6.251 0.5 6.557 0.5 9C0.5 11.443 0.511 11.749 0.553 12.709C0.595 13.665 0.75 14.323 0.971 14.892C1.19694 15.4938 1.55231 16.0387 2.012 16.488C2.46094 16.9458 3.00467 17.2998 3.605 17.525C4.178 17.746 4.832 17.901 5.788 17.943C6.748 17.985 7.054 17.996 9.497 17.996C11.94 17.996 12.246 17.985 13.206 17.943C14.162 17.901 14.82 17.746 15.389 17.525C15.989 17.2992 16.5326 16.9453 16.982 16.488C17.482 15.989 17.791 15.486 18.019 14.895C18.24 14.322 18.395 13.668 18.437 12.712C18.479 11.752 18.49 11.446 18.49 9.003C18.49 6.56 18.479 6.254 18.437 5.294C18.395 4.338 18.24 3.68 18.019 3.111C17.8023 2.50605 17.4499 1.95874 16.989 1.511C16.5401 1.0532 15.9963 0.69924 15.396 0.474C14.823 0.253 14.169 0.098 13.213 0.056C12.25 0.01 11.944 0 9.5 0ZM9.5 4.377C8.27407 4.37753 7.0985 4.86477 6.23163 5.73163C5.36477 6.5985 4.87753 7.77407 4.877 9C4.87753 10.2259 5.36477 11.4015 6.23163 12.2684C7.0985 13.1352 8.27407 13.6225 9.5 13.623C10.7259 13.6225 11.9015 13.1352 12.7684 12.2684C13.6352 11.4015 14.1225 10.2259 14.123 9C14.1225 7.77407 13.6352 6.5985 12.7684 5.73163C11.9015 4.86477 10.7259 4.37753 9.5 4.377ZM9.5 11.999C9.10149 12.0063 8.70553 11.9341 8.33524 11.7866C7.96495 11.6391 7.62776 11.4193 7.34336 11.1401C7.05897 10.8608 6.83307 10.5277 6.67886 10.1602C6.52465 9.79265 6.44523 9.39808 6.44523 8.9995C6.44523 8.60093 6.52465 8.20635 6.67886 7.83881C6.83307 7.47128 7.05897 7.13815 7.34336 6.8589C7.62776 6.57965 7.96495 6.35987 8.33524 6.2124C8.70553 6.06493 9.10149 5.99272 9.5 6C10.2956 6 11.0587 6.31607 11.6213 6.87868C12.1839 7.44129 12.5 8.20435 12.5 9C12.5 9.79565 12.1839 10.5587 11.6213 11.1213C11.0587 11.6839 10.2956 12 9.5 12V11.999ZM14.306 5.273C14.5922 5.273 14.8666 5.15932 15.069 4.95697C15.2713 4.75462 15.385 4.48017 15.385 4.194C15.385 3.90783 15.2713 3.63338 15.069 3.43103C14.8666 3.22868 14.5922 3.115 14.306 3.115C14.0198 3.115 13.7454 3.22868 13.543 3.43103C13.3407 3.63338 13.227 3.90783 13.227 4.194C13.227 4.48017 13.3407 4.75462 13.543 4.95697C13.7454 5.15932 14.0198 5.273 14.306 5.273Z" fill="black" fill-opacity="0.6"/>
</svg>
