<?xml version="1.0" encoding="utf-8"?>
<!-- Generator: Adobe Illustrator 27.2.0, SVG Export Plug-In . SVG Version: 6.00 Build 0)  -->
<svg version="1.1" id="Layer_1" xmlns="http://www.w3.org/2000/svg" xmlns:xlink="http://www.w3.org/1999/xlink" x="0px" y="0px"
	 viewBox="0 0 600 600" style="enable-background:new 0 0 600 600;" xml:space="preserve">
<style type="text/css">
	.st0{fill:#121212;}
</style>
<g>
	<g>
		<path class="st0" d="M317.16,93.02c-5.03-5.28-17.89,1.2-23.07,4.05c-8.13,4.47-15.23,11.24-19.75,19.36
			c-9.47,17.02-4.78,37.77,9.93,50.2c14.81,12.51,35.55,14.07,51.12,2.02c14.84-11.5,21.88-32.25,13.95-49.8
			c-8.12-17.95-31.82-31.7-50.59-22.13c-2.4,1.22-1.3,5.25,1.38,5.11c14.52-0.78,29.77,3.19,38.48,15.7
			c8.97,12.89,6.17,29.78-4.27,40.97c-10.9,11.69-27.43,13.98-41.01,5.45c-13.81-8.68-20.26-25.02-14.59-40.5
			c3.04-8.3,9.21-15.34,16.54-20.16c3.73-2.45,7.72-4.34,11.98-5.69c3.5-1.11,7.54-0.94,9.9-3.98
			C317.3,93.43,317.33,93.2,317.16,93.02L317.16,93.02z"/>
	</g>
</g>
<g>
	<g>
		<path class="st0" d="M224.47,150.67c-0.33,5.61,7.12,11.88,10.88,15.29c5.48,4.97,11.61,9.37,17.89,13.27
			c12.77,7.92,27.3,13.43,42,16.43c29.85,6.09,60.8,1.18,87.65-13.13c7.32-3.9,14.22-8.53,20.7-13.7
			c6.18-4.93,14.57-10.85,16.3-18.97c0.38-1.8-1.23-3.99-3.24-3.24c-6.36,2.35-10.32,7.8-15.33,12.15
			c-5.27,4.58-10.94,8.66-16.91,12.27c-12.3,7.43-25.77,12.72-39.84,15.64c-27.92,5.79-57.1,1.27-82.28-11.96
			c-7.08-3.72-13.89-7.9-20.2-12.83c-3.2-2.5-6.32-5.12-9.54-7.6c-2.31-1.78-4.52-3.99-7.53-4.15
			C224.7,150.13,224.48,150.4,224.47,150.67L224.47,150.67z"/>
	</g>
</g>
<g>
	<g>
		<path class="st0" d="M224.99,154.6c-0.95-8.09-8.43-12.51-16.24-12.12c-10.05,0.51-16.26,9.13-17.01,18.62
			c-0.91,11.55,5.46,21.43,12.85,29.69c4.16,4.64,8.76,8.92,12.64,13.82c4.16,5.26,6.13,11.32,9.38,17.04
			c1.22,2.14,4.56,1.66,5.2-0.68c2.28-8.3-3.32-16.52-8.27-22.67c-6.02-7.49-13.86-13.53-19.03-21.69
			c-4.23-6.67-6.87-16.76-1.32-23.54c4.37-5.34,14.84-5.01,17.23,2.15C221.21,157.54,225.31,157.34,224.99,154.6L224.99,154.6z"/>
	</g>
</g>
<g>
	<g>
		<path class="st0" d="M412.53,161.78c5.5-3.95,12.15-9.1,19.34-8.37c2.97,0.3,6.28,1.6,7.99,4.18c2.37,3.59,0.4,8.09-1.66,11.28
			c-8.03,12.46-22.95,19.76-35.29,27.1c-11.54,6.87-23.17,14.61-30.57,26.12c-4.75,7.39-12.75,26.09-2.72,32.48
			c0.78,0.5,2.02,0.2,2.45-0.64c1.66-3.25,1.27-6.49,1.38-10.02c0.12-3.76,1.01-7.49,2.4-10.98c2.96-7.44,8.28-13.58,14.33-18.7
			c12.61-10.66,28.2-17.05,41.08-27.37c9.17-7.35,24.36-23.77,12.29-35.23c-10.8-10.24-24.87-1-33.72,6.67
			C407.97,159.93,410.48,163.25,412.53,161.78L412.53,161.78z"/>
	</g>
</g>
<g>
	<g>
		<path class="st0" d="M270.53,246.12c-3.83-7.6-13.78-10.73-21.79-10.25c-9.55,0.57-18.01,5.61-24.07,12.89
			c-11.92,14.3-20.27,41.11-5.17,56.11c7.2,7.15,17.46,10.15,27.25,11.54c10.82,1.53,22.54,0.89,32.05-5.02
			c15.03-9.33,22.88-29.61,16.68-46.43c-3.43-9.32-10.78-17.04-19.75-21.26c-8.67-4.07-20.48-5.22-28.72,0.51
			c-1.45,1.01-1.02,3.48,0.94,3.47c13.3-0.03,27.59,2.64,35.62,14.54c7.72,11.44,5.03,27.29-4.35,36.97
			c-11.46,11.82-32.04,10.72-46.11,4.38c-7.96-3.59-12.91-10.03-13.13-18.93c-0.19-7.99,2.34-16.33,6.07-23.34
			c4.15-7.8,10.42-14.44,19.06-17.01c8.61-2.57,15.94-0.56,23.45,3.81C269.86,248.85,271.16,247.37,270.53,246.12L270.53,246.12z"/>
	</g>
</g>
<g>
	<g>
		<path class="st0" d="M152,288.78c7.99,12.79,19.46,24.03,30.92,33.73c11.09,9.38,23.75,17.03,37.53,21.74
			c13.72,4.69,28.38,6.05,42.59,2.88c7.55-1.69,16.07-5.49,23.91-3.61c3.25,0.78,6.43,2.87,8.23,5.74c1.77,2.83,1.19,5.44,1.33,8.59
			c0.15,3.39,3.84,4.62,6.3,2.61c5.28-4.32,3.26-12.34-0.17-17.13c-3.7-5.16-9.5-8.6-15.78-9.4c-8.4-1.06-16.49,1.72-24.54,3.7
			c-8.29,2.04-16.74,2.49-25.2,1.29c-16.61-2.35-31.5-10.18-44.92-19.91c-13.53-9.8-24.81-22.46-38.56-31.87
			C152.64,286.47,151.39,287.8,152,288.78L152,288.78z"/>
	</g>
</g>
<g>
	<g>
		<path class="st0" d="M158.76,291.81c-3.43-14.83-23.59-13.67-29.86-1.76c-8.52,16.18,4.5,31.85,17.34,40.53
			c8.27,5.59,17.08,10.19,24.78,16.61c6.89,5.74,13.19,12.3,18.54,19.52c11.33,15.29,18.7,33.25,21.19,52.14
			c1.43,10.89,1.28,22.16-0.53,33c-0.95,5.66-2.34,11.22-4.06,16.69c-1.69,5.36-2.52,10.09-3.14,15.64c-0.2,1.8,2.34,2.63,3.48,1.44
			c2.92-3.02,5.23-5.44,6.91-9.38c1.74-4.07,2.99-8.31,4.05-12.6c2.09-8.46,3.28-17.2,3.55-25.91c0.53-17.04-2.59-34.05-9.28-49.73
			c-6.27-14.7-15.31-28.16-26.67-39.41c-5.6-5.55-11.79-10.55-18.37-14.89c-7.63-5.04-16.23-8.77-23.21-14.76
			c-6.76-5.79-12.47-14.59-9.45-23.78c1.45-4.41,5.02-8.39,9.87-8.71c4.53-0.3,8.99,2.21,10.32,6.63
			C155.09,295.97,159.44,294.76,158.76,291.81L158.76,291.81z"/>
	</g>
</g>
<g>
	<g>
		<path class="st0" d="M361.99,306.27c-18.63,0.38-33.56,18.63-34.63,36.46c-1.09,18.19,12.48,36.63,30.28,40.76
			c18.03,4.18,38.24-5.83,45.43-22.96c7.05-16.79,0.42-37.36-14.51-47.53c-15.46-10.54-44.23-7.44-51.67,11.69
			c-1.37,3.54,3.38,5.19,5.7,3.32c10.53-8.51,22.71-15.36,36.49-9.67c12.69,5.25,19.71,20.66,16.63,33.82
			c-3.21,13.71-16.92,23.12-30.75,22.68c-14.3-0.45-26.38-12.52-28.74-26.31c-3.06-17.88,10.86-31.54,26.47-37.02
			C365.43,310.56,365.16,306.2,361.99,306.27L361.99,306.27z"/>
	</g>
</g>
<g>
	<g>
		<path class="st0" d="M308.15,467.58c5.62-3.04,5.37-14.42,5.62-20.03c0.37-8.28,0.07-16.6,1.96-24.73
			c1.84-7.89,5.65-15.18,12.84-19.36c6.58-3.83,14.44-4.73,21.91-5.23c15.22-1.02,29.87-1.92,44.49-6.74
			c14.01-4.62,27.09-11.55,38.75-20.58c6.54-5.06,12.63-10.69,18.08-16.92c4.92-5.61,11.44-12.29,11.86-20.09
			c0.1-1.79-2.03-2.85-3.49-2c-6.15,3.57-9.74,10.87-14.35,16.12c-5,5.69-10.53,10.95-16.48,15.63
			c-12.12,9.52-26.12,16.94-40.85,21.48c-14.91,4.59-29.85,4.38-45.12,6.49c-14.51,2-26.86,8.66-32.18,22.97
			c-3.03,8.15-3.4,17.02-3.47,25.62c-0.04,4.88,0.06,9.78-0.12,14.67c-0.14,4.04-1.84,8.91,0.14,12.62
			C307.84,467.61,308.02,467.65,308.15,467.58L308.15,467.58z"/>
	</g>
</g>
<g>
	<g>
		<path class="st0" d="M464.45,339.11c2.44-8.14,12.67-9.67,16.78-1.76c4.13,7.94-0.74,16.63-6.27,22.4
			c-11.62,12.14-27.25,20.32-40.42,30.62c-12.6,9.85-23.42,21.28-29.52,36.25c-5.42,13.3-7.38,30.23,2.03,42.23
			c2.24,2.85,7.21-0.24,6.05-3.52c-2.35-6.64-4.38-13.02-4.08-20.15c0.31-7.31,2.4-14.62,5.75-21.11
			c7.05-13.66,18.9-23.68,31.09-32.64c12.03-8.85,26.22-16.8,35.96-28.3c7.59-8.97,11.37-24.14,1.47-33.12
			c-7.46-6.77-24.63-2.78-22.9,9.11C460.7,341.29,463.9,340.93,464.45,339.11L464.45,339.11z"/>
	</g>
</g>
<g>
	<g>
		<path class="st0" d="M423.5,283.26c0.31-1.98,0.81-3.89,1.15-5.86c0.26-1.48-1.28-3.14-2.78-2.14
			c-7.97,5.39-9.94,16.59-6.34,25.16c4.03,9.6,14.62,13.6,24.4,11.09c10.15-2.61,17.2-11.71,16.35-22.28
			c-0.86-10.64-8.62-20.44-19.46-21.96c-10.44-1.47-26.34,5.72-26.01,18.02c0.05,1.99,2.8,3.51,4.26,1.77
			c5.81-6.96,11.81-14.83,22.22-12.53c9.65,2.13,15.59,14.03,11.41,23.03c-3.85,8.29-15.86,11.69-23.53,6.75
			c-9.22-5.93-8.14-19.14-1.01-26.08c-1.05-0.28-2.11-0.56-3.16-0.83c0.54,1.97,1.24,3.88,1.75,5.86
			C422.84,283.6,423.44,283.64,423.5,283.26L423.5,283.26z"/>
	</g>
</g>
<g>
	<g>
		<path class="st0" d="M128.91,379.83c-6.1-1.81-12.47,4.7-15.61,9.19c-4.32,6.18-6.5,13.9-5.89,21.43
			c1.3,16.04,14.74,26.99,30.4,27.62c16.02,0.64,29.87-10.1,32.19-26.12c2.2-15.21-5.74-31.49-20.78-36.51
			c-8.07-2.69-17.14-1.7-24.81,1.75c-7.03,3.16-15.1,10.62-14.89,18.98c0.04,1.68,2.08,2.54,3.3,1.37c1.88-1.81,3.16-4,5.09-5.75
			c2.32-2.11,4.82-3.96,7.54-5.52c4.92-2.82,10.41-4.36,16.12-3.95c12.37,0.89,20.56,11.7,20.82,23.65
			c0.27,12.26-7.83,22.41-20.19,23.87c-11.62,1.38-24.25-4.86-27.27-16.73c-1.59-6.26-0.48-13.17,2.32-18.93
			c1.49-3.05,3.59-5.9,5.96-8.33c1.95-1.99,4.29-3.49,5.75-5.91C128.97,379.89,128.95,379.84,128.91,379.83L128.91,379.83z"/>
	</g>
</g>
<g>
	<g>
		<path class="st0" d="M146.99,211.19c-9.46,7.38-7.32,22.79,2.21,29.1c9.53,6.31,24.21,2.67,28.91-7.97
			c4.49-10.16-1.72-23.71-12.72-26.25c-11.55-2.67-25.51,9.51-19.77,21.36c0.89,1.83,3.21,0.66,3.41-0.92
			c0.97-7.63,8.43-16.96,17-12.87c6.56,3.13,9.11,12.81,4.57,18.54c-4.72,5.96-14.8,6.69-20.31,1.47
			c-6.01-5.69-5.97-15.22-3.11-22.35C147.21,211.19,147.06,211.14,146.99,211.19L146.99,211.19z"/>
	</g>
</g>
<g>
	<g>
		<path class="st0" d="M422.82,208.37c7.88-3.32,14.54-8.56,17.31-16.89c0.37-1.11-1.22-2.06-2-1.16c-4.83,5.6-10.19,10.92-17.02,14
			C418.86,205.34,420.5,209.35,422.82,208.37L422.82,208.37z"/>
	</g>
</g>
<g>
	<g>
		<path class="st0" d="M111.16,282.49c-4.56,6.5-7.29,18.59-1.35,25.15c0.79,0.87,2.19,0.15,2.22-0.92
			c0.11-3.73-1.08-7.39-0.95-11.17c0.14-4.07,1.34-8.13,2.91-11.87C114.71,281.97,112.09,281.16,111.16,282.49L111.16,282.49z"/>
	</g>
</g>
</svg>
