<?xml version="1.0" encoding="utf-8"?>
<!-- Generator: Adobe Illustrator 27.2.0, SVG Export Plug-In . SVG Version: 6.00 Build 0)  -->
<svg version="1.1" id="Layer_1" xmlns="http://www.w3.org/2000/svg" xmlns:xlink="http://www.w3.org/1999/xlink" x="0px" y="0px"
	 viewBox="0 0 600 600" style="enable-background:new 0 0 600 600;" xml:space="preserve">
<style type="text/css">
	.st0{fill:#121212;}
</style>
<g>
	<g>
		<path class="st0" d="M337.98,151.15c2.9-8.53-0.88-19.42-6.28-26.15c-6.34-7.9-16.42-12.23-26.54-11.4
			c-9.94,0.82-18.93,6.22-23.87,14.94c-3.42,6.03-7.74,19.71-0.12,24.2c0.36,0.21,0.96,0.11,1.15-0.3c1.37-3,0.93-5.53,0.99-8.78
			c0.08-3.73,0.92-7.42,2.59-10.77c3.85-7.76,11.38-12.63,20-13.22c8.19-0.56,16.13,2.32,21.65,8.47c2.8,3.11,4.55,6.67,6.02,10.56
			c1.54,4.07,1.34,7.85,1.71,12.08C335.42,152.31,337.47,152.66,337.98,151.15L337.98,151.15z"/>
	</g>
</g>
<g>
	<g>
		<path class="st0" d="M281.51,148.09c-38.45,0.67-65.17,35.25-76.71,68.5c-14.85,42.76-9.55,88.81-20.84,132.2
			c-2.79,10.73-6.55,21.24-11.72,31.06c-5.43,10.32-12.62,19.09-20.58,27.53c-2.57,2.73,1.23,6.29,4.03,4.03
			c14.07-11.35,23.17-28.79,29.23-45.52c7.04-19.4,10.3-40.11,12.4-60.57c4.25-41.36,3.96-88.1,30.99-122.44
			c13.25-16.83,31.86-28.63,53.21-31.43C283.59,151.19,283.75,148.05,281.51,148.09L281.51,148.09z"/>
	</g>
</g>
<g>
	<g>
		<path class="st0" d="M336.19,153.54c20.88-1.91,40.42,8,53.86,23.62c13.6,15.79,19.93,36.04,23.49,56.25
			c7.24,41.17,1.53,83.63,14.52,123.94c6.42,19.92,16.26,40.68,30.7,56.07c2.78,2.96,8.19-1,5.74-4.43
			c-12.09-16.96-23.23-33.5-30.05-53.4c-7.31-21.33-9.09-43.66-10.08-66.05c-1.8-40.63-2.54-85.41-31.78-117.22
			c-14.43-15.7-35.32-24.91-56.74-21.33C334.42,151.23,334.73,153.68,336.19,153.54L336.19,153.54z"/>
	</g>
</g>
<g>
	<g>
		<path class="st0" d="M151.62,411.87c8.13,3.73,17.84,4.69,26.65,5.82c9.74,1.25,19.55,1.91,29.36,2.24
			c20.37,0.68,40.77,0.16,61.14-0.3c41.88-0.95,83.76-1.89,125.64-2.84c11.97-0.27,23.93-0.54,35.9-0.81
			c5.65-0.13,11.3-0.26,16.95-0.38c5.32-0.12,11.16,0.76,15.84-2.16c1.1-0.68,1.18-2.37,0-3.04c-3.82-2.15-7.58-1.67-11.86-1.57
			c-5.32,0.12-10.64,0.24-15.95,0.37c-10.3,0.24-20.61,0.47-30.91,0.71c-20.94,0.48-41.88,0.96-62.82,1.44
			c-40.84,0.94-81.67,2.25-122.5,3.09c-11.08,0.23-22.18,0.19-33.25-0.53c-6.11-0.4-12.2-1.01-18.26-1.86
			c-5.13-0.73-10.2-1.97-15.38-2.2C151.13,409.79,150.63,411.41,151.62,411.87L151.62,411.87z"/>
	</g>
</g>
<g>
	<g>
		<path class="st0" d="M261.07,436.53c-2.3,10.98,4.21,23.61,11.49,31.44c8.98,9.65,21.24,15.21,34.45,15.13
			c12.96-0.08,25.98-5.1,35.27-14.23c4.41-4.34,8.16-9.78,10.88-15.31c1.32-2.68,2.58-5.55,3.4-8.44c0.99-3.49,0.35-6.09,0.23-9.62
			c-0.05-1.59-2.18-1.81-2.69-0.36c-0.84,2.34-2.54,4.42-3.42,6.81c-0.95,2.56-1.77,5.1-2.99,7.55c-2.46,4.93-5.63,9.26-9.62,13.05
			c-8.32,7.91-18.66,12.75-30.25,13.03c-10.79,0.26-22.17-3.18-29.95-10.85c-3.85-3.8-7.02-8.34-9.2-13.29
			c-2.13-4.82-2.62-9.85-3.86-14.9C264.36,434.73,261.46,434.65,261.07,436.53L261.07,436.53z"/>
	</g>
</g>
<g>
	<g>
		<path class="st0" d="M262.2,436.45c4.06,0.34,7.81,1.26,11.91,1.29c3.64,0.02,7.28-0.03,10.92-0.04
			c7.61-0.03,15.22-0.23,22.84-0.37c7.28-0.14,14.56-0.28,21.84-0.43c7.39-0.14,15.12,0.33,22.44-0.8c2.7-0.42,1.68-4.13-0.59-4.39
			c0.72,0.55,1.44,1.09,2.15,1.64c-0.14-1.04-1.26-1.54-2.15-1.64c-7.12-0.82-14.67-0.01-21.84,0.13
			c-7.61,0.15-15.22,0.3-22.84,0.44c-7.28,0.14-14.56,0.24-21.84,0.5c-3.64,0.13-7.28,0.22-10.92,0.38
			c-4.13,0.18-7.82,1.25-11.91,1.75C261.22,435.02,261.19,436.36,262.2,436.45L262.2,436.45z"/>
	</g>
</g>
<g>
	<g>
		<path class="st0" d="M275.81,445.32c0.74,11.93,15.29,27.81,28.07,22.39c0.49-0.21,0.43-0.99,0-1.21
			c-4.89-2.6-10.43-3.67-14.95-7.03c-5.08-3.77-8.4-9.04-10.9-14.75C277.56,443.62,275.73,444.18,275.81,445.32L275.81,445.32z"/>
	</g>
</g>
<g>
	<g>
		<path class="st0" d="M310,469.21c1.94,0.44,4.07,0.61,6.01,0.1c1.73-0.45,3.9-1.78,3.67-3.85c-0.19-1.62-2.22-2.08-3.59-1.8
			c-1.89,0.38-3.54,1.14-5.51,1.2C308.18,464.93,307.48,468.64,310,469.21L310,469.21z"/>
	</g>
</g>
<g>
	<g>
		<path class="st0" d="M224.66,229.02c3.07-5.99,4.95-12.58,7.33-18.87c1.98-5.23,6.69-12.17,5.77-17.88
			c-0.12-0.75-1.12-1.04-1.7-0.69c-4.91,2.88-6.7,11.41-8.22,16.48c-2.02,6.71-3.78,13.88-3.26,20.94
			C224.57,229.04,224.63,229.07,224.66,229.02L224.66,229.02z"/>
	</g>
</g>
<g>
	<g>
		<path class="st0" d="M255.18,175.8c3.86-3.52,8.58-6.48,13.24-8.84c4-2.03,8.5-2.85,12.05-5.67c0.63-0.51,0.24-1.58-0.47-1.76
			c-10.13-2.63-20.98,7.74-26.47,15C252.77,175.51,254.34,176.57,255.18,175.8L255.18,175.8z"/>
	</g>
</g>
<g>
	<g>
		<path class="st0" d="M290.99,152.71c1.33-1.26,1.06-2.07,1.18-3.99c0.23-3.76,0.82-7.19,2.7-10.52c1.53-2.71,3.81-5,6.43-6.67
			c2.46-1.56,5.39-2.15,7.69-3.91c0.77-0.59,0.8-1.9-0.29-2.18c-6.5-1.71-13.73,4.98-16.8,10.1c-2.08,3.46-6.42,14.95-0.96,17.18
			C290.96,152.73,290.98,152.73,290.99,152.71L290.99,152.71z"/>
	</g>
</g>
</svg>
