<?xml version="1.0" encoding="utf-8"?>
<!-- Generator: Adobe Illustrator 27.2.0, SVG Export Plug-In . SVG Version: 6.00 Build 0)  -->
<svg version="1.1" id="Layer_1" xmlns="http://www.w3.org/2000/svg" xmlns:xlink="http://www.w3.org/1999/xlink" x="0px" y="0px"
	 viewBox="0 0 600 600" style="enable-background:new 0 0 600 600;" xml:space="preserve">
<style type="text/css">
	.st0{fill:#121212;}
	.st1{fill:#E23A2E;}
	.st2{fill:#279847;}
	.st3{fill:#FBBF12;}
	.st4{fill:#336FEA;}
	.st5{fill:#913BD2;}
	.st6{fill:#F8C54A;}
	.st7{fill:#A11414;}
	.st8{fill:#D41F1F;}
	.st9{fill:#6686D1;}
	.st10{fill:#419E6C;}
	.st11{fill:#F5B84E;}
	.st12{fill:#E89634;}
	.st13{fill:#E45656;}
	.st14{fill:#243E80;}
	.st15{fill:#80C9E8;}
	.st16{fill:#5F9D5F;}
	.st17{fill:#68B672;}
</style>
<g>
	<g>
		<path class="st0" d="M175.44,322.41c-15-4.61-28.62,11.46-30.9,24.82c-2.67,15.65,7.35,29.81,21.81,35.2
			c14.61,5.45,30.49-0.45,38.18-13.97c7.32-12.88,6.31-30.2-5.34-40.23c-6.21-5.34-14.34-8.23-22.51-8.3
			c-7.05-0.06-16.59,3.2-19.59,10.24c-0.68,1.6,0.44,3.44,2.3,3c2.28-0.54,4.28-1.67,6.56-2.19c2.51-0.57,5.13-0.87,7.69-1.08
			c5.28-0.42,10.49,0.34,15.19,2.89c9.66,5.24,12.93,16.14,9.62,26.33c-3.45,10.65-13.44,17.93-24.78,15.98
			c-10.69-1.84-20.6-10.85-21.13-22.07c-0.68-14.59,11.41-23.93,22.98-29.98C175.8,322.91,175.72,322.5,175.44,322.41L175.44,322.41
			z"/>
	</g>
</g>
<g>
	<g>
		<path class="st0" d="M286.48,208.37c-3.13,1.09-5.74,1.5-8.41,3.61c-2.9,2.3-5.33,5.16-7.26,8.32
			c-3.86,6.33-5.31,13.84-4.52,21.18c1.72,15.81,16.12,25.88,31.34,26.38c15.78,0.52,29.38-10.05,32.41-25.6
			c2.93-15.1-3.73-31.65-18.33-37.92c-8.07-3.47-17.55-3.62-25.82-0.67c-7.52,2.68-16.74,8.33-17.1,17.22
			c-0.1,2.54,2.91,4.15,5.03,2.88c4.53-2.71,7.71-7.03,12.5-9.45c4.94-2.5,10.82-3.45,16.29-2.56c11.64,1.88,18.77,12.2,18.77,23.64
			c0,11.74-7.56,21.54-19.32,23.46c-11.29,1.84-23.4-3.72-27.99-14.45c-2.58-6.03-2.33-12.68-0.4-18.87
			c1.98-6.33,6.9-13.83,12.83-17.1C286.57,208.44,286.53,208.36,286.48,208.37L286.48,208.37z"/>
	</g>
</g>
<g>
	<g>
		<path class="st0" d="M421.61,307.43c-0.26-5.83-9.88-5.8-13.86-4.98c-7.06,1.45-12.9,6.34-16.33,12.57
			c-7.06,12.84-4.08,28.76,5.75,39.29c10.09,10.81,26.06,12.93,38.73,5.39c12.32-7.34,19.37-22.5,13.82-36.28
			c-2.97-7.37-8.84-13.43-16.05-16.75c-5.94-2.73-15.8-4.82-20.21,1.51c-0.81,1.16-0.27,3.13,0.98,3.75
			c5.21,2.57,11.34,1.32,16.64,4.4c4.96,2.89,9.08,7.79,10.37,13.45c2.9,12.72-9.43,24.68-21.63,25.14
			c-13.17,0.5-24.13-12.22-24.8-24.76c-0.38-7.07,2.48-14.7,8.31-18.99c3.28-2.41,7.2-3.26,11.21-3.24c2.34,0.01,4.9,0.72,7.03-0.47
			C421.6,307.48,421.61,307.46,421.61,307.43L421.61,307.43z"/>
	</g>
</g>
<g>
	<g>
		<path class="st0" d="M178.13,103.21c-0.55,4.73-3.06,8.14-3.41,12.91c-0.34,4.63-0.46,9.27-0.65,13.9
			c-0.39,9.6-0.77,19.2-1.16,28.8c-0.75,18.53-1.37,37.07-2.03,55.6c-0.66,18.53-1.26,37.07-1.82,55.6
			c-0.28,9.27-0.56,18.53-0.84,27.8c-0.14,4.63-0.28,9.27-0.42,13.9c-0.14,4.75-1.07,9.64,1.31,13.92c1.49,2.69,5.31,2.45,6.86,0
			c2.29-3.62,1.83-7.77,1.94-11.93c0.12-4.63,0.25-9.27,0.37-13.9c0.25-9.27,0.5-18.53,0.75-27.8c0.51-18.87,0.98-37.73,1.39-56.6
			c0.4-18.53,0.84-37.07,1.16-55.6c0.16-9.27,0.31-18.53,0.47-27.8c0.08-4.63,0.23-9.27,0.21-13.9c-0.01-1.91,0.21-4.05-0.22-5.92
			c-0.69-3.06-2.29-5.71-2.49-8.97C179.48,102.29,178.23,102.33,178.13,103.21L178.13,103.21z"/>
	</g>
</g>
<g>
	<g>
		<path class="st0" d="M173.85,381.55c-1.7,20.83-0.89,42.12-0.92,63c-0.01,10.5-0.05,21-0.1,31.5c-0.03,5.25-0.06,10.5-0.08,15.75
			c-0.02,4.59-0.52,8.59,3.23,11.86c1.2,1.05,2.82,1.09,4.03,0c3.69-3.33,3.15-7.27,3.04-11.86c-0.13-5.25-0.26-10.5-0.38-15.75
			c-0.26-10.5-0.49-21-0.7-31.5c-0.42-20.89-0.02-42.2-2.12-63C179.45,377.73,174.16,377.67,173.85,381.55L173.85,381.55z"/>
	</g>
</g>
<g>
	<g>
		<path class="st0" d="M297.91,109.98c0.16-1.32,0.32-2.63,0.5-3.95c3.63-4.52-4.37-8.04-5.49-3.2c-1.93,8.36-1.36,18.03-1.56,26.6
			c-0.21,8.91-0.34,17.81-0.5,26.72c-0.17,8.91-0.28,17.81-0.36,26.72c-0.04,4.62-0.08,9.24-0.13,13.86
			c-0.04,4.12-0.56,7.4,2.4,10.61c1.37,1.49,4.02,1.45,5.39,0c2.99-3.17,2.49-6.51,2.5-10.61c0.01-4.62,0.03-9.24,0.04-13.86
			c0.03-8.91,0.02-17.81-0.03-26.72c-0.06-8.91-0.08-17.81-0.17-26.72c-0.09-8.58,0.59-18.21-1.24-26.6
			c-1.61,1.24-3.22,2.47-4.83,3.71c0.66,0.36,1.94,2.86,2.43,3.72C297.17,110.8,297.85,110.5,297.91,109.98L297.91,109.98z"/>
	</g>
</g>
<g>
	<g>
		<path class="st0" d="M294.65,262.11c-1.63,4.63-1.3,9.5-1.38,14.35c-0.08,4.63-0.16,9.26-0.25,13.9
			c-0.2,9.93-0.05,19.85-0.02,29.78c0.04,19.52,0,39.05-0.12,58.58c-0.12,19.53-0.4,39.05-0.84,58.57
			c-0.23,9.93-0.44,19.85-0.68,29.78c-0.23,9.83-1.29,19.97-0.54,29.77c0.48,6.2,9.86,6.38,9.79,0c-0.04-4.18-0.79-8.06-1.22-12.19
			c-0.28-2.7-4.03-3.51-4.9-0.66c-1.2,3.91-2.66,7.54-3.49,11.56c3.15,0.87,6.29,1.74,9.44,2.6c1.31-9.56,0.95-19.45,1.17-29.09
			c0.22-9.93,0.41-19.85,0.51-29.78c0.19-19.85,0.27-39.71,0.25-59.57c-0.02-19.86-0.25-39.71-0.65-59.57
			c-0.2-9.93-0.35-19.86-0.91-29.78c-0.26-4.63-0.53-9.26-0.81-13.9c-0.29-4.86-0.17-9.79-2.03-14.35
			C297.34,260.55,295.25,260.42,294.65,262.11L294.65,262.11z"/>
	</g>
</g>
<g>
	<g>
		<path class="st0" d="M414.13,102.87c-1.67,3.13-1.42,6.82-1.59,10.33c-0.19,3.96-0.13,7.92-0.14,11.88
			c-0.04,8.58,0.32,17.19,0.68,25.76c0.74,17.51,1.45,35.02,1.94,52.54c0.48,17.19,0.9,34.39,1.09,51.59
			c0.09,8.6,0.15,17.2,0.15,25.8c0,4.3,0,8.6-0.02,12.9c-0.01,1.62-0.37,3.65,0.15,5.24c0.62,1.9,2.1,2.52,3.29,3.99
			c0.58,0.72,2,0.7,2.59,0c1.07-1.28,2.37-1.88,3.11-3.42c0.81-1.7,0.43-3.99,0.44-5.81c0.02-3.97,0.04-7.94,0.04-11.91
			c0.01-8.6-0.03-17.2-0.11-25.8c-0.16-17.53-0.45-35.06-1.03-52.58c-0.56-17.19-1.35-34.38-2.29-51.55
			c-0.47-8.58-1.06-17.24-2.14-25.76c-0.5-3.91-0.9-7.86-1.52-11.75c-0.59-3.72-0.96-8.37-3.19-11.45
			C415.24,102.38,414.45,102.26,414.13,102.87L414.13,102.87z"/>
	</g>
</g>
<g>
	<g>
		<path class="st0" d="M413.75,367.97c-0.5,22.2,2.33,44.57,2.77,66.78c0.44,22.36-0.38,44.6-1.75,66.92c-0.38,6.23,9.37,6.23,9.7,0
			c1.2-22.58,1.16-45.31,0.46-67.9c-0.68-21.93-1.02-45.05-6.19-66.47C418.06,364.46,413.82,365.15,413.75,367.97L413.75,367.97z"/>
	</g>
</g>
<g>
	<g>
		<path class="st0" d="M164.62,342.1c-3.68,6.5-2.26,14.9,3.51,19.75c5.65,4.74,15.44,4.83,20.54-0.85
			c2.27-2.52-0.65-6.87-3.77-4.89c-3.98,2.52-8.51,4.36-13.06,1.83c-4.79-2.67-6.09-9.19-4-13.96
			C168.78,341.84,165.83,339.96,164.62,342.1L164.62,342.1z"/>
	</g>
</g>
<g>
	<g>
		<path class="st0" d="M280.85,229.21c-2.57,7.16,1.76,15.4,8.5,18.41c3.23,1.45,6.9,1.72,10.34,0.97c4.14-0.89,6.05-2.84,7.43-6.57
			c0.38-1.02-0.78-2.1-1.77-1.77c-3.97,1.32-9.07,3.24-13.17,1.69c-5.14-1.94-6.96-7.11-7.12-12.16
			C284.99,227.29,281.66,226.96,280.85,229.21L280.85,229.21z"/>
	</g>
</g>
<g>
	<g>
		<path class="st0" d="M405.48,325.98c-2.65,14.25,13.3,23.88,25.46,17.58c2.85-1.48,0.83-6.55-2.23-5.28
			c-9.9,4.11-18.87-1.33-20.19-11.89C408.32,324.83,405.83,324.09,405.48,325.98L405.48,325.98z"/>
	</g>
</g>
</svg>
