<?xml version="1.0" encoding="utf-8"?>
<!-- Generator: Adobe Illustrator 27.2.0, SVG Export Plug-In . SVG Version: 6.00 Build 0)  -->
<svg version="1.1" id="Layer_1" xmlns="http://www.w3.org/2000/svg" xmlns:xlink="http://www.w3.org/1999/xlink" x="0px" y="0px"
	 viewBox="0 0 600 600" style="enable-background:new 0 0 600 600;" xml:space="preserve">
<style type="text/css">
	.st0{fill:#121212;}
</style>
<g>
	<g>
		<path class="st0" d="M172.27,111.01c-3.13,11.97-3.15,24.53-3.77,36.81c-0.65,12.93-0.95,25.86-1.26,38.8
			c-0.6,25.21-1.07,50.41-1.14,75.62c-0.13,51.08,0.6,102.15,1.85,153.22c0.36,14.59,0.72,29.17,1.17,43.75
			c0.23,7.29,0.49,14.58,0.79,21.87c0.29,6.97-0.21,14.27,2.12,20.89c1.18,3.36,6.35,3.85,7.32,0c1.5-5.96,0.76-11.81,0.49-17.91
			c-0.29-6.63-0.57-13.26-0.87-19.88c-0.6-12.92-1.14-25.85-1.64-38.78c-0.97-25.19-1.59-50.4-2.1-75.6
			c-1.02-51.07-1.25-102.16-1.13-153.24c0.03-14.59,0.31-29.19,0.2-43.78c-0.11-13.86,0.79-28.14-1.96-41.79
			C172.33,110.97,172.28,110.97,172.27,111.01L172.27,111.01z"/>
	</g>
</g>
<g>
	<g>
		<path class="st0" d="M167.75,112.87c18.37,2.17,37.13,2.34,55.62,2.89c18.87,0.56,37.74,0.92,56.61,1.38
			c37.41,0.91,74.82,1.83,112.23,2.64c21.19,0.46,42.38,0.92,63.56,1.37c5.43,0.12,5.43-8.34,0-8.44
			c-74.82-1.41-149.63-2.68-224.46-3.87c-21.09-0.34-42.53-1.12-63.56,0.51C165.46,109.53,165.53,112.6,167.75,112.87L167.75,112.87
			z"/>
	</g>
</g>
<g>
	<g>
		<path class="st0" d="M459.01,115.76c-2.84,9.06-2.62,19.65-3.06,29.08c-0.48,10.3-0.76,20.61-1.02,30.93
			c-0.53,20.95-1.35,41.91-1.5,62.86c-0.29,41.24,0.07,82.49,0.99,123.72c0.26,11.64,0.57,23.27,0.93,34.91
			c0.18,5.98,0.38,11.97,0.59,17.95c0.19,5.47-0.15,10.78,2.38,15.75c1.53,3.01,5.45,1.73,6.49-0.85c1.8-4.49,1.12-9.17,0.91-13.9
			c-0.24-5.32-0.47-10.64-0.69-15.95c-0.42-10.3-0.81-20.61-1.16-30.92c-0.69-20.61-1.25-41.23-1.62-61.85
			c-0.74-41.22-1.35-82.51-1.05-123.73c0.08-11.31,0.32-22.61,0.33-33.92c0.01-11,1.21-23.32-1.43-34.06
			C459.96,115.2,459.17,115.25,459.01,115.76L459.01,115.76z"/>
	</g>
</g>
<g>
	<g>
		<path class="st0" d="M397.8,498c6.86-1.45,13.72-7.76,19.14-12.04c6.19-4.89,12.09-10.16,17.65-15.76
			c11.03-11.11,21.32-23.84,28.87-37.61c2.52-4.59-4.19-8.48-7-4.09c-8.38,13.09-17.16,25.51-27.93,36.79
			c-5.26,5.5-10.83,10.71-16.7,15.56c-5.27,4.36-12.56,8.31-16.59,13.83C393.98,496.4,396.05,498.37,397.8,498L397.8,498z"/>
	</g>
</g>
<g>
	<g>
		<path class="st0" d="M170.94,501.27c3.61,2.04,8.09,2.04,12.16,2.38c4.65,0.38,9.31,0.53,13.98,0.56
			c9.32,0.07,18.64-0.1,27.96-0.15c19.3-0.1,38.61-0.5,57.91-0.82c38.61-0.64,77.21-1.4,115.82-2.16c5.74-0.11,5.76-9.04,0-8.93
			c-38.61,0.72-77.21,1.44-115.82,2.27c-19.3,0.42-38.61,0.76-57.91,1.39c-9.32,0.31-18.64,0.5-27.96,0.92
			c-4.67,0.21-9.33,0.54-13.98,1.1c-4.03,0.48-8.66,0.67-12.16,2.83C170.72,500.8,170.71,501.14,170.94,501.27L170.94,501.27z"/>
	</g>
</g>
<g>
	<g>
		<path class="st0" d="M396.07,415.68c-1.78,3.03-2.11,4.25-2.25,7.84c-0.14,3.58-0.3,7.16-0.43,10.75
			c-0.26,7.47-0.3,14.99-0.23,22.47c0.07,7.16,0.19,14.33,0.35,21.49c0.15,6.74-1,15.27,1.94,21.44c1.55,3.25,5.8,1.78,6.88-0.9
			c2.33-5.84,0.58-14.31,0.33-20.54c-0.31-7.49-0.63-14.99-1.05-22.47c-0.41-7.16-0.9-14.36-1.6-21.49
			c-0.35-3.58-0.74-7.17-1.11-10.75c-0.41-3.95-0.54-4.57-2.74-7.84C396.14,415.65,396.09,415.64,396.07,415.68L396.07,415.68z"/>
	</g>
</g>
<g>
	<g>
		<path class="st0" d="M397.91,420.24c8.91-3.45,17.63-5.68,27.28-5.13c4.41,0.25,8.74,2.12,13.09,2.18c2.41,0.03,4.72-1.1,4.68-3.8
			c-0.02-1.34-0.72-2.7-1.93-3.36c-13.07-7.1-33.67-3.48-45.38,4.78C393.17,416.66,394.6,421.52,397.91,420.24L397.91,420.24z"/>
	</g>
</g>
<g>
	<g>
		<path class="st0" d="M219.63,185.54c-1.49-0.07-2.98-0.17-4.48-0.22c-4.34-0.14-4.26,7.02,0,6.68c28.3-2.26,57.16-1.79,85.24,2.54
			c5.67,0.87,8.11-7.8,2.39-8.68c-29.55-4.56-58.96-5.04-88.52-0.42c0.59,2.15,1.18,4.29,1.78,6.44c1.42-0.48,2.83-1,4.24-1.5
			C222.88,189.46,222.47,185.68,219.63,185.54L219.63,185.54z"/>
	</g>
</g>
<g>
	<g>
		<path class="st0" d="M344.06,194.14c2.56,3.25,7.91,1.66,11.6,1.6c5.72-0.09,11.45-0.11,17.17,0.06c5.4,0.16,10.82,0.4,16.21,0.83
			c4.57,0.36,9.33,1.74,12.94-1.79c0.67-0.66,0.84-1.83,0.34-2.64c-2.57-4.15-6.93-4.01-11.37-4.37
			c-6.03-0.48-12.06-0.73-18.11-0.62c-5.75,0.11-11.46,0.45-17.17,1.14c-3.85,0.47-9.96-0.15-11.85,3.83
			C343.46,192.9,343.58,193.52,344.06,194.14L344.06,194.14z"/>
	</g>
</g>
<g>
	<g>
		<path class="st0" d="M226.32,263.32c-2.75,0.65-5.46,0.43-8.24,0.67c-2.45,0.21-2.96,3.45-0.58,4.28
			c6.88,2.4,15.89,1.61,23.11,1.66c7.52,0.05,16.3,1.15,23.61-0.74c3.78-0.98,3.99-7.01,0-7.86c-7.41-1.59-16.07-0.18-23.61,0.17
			c-7.24,0.34-16.32-0.1-23.11,2.57c0.56,1.33,1.12,2.66,1.68,3.98c2.41-1.56,4.53-3.47,7.16-4.67
			C226.38,263.36,226.36,263.31,226.32,263.32L226.32,263.32z"/>
	</g>
</g>
<g>
	<g>
		<path class="st0" d="M294.16,264.57c2.67,2.89,6.99,2.09,10.66,2.24c4.59,0.18,9.18,0.21,13.78,0.23
			c9.84,0.05,19.68-0.09,29.52-0.21c19.68-0.24,39.36-0.47,59.04-0.79c5.29-0.09,5.3-8.31,0-8.23c-19.68,0.32-39.36,0.73-59.04,1.13
			c-9.84,0.2-19.68,0.38-29.52,0.75c-4.6,0.17-9.19,0.35-13.78,0.68c-3.66,0.26-8.09-0.41-10.66,2.56
			C293.74,263.41,293.71,264.08,294.16,264.57L294.16,264.57z"/>
	</g>
</g>
<g>
	<g>
		<path class="st0" d="M210.84,338.55c11.38,2.7,24.5,0.78,36.1,0.44c12.55-0.37,25.13-0.63,37.66-1.42c5.42-0.34,5.5-8.71,0-8.5
			c-12.57,0.48-25.12,1.49-37.66,2.39c-5.95,0.43-11.9,0.78-17.84,1.31c-6.06,0.54-12.47,0.74-18.26,2.74
			C209.44,335.98,209.22,338.17,210.84,338.55L210.84,338.55z"/>
	</g>
</g>
<g>
	<g>
		<path class="st0" d="M323.42,340.01c14.5,0.79,29.26-1.05,43.79-1.36c7.02-0.15,14.05-0.06,21.06,0.28
			c3.83,0.18,7.65,0.44,11.47,0.76c3.45,0.29,5.35,0.61,7.93-1.82c0.92-0.87,1.28-2.71,0.49-3.79c-3.7-5.08-12.24-3.8-17.98-4.05
			c-7.65-0.33-15.32-0.38-22.97-0.14c-14.59,0.45-30.57,1.75-44.18,7.29C321.57,337.77,321.71,339.91,323.42,340.01L323.42,340.01z"
			/>
	</g>
</g>
<g>
	<g>
		<path class="st0" d="M389.85,418.91c-2.39,8.67-4.81,17.34-7.11,26.04c-2.13,8.03-5.05,16.19-5.85,24.47
			c-0.05,0.54,0.82,0.78,1.05,0.28c3.42-7.56,4.95-16.12,7.09-24.12c2.33-8.69,4.54-17.41,6.79-26.13
			C392.15,418.18,390.2,417.65,389.85,418.91L389.85,418.91z"/>
	</g>
</g>
<g>
	<g>
		<path class="st0" d="M392.6,435.52c-1.92,6.65-3.62,13.26-5.1,20.02c-1.33,6.09-3.38,12.45-3.39,18.71c0,0.88,1.37,1.37,1.77,0.48
			c2.55-5.71,3.32-12.28,4.61-18.37c1.44-6.8,2.61-13.56,3.6-20.43C394.23,434.97,392.89,434.53,392.6,435.52L392.6,435.52z"/>
	</g>
</g>
<g>
	<g>
		<path class="st0" d="M393.98,461.82c-3.27,7.56-7.43,15.88-8.18,24.16c-0.1,1.12,1.44,1.32,1.97,0.53
			c4.52-6.74,6.57-15.92,8.72-23.63C396.89,461.43,394.61,460.36,393.98,461.82L393.98,461.82z"/>
	</g>
</g>
</svg>
