<?xml version="1.0" encoding="utf-8"?>
<!-- Generator: Adobe Illustrator 27.2.0, SVG Export Plug-In . SVG Version: 6.00 Build 0)  -->
<svg version="1.1" id="Layer_1" xmlns="http://www.w3.org/2000/svg" xmlns:xlink="http://www.w3.org/1999/xlink" x="0px" y="0px"
	 viewBox="0 0 600 600" style="enable-background:new 0 0 600 600;" xml:space="preserve">
<style type="text/css">
	.st0{fill:#121212;}
</style>
<g>
	<g>
		<path class="st0" d="M433.28,176.87c26.76,15.21,42.07,42.46,44.74,72.86c2.82,32.12-10.68,63.42-31.19,87.59
			c-23.02,27.13-54.19,45.53-86.74,59.03c-35.26,14.62-72.43,25.29-109.36,34.76c-21.59,5.54-43.35,10.33-65.25,14.46
			c-10.64,2-21.31,3.84-32,5.54c-11.14,1.77-23.03,2.4-33.72,6.01c-3.72,1.25-3,6.52,0.92,6.77c10.14,0.64,20.48-1.76,30.49-3.34
			c10.37-1.64,20.7-3.52,31-5.52c20.62-3.99,41.11-8.59,61.49-13.68c39.24-9.79,78.58-21.16,116.04-36.52
			c33.66-13.8,66.19-32.15,90.43-59.81c21.55-24.58,36.83-56.36,35.42-89.65c-1.38-32.6-19.58-67.86-50.51-81.47
			C433.04,173.02,431.3,175.74,433.28,176.87L433.28,176.87z"/>
	</g>
</g>
<g>
	<g>
		<path class="st0" d="M342.89,181.3c8.42,6.36,16.46,11.3,22.16,20.57c5.13,8.35,8.28,17.9,8.82,27.7
			c1.26,22.6-10.66,44.08-26.63,59.28c-17.14,16.32-39.43,26.24-61.6,33.7c-24.4,8.21-49.67,14.22-75.18,17.71
			c-14.46,1.98-29.04,3.04-43.62,3.59c-14.82,0.55-29.54-0.44-44.35-0.43c-5.65,0-5.25,7.81,0,8.51c14.23,1.88,29.08,1.46,43.4,0.96
			c14.23-0.5,28.41-1.91,42.5-3.92c27.8-3.96,55.26-10.31,81.77-19.63c23.31-8.19,46.41-19.16,63.88-37.07
			c16.03-16.44,27.7-39.21,25.77-62.69c-0.92-11.15-4.61-22.29-11.12-31.44c-5.86-8.24-14.86-17.27-25.36-18.48
			C342.36,179.55,342.29,180.85,342.89,181.3L342.89,181.3z"/>
	</g>
</g>
<g>
	<g>
		<path class="st0" d="M388.13,177.62c1.44,5.18,8.48,8.82,12.6,11.82c4.25,3.1,9.73,9.21,15.37,8.11c0.92-0.18,1.26-1.18,1.13-1.99
			c-0.88-5.37-8.38-8.36-12.48-11.1c-4.33-2.89-10.24-8.42-15.73-7.99C388.43,176.51,387.97,177.01,388.13,177.62L388.13,177.62z"/>
	</g>
</g>
<g>
	<g>
		<path class="st0" d="M429.07,219.61c-1.63,4.42,1.46,10.92,2.49,15.39c1.48,6.45,2.33,12.92,3.04,19.49
			c0.21,1.95,1.49,3.63,3.63,3.63c0.33,0,0.65-0.06,0.96-0.13c1.42-0.29,2.82-2.01,2.66-3.5c-0.69-6.85-2.1-13.64-3.95-20.27
			c-1.27-4.53-3-12.82-7.44-15.19C429.89,218.74,429.29,219.03,429.07,219.61L429.07,219.61z"/>
	</g>
</g>
<g>
	<g>
		<path class="st0" d="M428.69,279.65c-4.39,5.17-8.31,10.75-12.33,16.21c-3.69,5.01-8.3,9.84-8.77,16.25
			c-0.11,1.49,1.57,2.06,2.7,1.55c5.58-2.53,8.47-8.42,11.75-13.35c3.78-5.67,7.71-11.32,11.07-17.25
			C434.63,280.37,430.82,277.14,428.69,279.65L428.69,279.65z"/>
	</g>
</g>
<g>
	<g>
		<path class="st0" d="M377.5,341.38c-6.14,1.88-11.86,5.04-17.38,8.3c-5.23,3.08-12.61,6.12-16.5,10.8
			c-1.54,1.85-0.13,4.82,2.43,4.17c5.95-1.51,11.78-6.8,16.85-10.23c5.34-3.61,10.73-7.45,15.09-12.21
			C378.3,341.85,377.99,341.23,377.5,341.38L377.5,341.38z"/>
	</g>
</g>
<g>
	<g>
		<path class="st0" d="M249.9,396.05c8.96-2.44,17.95-4.56,26.8-7.44c4.41-1.44,8.84-2.84,13.24-4.31c3.32-1.11,6.29-1.78,8.24-4.83
			c0.67-1.05-0.02-2.32-1.09-2.69c-3.75-1.28-7.2,0.64-10.74,1.96c-4.36,1.63-8.73,3.23-13.08,4.89
			c-8.25,3.13-16.15,6.89-24.23,10.37C247.84,394.51,248.7,396.38,249.9,396.05L249.9,396.05z"/>
	</g>
</g>
<g>
	<g>
		<path class="st0" d="M171.16,410.07c7.9,0.52,16.06-0.89,23.88-1.92c3.82-0.5,7.64-0.99,11.46-1.51c3.03-0.41,5.2-0.3,6.54-3.34
			c0.4-0.92,0.31-1.7-0.32-2.47c-1.86-2.27-3.44-2-6.25-1.61c-4.14,0.56-8.26,1.2-12.39,1.8c-7.81,1.13-16.04,1.98-23.51,4.63
			C168.16,406.51,168.58,409.9,171.16,410.07L171.16,410.07z"/>
	</g>
</g>
<g>
	<g>
		<path class="st0" d="M112.47,414.23c5.18,0.03,10.3-0.18,15.46-0.68c3.81-0.37,8.51-0.11,11.05-3.31c0.85-1.07,0.7-2.28-0.4-3.09
			c-3.32-2.46-7.74-0.96-11.56-0.31c-5.11,0.87-10.1,2-15.09,3.39C109.71,410.84,110.15,414.21,112.47,414.23L112.47,414.23z"/>
	</g>
</g>
<g>
	<g>
		<path class="st0" d="M237.51,185.34c-0.97-1.46-4.02-4.64-3.29-6.6c0.95-2.56-3.74-3.6-3.89-0.53
			c-1.34,27.31-0.6,54.79,1.01,82.07c0.8,13.5,1.8,26.98,3,40.45c0.59,6.57,1.22,13.13,1.9,19.69c0.71,6.8,0.97,13.94,2.71,20.57
			c0.98,3.75,6.64,2.92,6.7-0.91c0.1-6.54-1.19-13.17-1.91-19.66c-0.76-6.89-1.46-13.78-2.11-20.68
			c-1.27-13.47-2.34-26.95-3.21-40.45c-1.74-27.02-2.69-54.06-4.14-81.09c-0.66,0.66-1.32,1.32-1.98,1.98
			c1.46-0.04,4.07,4.01,5.02,5.25C237.41,185.55,237.59,185.45,237.51,185.34L237.51,185.34z"/>
	</g>
</g>
<g>
	<g>
		<path class="st0" d="M241.93,176.07c-2.91,28.21-1.62,57.49,0.04,85.75c0.83,14.11,1.98,28.2,3.44,42.25
			c0.75,7.19,1.58,14.37,2.5,21.54c0.8,6.3,1.19,12.92,3.75,18.79c1.07,2.45,4.22,0.82,4.45-1.21c0.83-6.99-1.1-14.55-1.98-21.49
			c-0.83-6.52-1.59-13.05-2.29-19.59c-1.49-14.06-2.66-28.15-3.52-42.26c-0.83-13.78-1.46-27.59-1.82-41.39
			c-0.37-14.12,0.04-28.29-0.58-42.4C245.82,173.45,242.19,173.54,241.93,176.07L241.93,176.07z"/>
	</g>
</g>
<g>
	<g>
		<path class="st0" d="M181.12,181.1c9.78,0.78,19.82-0.33,29.6-0.84c9.54-0.5,19.07-1.01,28.61-1.51
			c9.54-0.5,19.08-1.04,28.61-1.62c4.6-0.28,9.21-0.56,13.81-0.84c3.93-0.24,8.03,0.22,11.06-2.55c0.86-0.79,0.5-2.06-0.34-2.65
			c-3.59-2.52-8.53-1.18-12.69-0.91c-4.6,0.3-9.21,0.6-13.81,0.9c-9.54,0.62-19.08,1.3-28.61,2c-9.54,0.7-19.07,1.4-28.61,2.1
			c-9.31,0.68-18.89,0.89-28.04,2.8C178.85,178.37,179.44,180.96,181.12,181.1L181.12,181.1z"/>
	</g>
</g>
<g>
	<g>
		<path class="st0" d="M183.16,179.88c3.28-3.76,4.54-8.59,6.3-13.2c2.12-5.57,4.19-11.16,6.36-16.71
			c4.46-11.41,9.16-22.74,14.05-33.97c4.62-10.61,9.43-21.15,14.37-31.61c5.04-10.66,11.31-21.06,14.77-32.35
			c1-3.26-3.3-4.45-5.08-2.14c-7.2,9.36-11.71,20.84-16.64,31.52c-4.85,10.52-9.41,21.17-13.74,31.92
			c-4.32,10.73-8.36,21.57-12.17,32.49c-1.95,5.61-3.87,11.24-5.68,16.9c-1.71,5.34-4.18,11.01-3.69,16.68
			C182.07,179.93,182.75,180.35,183.16,179.88L183.16,179.88z"/>
	</g>
</g>
<g>
	<g>
		<path class="st0" d="M229.92,58.54c9.55,18.55,19.84,36.69,29.39,55.24c4.7,9.13,9.25,18.34,13.63,27.63
			c2.12,4.5,4.21,9.03,6.25,13.57c2.1,4.65,3.67,10.28,7.17,14.06c2.02,2.19,6.36,0.57,6.12-2.54c-0.36-4.71-2.92-8.97-4.86-13.22
			c-2.2-4.81-4.43-9.6-6.72-14.37c-4.57-9.54-9.3-19-14.21-28.37c-9.83-18.76-20.28-37.2-32.68-54.39
			C232.24,53.71,228.5,55.79,229.92,58.54L229.92,58.54z"/>
	</g>
</g>
<g>
	<g>
		<path class="st0" d="M237.67,52.83c-0.18,4.12,2.89,7.94,4.74,11.51c2.57,4.98,5.25,9.91,7.93,14.84
			c5.19,9.57,10.4,19.12,15.66,28.65c10.52,19.06,21.05,38.11,31.55,57.17c0.74,1.34,2.59,2.13,4.07,1.66
			c3.5-1.12,5.58-3.87,4.32-7.57c-0.71-2.1-3.78-2.8-4.95-0.65c-0.23,0.69-0.66,1.11-1.29,1.27c1.36,0.55,2.71,1.1,4.07,1.66
			c-10.84-18.87-21.65-37.76-32.46-56.64c-5.25-9.16-10.53-18.29-15.85-27.4c-2.83-4.84-5.63-9.7-8.55-14.48
			c-2.21-3.62-4.06-8.72-7.87-10.81C238.42,51.7,237.69,52.13,237.67,52.83L237.67,52.83z"/>
	</g>
</g>
<g>
	<g>
		<path class="st0" d="M251.91,164.44c6.28-18.94-6.52-42.27-26.76-45.44c-3.65-0.57-5.33,4.85-1.56,5.67
			c17.08,3.71,29.76,21.36,25.07,38.87C248.09,165.66,251.23,166.49,251.91,164.44L251.91,164.44z"/>
	</g>
</g>
<g>
	<g>
		<path class="st0" d="M226.29,120.8c2.8-3.29,5.64-6.55,8.39-9.88c1.42-1.72,0.15-5.2-2.45-4.22c-9.59,3.63-17.83,9.52-24.18,17.6
			c-1.81,2.31,1.39,5.62,3.28,3.28c5.9-7.31,13.39-12.81,22.24-16.02c-0.82-1.41-1.64-2.81-2.45-4.22
			c-2.75,3.35-5.41,6.77-8.1,10.17C221.19,119.81,224.33,123.11,226.29,120.8L226.29,120.8z"/>
	</g>
</g>
<g>
	<g>
		<path class="st0" d="M212.41,123.66c0,0.18-0.01,0.37-0.01,0.55c-1.08,0.15-2.14,1.58-2.02,2.66c0.63,5.81,3.59,12.47,9.39,14.74
			c3.06,1.19,4.5-2.93,2.87-4.94c-1.67-2.05-3.67-3.47-4.98-5.85c-0.6-1.09-1.14-2.2-1.51-3.39c-0.63-2-0.86-2.35-2.69-3.77
			C213.14,123.42,212.71,123.35,212.41,123.66L212.41,123.66z"/>
	</g>
</g>
<g>
	<g>
		<path class="st0" d="M224.65,136.62c-0.32-0.63-0.46-1.34-0.39-2.05c0.03-0.3,0.11-0.58,0.19-0.87c0.11-0.4,0.13-0.87,0.25-1.25
			c0.37-1.14-1.2-2.03-2.01-1.17c-0.47,0.5-0.86,0.77-1.1,1.46c-0.21,0.58-0.31,1.21-0.35,1.82c-0.08,1.25,0.24,2.46,0.8,3.57
			C222.91,139.88,225.52,138.35,224.65,136.62L224.65,136.62z"/>
	</g>
</g>
<g>
	<g>
		<path class="st0" d="M223.13,129.6c2.24,6.78,4.27,13.81,5.13,20.92c0.41,3.42,0.52,6.87,0.44,10.31
			c-0.07,2.87-0.32,5.2,1.12,7.75c0.52,0.92,1.97,1.18,2.71,0.35c4.16-4.74,2.3-13.43,1.44-19.18c-1.16-7.71-3.56-14.85-7.68-21.48
			C225.28,126.67,222.49,127.68,223.13,129.6L223.13,129.6z"/>
	</g>
</g>
<g>
	<g>
		<path class="st0" d="M125.05,480.84c25.89-1.76,51.89-7.77,77.27-12.95c26.06-5.32,51.98-11.48,77.42-19.25
			c44.59-13.61,87.99-32.59,125.95-59.93c9.89-7.12,19.36-14.84,28.31-23.12c8.42-7.79,19.71-16.8,23.69-27.84
			c0.42-1.16-1.04-2.12-2.01-1.55c-9.23,5.35-16.1,15.34-23.81,22.66c-8.06,7.65-16.58,14.8-25.41,21.54
			c-17.76,13.54-36.92,25.21-56.86,35.25c-43.83,22.09-91.24,35.93-139.05,46.37c-14.25,3.11-28.57,5.94-42.91,8.63
			c-14.28,2.68-28.78,4.88-42.77,8.86C124.17,479.73,124.28,480.9,125.05,480.84L125.05,480.84z"/>
	</g>
</g>
<g>
	<g>
		<path class="st0" d="M125.54,337.98c19.24,4.63,40.59,4.58,60.25,3.79c10.15-0.41,20.29-1.24,30.37-2.49
			c4.67-0.58,9.33-1.25,13.98-2.01c4.76-0.78,10.06-1.19,14.07-4.1c1.02-0.74,1.06-2.56-0.38-2.89c-4.18-0.95-8.29,0.1-12.43,0.84
			c-5,0.89-10.02,1.68-15.06,2.37c-10.13,1.38-20.33,2.32-30.55,2.84c-9.83,0.5-19.69,0.72-29.54,0.54
			c-10.13-0.18-20.27-1.25-30.4-1.23C124.54,335.63,124.21,337.66,125.54,337.98L125.54,337.98z"/>
	</g>
</g>
</svg>
