<?xml version="1.0" encoding="utf-8"?>
<!-- Generator: Adobe Illustrator 27.2.0, SVG Export Plug-In . SVG Version: 6.00 Build 0)  -->
<svg version="1.1" id="Layer_1" xmlns="http://www.w3.org/2000/svg" xmlns:xlink="http://www.w3.org/1999/xlink" x="0px" y="0px"
	 viewBox="0 0 600 600" style="enable-background:new 0 0 600 600;" xml:space="preserve">
<style type="text/css">
	.st0{fill:#121212;}
	.st1{fill:#E23A2E;}
	.st2{fill:#279847;}
	.st3{fill:#FBBF12;}
	.st4{fill:#336FEA;}
	.st5{fill:#913BD2;}
	.st6{fill:#F8C54A;}
	.st7{fill:#A11414;}
	.st8{fill:#D41F1F;}
	.st9{fill:#6686D1;}
	.st10{fill:#419E6C;}
	.st11{fill:#F5B84E;}
	.st12{fill:#E89634;}
	.st13{fill:#E45656;}
	.st14{fill:#243E80;}
	.st15{fill:#80C9E8;}
	.st16{fill:#5F9D5F;}
	.st17{fill:#68B672;}
</style>
<g>
	<g>
		<path class="st0" d="M152.78,146.07c12.49-7.29,24.37-15.66,36.42-23.66c12.04-7.99,24.41-15.72,36.03-24.31
			c4.26-3.15,0.42-10.26-4.26-7.29c-12.49,7.95-24.41,16.93-36.48,25.49c-11.76,8.34-23.79,16.42-35.05,25.43
			C146.95,143.72,150.14,147.61,152.78,146.07L152.78,146.07z"/>
	</g>
</g>
<g>
	<g>
		<path class="st0" d="M152.98,151.75c-0.04-0.5,0-1.12-0.25-1.56c-0.1-0.18-0.38-0.18-0.49,0c-0.25,0.44-0.21,1.06-0.25,1.56
			C151.94,152.38,153.04,152.38,152.98,151.75L152.98,151.75z"/>
	</g>
</g>
<g>
	<g>
		<path class="st0" d="M145.15,144.66c-1.72,20.14-1.02,40.68-1.32,60.88c-0.3,20.29-0.57,40.59-0.85,60.88
			c-0.56,40.26-1.18,80.51-1.61,120.77c-0.12,11.31-0.21,22.62-0.32,33.94c-0.05,5.66-0.1,11.31-0.16,16.97
			c-0.05,5.67-0.85,11.72,1.08,17.15c1.5,4.23,7.01,4.16,8.54,0c1.68-4.56,1.24-9.36,1.25-14.15c0.01-4.99,0.02-9.98,0.04-14.97
			c0.02-10.31,0.05-20.63,0.07-30.94c0.05-20.29,0.03-40.59,0.04-60.88c0.02-40.26-0.24-80.51-0.36-120.77
			c-0.07-22.85,1.05-46.08-0.64-68.87C150.64,140.94,145.47,140.96,145.15,144.66L145.15,144.66z"/>
	</g>
</g>
<g>
	<g>
		<path class="st0" d="M137.39,454.54c6.91,3.57,14.96,4.21,22.6,4.91c8.89,0.82,17.79,1.54,26.7,2.11
			c17.15,1.1,34.31,1.91,51.49,2.42c34.67,1.03,69.39,0.61,104.04-0.94c19.34-0.86,39.52-0.87,58.56-4.54
			c5.12-0.99,3.72-8.72-1.2-8.84c-17.05-0.43-34.38,1.87-51.42,2.71c-17.16,0.84-34.33,1.39-51.51,1.64
			c-34.01,0.5-68.07-0.06-102.05-1.73c-9.56-0.47-19.12-1.04-28.68-1.6c-9.21-0.54-19.13-2.03-28.11,0.7
			C136.45,451.8,136.02,453.83,137.39,454.54L137.39,454.54z"/>
	</g>
</g>
<g>
	<g>
		<path class="st0" d="M401.82,454.46c2.08-11.26,2.06-22.89,2.28-34.31c0.22-11.63,0.42-23.27,0.52-34.91
			c0.22-23.27,0.43-46.55,0.65-69.82c0.43-46.88,0.64-93.76,0.92-140.63c0.16-26.6,0.32-53.2,0.48-79.79c0.03-5.34-8.26-5.35-8.3,0
			c-0.56,93.76-1.15,187.51-1.41,281.27c-0.04,13.3,0.02,26.6,0.07,39.9c0.05,12.72-0.28,25.73,1.89,38.3
			C399.16,455.91,401.56,455.89,401.82,454.46L401.82,454.46z"/>
	</g>
</g>
<g>
	<g>
		<path class="st0" d="M219.92,93.97c0.14,0.27,0.28,0.54,0.43,0.82c0.41,0.79,1.37,1.31,2.25,1.29
			c59.42-1.14,118.9,0.12,178.13,5.2c5.76,0.49,5.76-8.56,0-9c-59.27-4.55-118.81-5.5-178.13-1.41c-0.84,0.06-1.88,0.44-2.25,1.29
			C220.12,92.69,219.61,93.37,219.92,93.97L219.92,93.97z"/>
	</g>
</g>
<g>
	<g>
		<path class="st0" d="M147.62,148.14c14.04,3.29,28.35,4.84,42.77,4.37c6.95-0.22,13.89-1.03,20.75-2.15
			c5.6-0.91,14.85-1.03,17.92-6.46c0.8-1.41,0.35-3.32-1.08-4.14c-5.01-2.85-12.05,0.73-17.33,1.79c-6.7,1.35-13.45,2.2-20.26,2.77
			c-13.76,1.15-27.7,0.73-41.37-1.27C145.77,142.58,144.24,147.34,147.62,148.14L147.62,148.14z"/>
	</g>
</g>
<g>
	<g>
		<path class="st0" d="M221.85,91.92c-1.28,9.3-1.73,18.59-2.14,27.97c-0.2,4.54-0.4,9.08-0.6,13.62
			c-0.19,4.31-1.32,8.59,1.98,11.86c1.21,1.2,3.05,1.1,4.28,0c3.03-2.72,2.43-6.11,2.46-9.92c0.04-4.86,0.07-9.73,0.11-14.59
			c0.07-9.43,0.17-18.8-0.64-28.2C227.05,89.8,222.31,88.6,221.85,91.92L221.85,91.92z"/>
	</g>
</g>
<g>
	<g>
		<path class="st0" d="M190.13,488.69c39.17,1.89,78.6,1.43,117.81,1.79c19.3,0.18,38.6,0.36,57.91,0.54
			c19.85,0.18,40.08,1.34,59.9,0.22c5.75-0.32,5.74-8.57,0-8.93c-19.81-1.25-40.05-0.24-59.9-0.2c-19.3,0.04-38.6,0.09-57.91,0.13
			c-39.21,0.09-78.63-0.65-117.81,0.96C186.6,483.35,186.6,488.52,190.13,488.69L190.13,488.69z"/>
	</g>
</g>
<g>
	<g>
		<path class="st0" d="M432.62,484.91c1.77-47.28,1.91-94.67,2.71-141.97c0.79-47.33,2.18-94.65,2.92-141.97
			c0.21-13.33,0.42-26.66,0.63-39.99c0.1-6.33,0.2-12.66,0.3-19c0.1-6.68,0.78-13.42-1.03-19.91c-0.93-3.34-5.65-3.21-6.64,0
			c-1.71,5.53-1.47,11.17-1.55,16.91c-0.08,6-0.17,12-0.25,18c-0.16,11.66-0.33,23.33-0.49,34.99c-0.33,23.66-0.3,47.32-0.56,70.99
			c-0.53,47.33-1.04,94.65-1.65,141.97c-0.34,26.65-0.92,53.33-0.71,79.99C426.33,488.99,432.47,488.97,432.62,484.91L432.62,484.91
			z"/>
	</g>
</g>
<g>
	<g>
		<path class="st0" d="M220.8,514.62c-2.81-1.28-5.04-0.32-6.93,2.12c-0.85,1.1-0.84,3.3,0.94,3.57
			c10.04,1.49,20.41,1.15,30.53,1.11c9.99-0.04,19.98-0.08,29.96-0.12c20.31-0.08,40.62-0.37,60.93-0.6
			c40.95-0.45,81.9-0.93,122.85-1.1c6.02-0.03,6.02-9.49,0-9.35c-40.95,0.94-81.9,1.59-122.85,2.25
			c-20.31,0.33-40.62,0.59-60.93,1.07c-9.99,0.23-19.98,0.46-29.96,0.7c-10.12,0.24-20.53,0.16-30.53,1.93
			c0.9,0.69,1.8,1.37,2.7,2.06c0.49-1.66,1.55-2.61,3.18-2.86C221.04,515.33,221.12,514.77,220.8,514.62L220.8,514.62z"/>
	</g>
</g>
<g>
	<g>
		<path class="st0" d="M460.92,509.25c2.18-23.38,2.7-47.02,3.57-70.48c0.86-23.17,1.53-46.35,2-69.53
			c0.95-46.7,1.13-93.41,0.47-140.11c-0.19-13.25-0.44-26.5-0.75-39.74c-0.15-6.29-0.31-12.58-0.49-18.88
			c-0.18-6.52,0.29-13.31-1.78-19.56c-0.77-2.33-4.28-2.55-4.95,0c-1.44,5.47-0.91,10.96-0.76,16.58c0.16,5.96,0.3,11.92,0.44,17.88
			c0.26,11.59,0.47,23.18,0.63,34.78c0.32,23.19,0.44,46.37,0.4,69.56c-0.08,46.71-0.95,93.41-2.6,140.09
			c-0.94,26.46-2.82,52.95-3.21,79.42C453.82,513.85,460.51,513.68,460.92,509.25L460.92,509.25z"/>
	</g>
</g>
<g>
	<g>
		<path class="st0" d="M217.89,195.55c18.47-0.26,36.76-2.52,55.29-2.23c9.09,0.14,18.18,0.41,27.25,1.02
			c4.53,0.3,9.07,0.65,13.6,1.04c4.72,0.41,9.83,1.62,14.53,1.07c4.5-0.53,5.52-6.3,1.07-7.94c-4.51-1.66-9.86-1.59-14.63-2
			c-4.53-0.39-9.05-0.7-13.59-0.89c-9.4-0.39-18.82-0.51-28.22-0.15c-18.37,0.71-37.98,1.53-55.78,6.43
			C215.39,192.44,215.76,195.58,217.89,195.55L217.89,195.55z"/>
	</g>
</g>
<g>
	<g>
		<path class="st0" d="M194.39,240.25c13.01,2.53,27.39,1.35,40.59,1.28c13.63-0.07,27.27-0.43,40.9-0.84
			c13.63-0.4,27.26-0.91,40.87-1.55c6.64-0.31,13.29-0.7,19.93-1.09c5.27-0.31,14.33,1.06,18.02-3.31c1-1.18,1.25-3.03,0-4.18
			c-4.29-3.93-11.65-1.71-17.03-1.39c-6.97,0.4-13.95,0.76-20.92,1.13c-13.62,0.73-27.24,1.36-40.87,1.87
			c-13.63,0.51-27.26,0.82-40.9,1.2c-6.65,0.18-13.31,0.26-19.95,0.54c-6.82,0.28-13.93,0.08-20.64,1.39
			C191.94,235.78,191.94,239.77,194.39,240.25L194.39,240.25z"/>
	</g>
</g>
<g>
	<g>
		<path class="st0" d="M187.98,287.63c14.56,1.79,29.29,1.64,43.93,1.98c14.64,0.34,29.29,0.61,43.93,0.86
			c14.64,0.25,29.29,0.34,43.93,0.45c6.99,0.05,13.98,0.1,20.97,0.15c6.57,0.05,14.77,1.56,20.83-1.21c2.44-1.11,2.39-5.25,0-6.37
			c-5.81-2.73-13.52-1.39-19.84-1.41c-7.32-0.02-14.64-0.05-21.97-0.07c-14.65-0.05-29.29-0.11-43.93-0.02
			c-14.65,0.09-29.29,0.2-43.93,0.39c-14.64,0.19-29.37-0.12-43.93,1.51C185.58,284.17,185.59,287.34,187.98,287.63L187.98,287.63z"
			/>
	</g>
</g>
<g>
	<g>
		<path class="st0" d="M185.78,338.89c6.68,1.37,13.83,1.26,20.64,1.55c6.94,0.29,13.88,0.6,20.83,0.78
			c14.21,0.36,28.43,0.73,42.64,1.07c13.88,0.33,27.77,0.53,41.65,0.78c7.27,0.13,14.54,0.27,21.82,0.4
			c6.49,0.12,14,1.48,20.05-1.08c2.93-1.24,2.78-6.24,0-7.53c-5.92-2.74-13.61-1.57-20.05-1.66c-6.94-0.1-13.88-0.19-20.83-0.29
			c-14.21-0.2-28.43-0.46-42.64-0.58c-13.88-0.11-27.77-0.2-41.65-0.3c-7.27-0.05-14.54,0.02-21.82,0.1
			c-6.81,0.07-13.92-0.24-20.64,0.91C182.84,333.56,182.94,338.3,185.78,338.89L185.78,338.89z"/>
	</g>
</g>
<g>
	<g>
		<path class="st0" d="M264.62,452.7c0.06,0,0.06-0.1,0-0.1C264.55,452.6,264.55,452.7,264.62,452.7L264.62,452.7z"/>
	</g>
</g>
<g>
	<g>
		<path class="st0" d="M450.55,152.69c2.46,0.32,4.91,0.64,7.37,0.97c2.26,0.3,4.17,0.73,6.15-0.63c0.8-0.55,0.98-1.58,0.3-2.32
			c-1.65-1.79-3.66-1.81-5.96-2.02c-2.62-0.24-5.24-0.48-7.86-0.72C447.49,147.7,447.62,152.3,450.55,152.69L450.55,152.69z"/>
	</g>
</g>
<g>
	<g>
		<path class="st0" d="M412.99,121.65c3.18,2.15,6.76,2.79,10.47,3.51c3.17,0.61,6.71,1.73,9.61-0.13c1.12-0.72,1.21-2.06,0.39-3.04
			c-2.2-2.63-5.98-2.58-9.17-2.94c-3.75-0.43-7.32-0.88-10.99,0.22C412.18,119.6,412.07,121.03,412.99,121.65L412.99,121.65z"/>
	</g>
</g>
<g>
	<g>
		<path class="st0" d="M186.68,476.42c-0.67,2.15-1.38,4.64-1.23,6.91c0.23,3.23,4.8,3.24,5.03,0c0.16-2.27-0.56-4.75-1.23-6.91
			C188.87,475.15,187.08,475.15,186.68,476.42L186.68,476.42z"/>
	</g>
</g>
<g>
	<g>
		<path class="st0" d="M240.32,89.68c-4.37,3.95-8.08,8.9-11.79,13.46c-3.06,3.76-6.95,7.59-8.68,12.17c-0.4,1.05,1,2.08,1.91,1.47
			c4.22-2.83,7.22-7.79,10.29-11.79c3.44-4.48,7.24-9.04,9.97-13.99C242.64,89.9,241.23,88.86,240.32,89.68L240.32,89.68z"/>
	</g>
</g>
<g>
	<g>
		<path class="st0" d="M250.97,94.89c-6.95,5.11-13.35,10.57-19.02,17.09c-5.04,5.79-11.52,12.68-13.63,20.21
			c-0.38,1.35,1.26,2.14,2.23,1.3c5.96-5.17,10.06-12.95,15.19-18.95c5.28-6.18,10.7-12.32,16.47-18.05
			C253,95.7,251.92,94.18,250.97,94.89L250.97,94.89z"/>
	</g>
</g>
<g>
	<g>
		<path class="st0" d="M248.58,112.95c-4.47,4.37-8.94,8.74-13.4,13.11c-4,3.91-8.68,7.65-11.81,12.32
			c-0.62,0.93,0.61,2.15,1.54,1.54c4.69-3.1,8.44-7.76,12.38-11.74c4.39-4.44,8.78-8.89,13.18-13.33
			C251.68,113.61,249.81,111.74,248.58,112.95L248.58,112.95z"/>
	</g>
</g>
</svg>
