<?xml version="1.0" encoding="utf-8"?>
<!-- Generator: Adobe Illustrator 27.2.0, SVG Export Plug-In . SVG Version: 6.00 Build 0)  -->
<svg version="1.1" id="Layer_1" xmlns="http://www.w3.org/2000/svg" xmlns:xlink="http://www.w3.org/1999/xlink" x="0px" y="0px"
	 viewBox="0 0 600 600" style="enable-background:new 0 0 600 600;" xml:space="preserve">
<style type="text/css">
	.st0{fill:#121212;}
</style>
<g>
	<g>
		<path class="st0" d="M199.83,158.86c-2.12,5.73-2.59,12.01-3.41,18.05c-0.87,6.47-1.68,12.96-2.33,19.46
			c-1.26,12.65-2.11,25.36-2.72,38.05c-1.24,25.73-1.25,51.49,0.06,77.22c0.65,12.69,1.59,25.37,2.83,38.02
			c1.19,12.12,2.77,24.25,2.81,36.45c0.08,20.64-5.55,44.19-24.76,55.34c-18.05,10.47-43.11-1.99-42.63-23.77
			c0.1-4.66-6.27-5.05-7.73-1.05c-7.35,20.14,13.83,37.6,32.2,39.08c21.16,1.71,38.69-16.8,46.04-34.82
			c10.08-24.7,4.54-52.42,2.18-78.05c-2.63-28.56-3.72-57.27-3.51-85.95c0.12-16.29,0.73-32.58,1.82-48.84
			c0.52-7.8,1.12-15.59,1.77-23.38c0.69-8.26,2.4-17,1.66-25.25C203.89,156.97,200.7,156.5,199.83,158.86L199.83,158.86z"/>
	</g>
</g>
<g>
	<g>
		<path class="st0" d="M194.43,156.71c9.72,0.86,19.6-0.21,29.35-0.62c9.79-0.41,19.58-0.83,29.38-1.09
			c19.29-0.52,38.54-0.28,57.83-0.06c38.89,0.44,77.75,2.52,116.47,6.18c22.39,2.12,44.73,4.79,66.99,8
			c5.45,0.79,7.79-7.57,2.3-8.34c-78.5-11.04-157.51-15.29-236.72-12.57c-11.11,0.38-22.21,0.88-33.3,1.54
			c-10.88,0.65-22.15,0.86-32.76,3.44C191.88,153.69,192.51,156.54,194.43,156.71L194.43,156.71z"/>
	</g>
</g>
<g>
	<g>
		<path class="st0" d="M489.11,162.58c-2.79,42.03-3.78,84.23-5.28,126.32c-0.74,20.89-1.48,41.78-2.22,62.66
			c-0.71,20.04,0.01,40.92-4.42,60.58c-2.14,9.49-5.72,18.66-11.66,26.45c-5.63,7.38-13.1,12.18-21.11,16.61
			c-2.67,1.48-1.67,6.49,1.65,6.09c16.41-1.97,28.42-16.83,34.71-31.11c7.97-18.12,8.29-38.28,8.86-57.73
			c1.32-44.76,2.63-89.52,3.85-134.28c0.68-25.19,1.57-50.39,1.53-75.6C495.01,158.74,489.36,158.82,489.11,162.58L489.11,162.58z"
			/>
	</g>
</g>
<g>
	<g>
		<path class="st0" d="M162.77,459.85c17.87,0.73,35.81-0.34,53.69-0.86c17.9-0.52,35.81-0.89,53.72-1.13
			c35.49-0.47,70.98-0.41,106.47,0.04c9.95,0.13,19.9,0.3,29.85,0.51c10.16,0.22,20.71,1.33,30.84,0.34
			c4.13-0.4,5.94-7.17,1.07-7.94c-8.52-1.36-17.33-1.07-25.94-1.27c-9.28-0.22-18.57-0.39-27.86-0.53
			c-17.91-0.27-35.82-0.36-53.73-0.31c-36.16,0.1-72.31,0.88-108.45,2.2c-20.12,0.74-40.38,1.13-60.34,3.9
			C159.12,455.22,160.02,459.74,162.77,459.85L162.77,459.85z"/>
	</g>
</g>
<g>
	<g>
		<path class="st0" d="M125.69,413.67c-1.5,1.2-2.27,2.4-3.26,4.07c1,0.42,2.01,0.85,3.01,1.27c0.6-3.67-0.25-7.34-0.62-11
			c-0.42-4.11-0.63-8.21-0.46-12.34c0.32-7.97,0.63-15.82,2.11-23.68c1.42-7.57,3.54-15.03,6.35-22.19c1.49-3.8,3.2-7.5,5.1-11.11
			c1.72-3.27,4.75-6.62,4.27-10.48c-0.19-1.55-1.5-3.05-3.25-2.47c-3.66,1.21-5.02,4.42-6.78,7.68c-1.98,3.68-3.75,7.47-5.35,11.33
			c-3.38,8.15-5.87,16.62-7.4,25.31c-1.46,8.36-2.48,17.14-1.73,25.63c0.64,7.27,0.53,17.52,4.75,23.73
			c0.77,1.14,2.62,1.04,3.01-0.39c0.51-1.88,0.85-3.26,0.67-5.17C126.09,413.63,125.86,413.54,125.69,413.67L125.69,413.67z"/>
	</g>
</g>
<g>
	<g>
		<path class="st0" d="M136.49,329.03c1.54,3.6,6.67,2.85,9.97,3.1c5.92,0.43,11.82,0.37,17.76,0.38
			c5.59,0.01,11.18,0.04,16.77,0.03c4.84-0.01,10.23,1.11,14.03-2.32c1.18-1.07,1.21-3.31,0-4.38c-3.51-3.08-7.59-2.22-12.05-2.18
			c-4.6,0.04-9.21,0.12-13.81,0.19c-9.9,0.15-19.76,0.11-29.6,1.42c-1.53,0.2-2.4,0.86-2.99,2.27
			C136.33,328.13,136.24,328.45,136.49,329.03L136.49,329.03z"/>
	</g>
</g>
<g>
	<g>
		<path class="st0" d="M265.84,242.16c5.7,1.94,12.42,1.4,18.38,1.49c6.89,0.1,13.77,0.22,20.66,0.23
			c13.44,0.03,26.89,0.06,40.33,0.09c5.47,0.01,5.48-8.52,0-8.51c-13.44,0.03-26.89,0.06-40.33,0.09
			c-6.56,0.01-13.12,0.12-19.67,0.22c-6.24,0.09-13.39-0.53-19.36,1.51C263.44,238.1,263.44,241.34,265.84,242.16L265.84,242.16z"/>
	</g>
</g>
<g>
	<g>
		<path class="st0" d="M272.47,306.19c10.96,1.78,22.44,1.6,33.52,2.05c11.5,0.47,22.99,0.96,34.49,1.4
			c11.17,0.43,22.34,0.86,33.5,1.29c5.91,0.23,11.82,0.46,17.74,0.68c4.87,0.19,11.1,1.52,15.29-1.42c1.41-0.99,2.18-3.33,0.6-4.64
			c-3.67-3.02-8.35-2.65-12.93-2.83c-5.91-0.23-11.82-0.46-17.74-0.68c-11.5-0.44-22.99-0.89-34.49-1.33
			c-11.17-0.43-22.34-0.83-33.5-1.23c-11.68-0.42-23.81-1.68-35.47-0.7C269.58,299.12,267.98,305.46,272.47,306.19L272.47,306.19z"
			/>
	</g>
</g>
<g>
	<g>
		<path class="st0" d="M276.56,365.96c-2.54,0.02-4.85-0.12-7.23-1.04c-0.41,1.5-0.83,3-1.24,4.5c5.01,1.7,11.13,0.95,16.37,0.84
			c6.24-0.13,12.47-0.2,18.71-0.21c12.15-0.03,24.3-0.23,36.45-0.02c11.82,0.21,23.64,0.63,35.45,1.28
			c6.23,0.34,12.46,0.75,18.68,1.21c5.81,0.43,11.95,1.63,17.71,0.66c4.07-0.69,3.18-6.24,0-7.39c-5.42-1.96-11.99-1.69-17.71-2.1
			c-5.9-0.43-11.8-0.8-17.7-1.12c-12.46-0.67-24.94-1.1-37.42-1.27c-12.14-0.17-24.32-0.27-36.45,0.25
			c-5.91,0.26-11.82,0.58-17.73,0.95c-5.51,0.35-11.88,0.28-16.92,2.66c-2.74,1.29-0.35,5.23,2.36,4.03
			c2.17-0.83,4.39-1.23,6.68-1.19C277.86,367.94,277.88,365.94,276.56,365.96L276.56,365.96z"/>
	</g>
</g>
<g>
	<g>
		<path class="st0" d="M138.71,385.24c-2.27,7.02-3.45,14.51-4.94,21.73c-1.35,6.57-3.64,13.58-3.75,20.29
			c-0.02,1.06,1.38,1.1,1.73,0.23c2.66-6.69,3.28-14.73,4.66-21.81c1.31-6.69,2.91-13.48,3.48-20.29
			C139.94,384.7,138.91,384.63,138.71,385.24L138.71,385.24z"/>
	</g>
</g>
<g>
	<g>
		<path class="st0" d="M147.06,401.98c-4.76,13.9-9.15,30.76-6.76,45.52c0.12,0.73,1.1,0.44,1.17-0.16
			c0.92-7.3,0.73-14.68,1.66-21.99c1-7.83,2.75-15.52,5.08-23.06C148.44,401.56,147.31,401.26,147.06,401.98L147.06,401.98z"/>
	</g>
</g>
<g>
	<g>
		<path class="st0" d="M160.78,388.67c-3.72,9.89-5.4,20.59-7.67,30.89c-2.15,9.74-4.95,19.59-5.83,29.54
			c-0.08,0.87,1.19,0.94,1.45,0.2c3.5-9.95,5.07-20.7,7.25-31.01c2.07-9.75,4.75-19.57,5.42-29.54
			C161.43,388.38,160.9,388.36,160.78,388.67L160.78,388.67z"/>
	</g>
</g>
<g>
	<g>
		<path class="st0" d="M167.2,400.31c-1.6,8.38-3.2,16.75-4.8,25.13c-1.49,7.8-3.36,15.64-3.58,23.59
			c-0.02,0.69,0.97,0.78,1.17,0.16c2.53-7.79,3.4-16.07,4.65-24.15c1.26-8.13,2.52-16.26,3.78-24.39
			C168.54,399.86,167.35,399.5,167.2,400.31L167.2,400.31z"/>
	</g>
</g>
<g>
	<g>
		<path class="st0" d="M178.96,402.03c-1.49,5.68-1.75,11.72-2.29,17.55c-0.6,6.46-1.42,12.9-1.28,19.39
			c0.01,0.69,1.1,0.89,1.24,0.17c1.18-5.82,1.54-11.71,2.06-17.62c0.56-6.38,1.53-13,1.03-19.39
			C179.69,401.71,179.08,401.58,178.96,402.03L178.96,402.03z"/>
	</g>
</g>
</svg>
