<?xml version="1.0" encoding="utf-8"?>
<!-- Generator: Adobe Illustrator 27.2.0, SVG Export Plug-In . SVG Version: 6.00 Build 0)  -->
<svg version="1.1" id="Layer_1" xmlns="http://www.w3.org/2000/svg" xmlns:xlink="http://www.w3.org/1999/xlink" x="0px" y="0px"
	 viewBox="0 0 600 600" style="enable-background:new 0 0 600 600;" xml:space="preserve">
<style type="text/css">
	.st0{fill:#E23A2E;}
	.st1{fill:#279847;}
	.st2{fill:#FFFFFF;}
	.st3{fill:#FBBF12;}
	.st4{fill:#336FEA;}
	.st5{fill:#913BD2;}
	.st6{fill:#F8C54A;}
	.st7{fill:#A11414;}
	.st8{fill:#D41F1F;}
	.st9{fill:#6686D1;}
	.st10{fill:#419E6C;}
	.st11{fill:#F5B84E;}
	.st12{fill:#E89634;}
	.st13{fill:#E45656;}
	.st14{fill:#243E80;}
	.st15{fill:#80C9E8;}
	.st16{fill:#5F9D5F;}
	.st17{fill:#68B672;}
</style>
<g>
	<g>
		<path class="st5" d="M136.66,407.47c-1.52-0.48-2.27-1.57-3.77-1.81c-1.71-0.28-3.36,0.13-4.96,0.68
			c-3.08,1.07-5.84,2.9-8.28,5.03c-5.43,4.73-9.23,11.12-10.39,18.24c-2.37,14.52,7.47,27.28,21.12,31.42
			c13.79,4.18,28.82-1.52,35.5-14.47c6.52-12.66,5.02-29.51-5.74-39.44c-11.95-11.02-33.43-12.76-44.22,0.84
			c-1.4,1.77,0.29,4.17,2.43,3.15c11.88-5.7,29.41-6.24,38.17,5.34c7.97,10.54,5,28.46-6.87,34.91
			c-11.38,6.18-28.46,0.14-32.39-12.47c-2-6.43-0.1-13.27,3.45-18.78c2-3.11,4.72-5.5,7.92-7.33c1.42-0.81,3.02-1.34,4.4-2.21
			c1.15-0.72,2.54-2.53,3.63-3.02C136.71,407.54,136.69,407.48,136.66,407.47L136.66,407.47z"/>
	</g>
</g>
<g>
	<g>
		<path class="st5" d="M176.74,412.56c16.55-0.75,33.06-1.66,49.64-1.41c16.67,0.25,33.33,1.13,50.01,1.21
			c30.75,0.14,62.23-2.77,90.01-17c47.12-24.14,78.56-77.18,76.47-130.13c-2.08-52.82-35.48-103.04-83.29-125.56
			c-49.36-23.25-110.48-15.2-153.35,18.09c-43.47,33.75-63.71,92.12-54.34,145.85c1.16,6.67,2.85,13.14,5.1,19.53
			c1.9,5.4,10.34,3.23,8.68-2.39c-14.74-49.74-3.82-105.74,32.75-143.55c35.95-37.17,93.43-51.02,142.57-35.32
			c48.15,15.38,84.49,60.36,91.8,110.08c7.35,50.01-18.14,102.21-60.19,129.55c-52.65,34.23-115.64,18.58-174.32,23.81
			c-7.5,0.67-14.73,1.69-22.02,3.6C174.25,409.43,174.61,412.66,176.74,412.56L176.74,412.56z"/>
	</g>
</g>
<g>
	<g>
		<path class="st5" d="M158.27,324.67c7.16-5.74,14-11.87,20.94-17.87c3.47-3,6.9-6.05,10.42-8.98c3.05-2.54,6.34-4.24,7.55-8.15
			c0.64-2.05-1.37-3.61-3.24-3.24c-3.93,0.77-6.14,4.11-8.91,6.79c-3.29,3.18-6.69,6.25-10.04,9.36
			c-6.7,6.23-13.53,12.34-19.99,18.81C152.82,323.55,155.99,326.49,158.27,324.67L158.27,324.67z"/>
	</g>
</g>
<g>
	<g>
		<path class="st5" d="M191.98,287.29c1.88,5.7,3.97,11.32,6.12,16.93c1.57,4.09,2.89,10.25,7.06,12.32
			c1.27,0.63,2.64,0.09,3.1-1.26c1.54-4.51-1.88-9.68-3.69-13.78c-2.42-5.49-4.9-10.94-7.58-16.31
			C195.61,282.41,191.01,284.33,191.98,287.29L191.98,287.29z"/>
	</g>
</g>
<g>
	<g>
		<path class="st5" d="M199.68,314.21c1.56-0.92,3.23-1.56,5.02-1.91c-0.31-1.12-0.62-2.23-0.92-3.35
			c-4.01,1.47-6.89,4.54-9.99,7.39c-3.28,3.01-6.56,6.01-9.78,9.08c-7.13,6.79-14.17,13.69-21.15,20.64
			c-6.76,6.72-13.45,13.51-20.08,20.36c-6.56,6.78-13.71,13.4-19.39,20.94c-2.52,3.34,2.7,6.76,5.52,4.26
			c7.06-6.27,13.15-13.91,19.64-20.78c6.33-6.7,12.72-13.34,19.17-19.92c6.45-6.58,12.96-13.1,19.53-19.56
			c3.17-3.12,6.32-6.26,9.47-9.4c3.23-3.2,7.16-6.23,9.03-10.46c0.89-2.01-1.76-3.67-3-1.75c-0.99,1.46-2.19,2.73-3.57,3.8
			C198.79,313.87,199.27,314.41,199.68,314.21L199.68,314.21z"/>
	</g>
</g>
<g>
	<g>
		<path class="st5" d="M81.27,314.57c0.74,6.9,7.52,12.48,11.57,17.91c4.45,5.98,8.99,12,12.39,18.64
			c3.4,6.64,7.63,12.88,11.31,19.38c1.77,3.13,3.5,6.28,5.17,9.46c1.68,3.19,2.73,6.97,6.18,8.54c1.68,0.77,4.1,0.28,4.54-1.85
			c0.79-3.83-0.86-5.94-2.7-9.3c-1.72-3.15-3.49-6.28-5.31-9.38c-3.92-6.67-7.92-13.54-12.8-19.56
			c-4.87-6.01-9.48-12.21-14.29-18.28c-4.31-5.43-9.07-13.89-16.01-15.62C81.3,314.51,81.26,314.53,81.27,314.57L81.27,314.57z"/>
	</g>
</g>
<g>
	<g>
		<path class="st5" d="M81.68,317.72c0.13-0.86,0.62-1.84,0.91-2.66c-0.81,0.62-1.63,1.24-2.44,1.86c0.07,0,0.15,0.01,0.22,0.01
			c1.12,0.05,2.49-0.68,2.99-1.71c1.55-3.26,2.88-6.19,5.88-8.41c2.71-2,6.66-2.03,8.94-4.4c1.39-1.45,0.94-3.49-0.59-4.58
			c-3.74-2.67-9.79,0.68-12.89,3.1c-3.55,2.77-6.98,7.06-7.66,11.62c-0.21,1.42,0.11,3.21,1.59,3.9c0.08,0.04,0.16,0.08,0.25,0.12
			c-0.42-0.73-0.84-1.46-1.25-2.18c-0.01,1.01,0.22,1.81,0.26,2.82C77.95,319.27,81.34,319.97,81.68,317.72L81.68,317.72z"/>
	</g>
</g>
<g>
	<g>
		<path class="st5" d="M90.1,302.49c3.83,1.95,7.26,4.35,10.28,7.42c3.06,3.11,5.12,6.61,7.6,10.13c2.03,2.89,7.48,1.25,6.13-2.58
			c-3.28-9.26-12.06-16.56-20.78-20.49C89.64,295.3,86.38,300.6,90.1,302.49L90.1,302.49z"/>
	</g>
</g>
<g>
	<g>
		<path class="st5" d="M109.18,317.84c-1.42-25.93,1-51.29,8.7-76.18c7.63-24.64,20.04-48.01,36.57-67.85
			c33.29-39.93,82.79-63.85,134.63-66.37c50.89-2.47,100.03,16.32,135.74,52.76c34.1,34.8,54.03,82.97,51.13,131.9
			c-1.62,27.27-10.03,54.09-23.76,77.67c-14.18,24.36-33.8,44.02-57.14,59.63c-4.74,3.17-0.56,10.54,4.51,7.71
			c45.04-25.15,75.47-75.18,83.71-125.35c8.46-51.51-6.85-103.3-39.51-143.68c-33.26-41.13-82.45-66.3-135.28-69.01
			c-54.33-2.78-109.43,17.34-147.76,56.21c-37.52,38.05-58.34,90.9-57.54,144.23c0.1,6.36,0.61,12.63,1.52,18.93
			C105.06,320.99,109.32,320.39,109.18,317.84L109.18,317.84z"/>
	</g>
</g>
<g>
	<g>
		<path class="st5" d="M174.82,450.02c15.55,0.09,31.08-1.55,46.68-1.32c15.47,0.22,30.91,0.78,46.37,1.5
			c30.45,1.41,61.22,2.94,91.49-1.65c8.52-1.29,16.98-3.06,25.26-5.46c6.54-1.89,16.88-3.59,20.69-9.76c0.8-1.3,0.07-3.28-1.47-3.62
			c-6.44-1.43-13.66,3.05-19.78,4.87c-7.16,2.13-14.46,3.8-21.82,5.08c-15.05,2.62-30.34,3.63-45.61,3.88
			c-30.55,0.49-61.04-2.3-91.58-2c-16.56,0.16-34.74,0.31-50.67,5.24C172.62,447.32,172.92,450.01,174.82,450.02L174.82,450.02z"/>
	</g>
</g>
<g>
	<g>
		<path class="st5" d="M136.81,402.07c-3.22,5.09-6.01,10.4-8.74,15.77c-2.43,4.78-5.59,9.65-6.98,14.85
			c-0.2,0.75,0.87,1.52,1.41,0.82c3.49-4.5,5.56-10.22,8.04-15.32c2.52-5.2,4.94-10.41,6.97-15.82
			C137.67,401.94,137.03,401.71,136.81,402.07L136.81,402.07z"/>
	</g>
</g>
<g>
	<g>
		<path class="st5" d="M147.79,397.42c-6.36,7.86-11.61,16.44-15.79,25.64c-3.74,8.25-8.62,18.32-8.59,27.53
			c0,1.01,1.47,1.48,1.97,0.53c1.92-3.69,2.89-7.97,4.17-11.92c1.68-5.16,3.59-10.24,5.81-15.2c3.96-8.85,8.65-17.34,13.7-25.61
			C149.53,397.63,148.38,396.69,147.79,397.42L147.79,397.42z"/>
	</g>
</g>
<g>
	<g>
		<path class="st5" d="M154.96,402.69c-6.8,7.59-12.31,16.11-17.01,25.14c-2.22,4.27-4.25,8.63-6.12,13.06
			c-1.83,4.35-4.47,9.37-4.05,14.18c0.09,1.08,1.49,1.94,2.34,0.97c2.71-3.1,3.74-7.34,5.22-11.13c1.95-5.02,4.16-9.94,6.59-14.74
			c4.51-8.92,9.81-17.41,15.07-25.89C157.77,403.03,155.96,401.58,154.96,402.69L154.96,402.69z"/>
	</g>
</g>
<g>
	<g>
		<path class="st5" d="M163.19,408.39c-5.91,6.95-10.89,14.45-15.15,22.53c-3.88,7.36-8.44,15.67-9.35,24.06
			c-0.13,1.17,1.56,1.45,2.1,0.57c4.47-7.31,6.85-15.94,10.77-23.58c3.95-7.7,8.46-15.14,13.13-22.43
			C165.26,408.65,163.9,407.56,163.19,408.39L163.19,408.39z"/>
	</g>
</g>
</svg>
