<?xml version="1.0" encoding="utf-8"?>
<!-- Generator: Adobe Illustrator 27.2.0, SVG Export Plug-In . SVG Version: 6.00 Build 0)  -->
<svg version="1.1" id="Layer_1" xmlns="http://www.w3.org/2000/svg" xmlns:xlink="http://www.w3.org/1999/xlink" x="0px" y="0px"
	 viewBox="0 0 600 600" style="enable-background:new 0 0 600 600;" xml:space="preserve">
<style type="text/css">
	.st0{fill:#121212;}
</style>
<g>
	<g>
		<path class="st0" d="M201.88,243.06c12.94,3.03,26.52,2.49,39.75,2.38c13.85-0.12,27.7-0.59,41.54-1.1
			c13.51-0.5,27.02-1.14,40.52-1.91c6.91-0.39,13.83-0.82,20.74-1.28c6.56-0.44,14.37,0.1,20.59-2.03c2.73-0.94,3.4-5.66,0-6.24
			c-6.27-1.07-13.28,0.41-19.61,0.88c-6.91,0.52-13.82,1-20.73,1.44c-13.83,0.88-27.66,1.61-41.51,2.2
			c-13.51,0.58-27.03,0.96-40.55,1.32c-13.54,0.35-27.48,0.02-40.74,3.11C201.27,241.98,201.28,242.92,201.88,243.06L201.88,243.06z
			"/>
	</g>
</g>
<g>
	<g>
		<path class="st0" d="M210.93,244.6c-5.71-1.55-10.52-1.38-15.8,1.72c-5,2.94-9.19,7.49-11.76,12.67
			c-6.35,12.8-5.98,28.16-6.62,42.11c-1.36,29.53-0.73,59.7,11.62,87.11c2.37,5.25,10.21,0.7,7.77-4.54
			c-10.83-23.28-12.11-49.27-11.46-74.55c0.32-12.29-0.02-25.38,2.48-37.45c2.33-11.28,10.45-23.82,23.38-24.16
			C212.18,247.45,212.57,245.04,210.93,244.6L210.93,244.6z"/>
	</g>
</g>
<g>
	<g>
		<path class="st0" d="M194.34,386.25c-3.75,12.76,11.32,17.03,20.95,17.52c15.91,0.81,31.91,0.7,47.83,0.27
			c16.05-0.44,32.09-1.39,48.08-2.87c7.83-0.72,15.65-1.58,23.45-2.55c7.62-0.95,16.04-1.14,23.08-4.33
			c3.33-1.52,1.18-5.84-1.67-6.16c-6.74-0.76-13.86,1.27-20.55,2.19c-6.79,0.93-13.59,1.76-20.4,2.49
			c-14.02,1.52-28.08,2.66-42.16,3.4c-13.75,0.72-27.52,1.06-41.29,1.05c-10.55-0.01-32.12,3.12-35.28-11
			C196.14,385.2,194.62,385.29,194.34,386.25L194.34,386.25z"/>
	</g>
</g>
<g>
	<g>
		<path class="st0" d="M351.55,393.49c-4.99,10.5-8.95,21.65-13.05,32.51c-1.38,3.65,3.85,6.3,6.36,3.7
			c7.18-7.43,14.37-14.84,21.64-22.19c3.51-3.56,7.03-7.11,10.54-10.67c3.49-3.53,7.4-6.88,9.95-11.17c1.84-3.09-1.9-7.09-5.05-5.05
			c-4.2,2.72-7.4,6.69-10.8,10.32c-3.42,3.64-6.85,7.29-10.27,10.93c-7.08,7.53-14.22,15-21.38,22.45c2.12,1.23,4.24,2.47,6.36,3.7
			c3.96-10.59,8.23-21.3,11.3-32.18C358.05,392.6,353.07,390.29,351.55,393.49L351.55,393.49z"/>
	</g>
</g>
<g>
	<g>
		<path class="st0" d="M360.83,239.03c3.07-0.38,6.7,1.16,9.94,1.3c3.36,0.15,6.72,0.41,10.05,0.84c6.86,0.89,13.87,3.33,17.71,9.48
			c4.38,7.01,4.59,16.63,5.53,24.6c1.03,8.77,1.87,17.57,2.56,26.37c1.36,17.2,3.4,35.8,0.66,52.94
			c-1.23,7.66-3.86,15.29-9.15,21.12c-2.31,2.54-4.98,4.74-8.08,6.27c-2.78,1.38-5.71,1.99-8.1,4.04c-2.09,1.79-0.61,4.64,1.45,5.49
			c5.28,2.18,11.8-1.73,15.94-4.85c4.83-3.63,8.85-8.47,11.58-13.86c6.95-13.71,6.44-29.73,5.94-44.68
			c-0.56-16.75-1.9-33.45-4.18-50.05c-1.8-13.12-2.45-29.51-14.31-37.91c-5.1-3.61-11.39-5.09-17.55-5.45
			c-3.11-0.18-6.22,0.19-9.29,0.64c-3.94,0.58-6.98,3.02-10.72,3.61C360.76,238.94,360.77,239.03,360.83,239.03L360.83,239.03z"/>
	</g>
</g>
<g>
	<g>
		<path class="st0" d="M252.21,238.44c-7.84-24.98-26.41-46.52-48.92-59.58c-23.53-13.65-51.79-17.51-78.13-10.63
			C98.9,175.1,76.62,193,65.17,217.73c-10.89,23.51-11.84,51,0.16,74.3c6.57,12.75,16.72,23.66,28.76,31.42
			c10.55,6.8,27.18,14.77,39.8,10.01c1.69-0.64,2.7-3.53,0.58-4.43c-5.02-2.15-10.26-2.93-15.55-4.25
			c-5.63-1.41-11.02-3.54-16.11-6.32c-10.23-5.6-19.19-13.65-25.74-23.32c-13.37-19.73-15.07-44.37-7.14-66.56
			c17.59-49.23,77.22-67.72,122.89-46.59c25.48,11.79,43.88,33.14,56.82,57.55C250.38,240.92,252.69,239.97,252.21,238.44
			L252.21,238.44z"/>
	</g>
</g>
<g>
	<g>
		<path class="st0" d="M131,334.2c-4.21,1.94-5.12,5.97-6.79,10.02c-1.88,4.53-3.57,9.14-5.33,13.72
			c-3.75,9.77-7.33,19.61-10.93,29.43c-1.4,3.83,4.04,6.67,6.69,3.9c8.59-8.98,17.14-18,25.8-26.9c4.1-4.22,8.21-8.44,12.31-12.66
			c3.53-3.63,7.77-7.39,8.01-12.78c0.03-0.7-0.65-1.43-1.37-1.37c-5.02,0.43-8.43,4.21-11.72,7.68c-4.28,4.51-8.56,9.01-12.83,13.52
			c-8.55,9.01-17.23,17.91-25.86,26.85c2.23,1.3,4.46,2.6,6.69,3.9c3.64-9.81,7.3-19.61,10.79-29.47c1.74-4.92,3.54-9.83,5.14-14.81
			c1.27-3.96,2.55-6.75,0.74-10.67C132.11,334.04,131.45,334,131,334.2L131,334.2z"/>
	</g>
</g>
<g>
	<g>
		<path class="st0" d="M152.73,344.66c7.81,4.56,19.94-0.43,27.21-4.01c4.9-2.41,0.61-9.31-4.22-7.21
			c-4.43,1.93-8.91,3.61-13.45,5.24c-3.34,1.2-7.08,2.39-9.68,4.88C152.26,343.87,152.34,344.44,152.73,344.66L152.73,344.66z"/>
	</g>
</g>
<g>
	<g>
		<path class="st0" d="M115.01,221.74c3.29,2.53,8.08,2.52,12.08,2.62c5.19,0.14,10.4,0.05,15.59,0c5.2-0.05,10.39-0.12,15.59-0.18
			c4.69-0.05,9.99,0.64,14.42-1.08c2.7-1.05,2.82-4.62,0-5.63c-4.47-1.6-9.73-0.78-14.42-0.7c-5.52,0.09-11.04,0.17-16.57,0.27
			c-5.19,0.1-10.41,0.16-15.59,0.48c-3.9,0.24-8.16,0.45-11.27,3C114.42,220.88,114.66,221.47,115.01,221.74L115.01,221.74z"/>
	</g>
</g>
<g>
	<g>
		<path class="st0" d="M100.32,250.96c10.28,4.26,22.39,4.08,33.31,3.95c11.1-0.14,23.14,0.03,34.01-2.39
			c3.19-0.71,2.46-5.7-0.77-5.66c-11.38,0.12-22.8,2.01-34.22,2.25c-10.62,0.22-21.93-0.72-32.33,1.79
			C100.29,250.9,100.29,250.95,100.32,250.96L100.32,250.96z"/>
	</g>
</g>
<g>
	<g>
		<path class="st0" d="M120.17,278.76c6.02,2.49,12.63,3.06,19.07,3.44c6.2,0.37,13.8,2,19.78,0.1c3.49-1.11,3.24-5.64,0-6.85
			c-5.83-2.18-13.63-0.92-19.78-0.87c-6.4,0.05-12.99,0.31-19.07,2.48C119.31,277.38,119.37,278.43,120.17,278.76L120.17,278.76z"/>
	</g>
</g>
<g>
	<g>
		<path class="st0" d="M235.51,283.57c7.49,2.34,16.36,0.47,24.04-0.07c8.84-0.62,17.68-1.14,26.53-1.56
			c17.38-0.82,34.77-1.3,52.15-2c4.98-0.2,5.02-7.7,0-7.77c-17.7-0.27-35.48,0.45-53.14,1.62c-8.52,0.57-17.04,1.23-25.54,1.98
			c-7.86,0.7-17.43,0.47-24.5,4.33C233.57,280.91,234,283.1,235.51,283.57L235.51,283.57z"/>
	</g>
</g>
<g>
	<g>
		<path class="st0" d="M230.83,323.27c10.66,1.82,22.02,1.21,32.79,1.04c11.55-0.18,23.11-0.67,34.65-1.13
			c11.22-0.45,22.43-0.98,33.64-1.58c5.93-0.32,11.87-0.66,17.8-1c4.1-0.24,10.34,1.04,13.06-2.44c0.56-0.71,0.72-1.69,0-2.39
			c-3.23-3.16-7.92-1.19-12.07-0.88c-5.93,0.44-11.86,0.85-17.8,1.24c-11.54,0.76-23.08,1.44-34.63,2.04
			c-11.22,0.58-22.44,1.01-33.66,1.55c-11.12,0.53-22.86,0.48-33.78,2.81C230.47,322.6,230.46,323.21,230.83,323.27L230.83,323.27z"
			/>
	</g>
</g>
<g>
	<g>
		<path class="st0" d="M255.91,354.07c6.12,2.16,14.05,1,20.46,0.9c7.48-0.12,14.89-0.43,22.35-1.01
			c14.92-1.16,29.77-2.86,44.61-4.76c2.12-0.27,3.66-1.24,4.37-3.33c0.47-1.39,0.35-2.29-0.46-3.49c-0.81-1.21-2.32-2.46-3.91-2.24
			c-15.04,2.02-30.11,3.88-45.15,5.9c-7.23,0.97-14.41,2.07-21.6,3.3c-6.56,1.12-14.82,1.3-20.7,4.54
			C255.8,353.93,255.83,354.04,255.91,354.07L255.91,354.07z"/>
	</g>
</g>
<g>
	<g>
		<path class="st0" d="M305.35,441.02c5.4-4.57,8.98-11.43,12.45-17.49c3.85-6.71,7.63-13.42,11.19-20.29
			c1.66-3.2-2.98-5.96-4.86-2.84c-3.98,6.63-7.7,13.37-11.39,20.17c-3.33,6.13-7.33,12.88-8.39,19.86
			C304.26,441.03,304.87,441.42,305.35,441.02L305.35,441.02z"/>
	</g>
</g>
<g>
	<g>
		<path class="st0" d="M302.55,400.5c0.97-0.82,2.06-1.34,3.27-1.58c2.34-0.66,1-4.21-1.33-3.14c-6.94,3.18-13.29,9.03-19.37,13.62
			c-6.32,4.77-12.65,9.54-18.97,14.32c-12.65,9.55-25.26,19.14-37.86,28.76c-1.37,1.04-1.87,2.23-1.6,3.92
			c0.19,1.19,0.51,1.6,1.6,2.08c1.6,0.7,2.86,0.51,4.21-0.54c12.48-9.77,24.95-19.55,37.37-29.39c6.21-4.92,12.42-9.83,18.64-14.75
			c5.97-4.72,13.25-9.41,18.07-15.31c-0.96-0.56-1.92-1.12-2.87-1.67c-0.11,1.3-0.52,2.51-1.23,3.63
			C302.44,400.49,302.51,400.53,302.55,400.5L302.55,400.5z"/>
	</g>
</g>
<g>
	<g>
		<path class="st0" d="M231.56,452.06c0.15,4.92,3.67,8.33,6.74,11.93c3.49,4.09,7.15,8.03,10.96,11.83
			c8.01,7.99,16.82,15.32,26.08,21.82c9.22,6.48,19.1,12.09,29.27,16.93c4.94,2.35,9.98,4.52,15.08,6.5
			c4.74,1.85,10.63,5.11,15.77,3.87c2.62-0.64,3.16-3.87,1.51-5.71c-3.17-3.53-9.14-4.3-13.47-5.91c-5.19-1.93-10.3-4.09-15.31-6.45
			c-9.73-4.6-19.04-9.97-28-15.93c-8.93-5.93-17.38-12.39-25.42-19.49c-4.03-3.56-7.92-7.26-11.67-11.12
			c-3.34-3.44-6.1-7.55-10.92-8.74C231.89,451.51,231.55,451.73,231.56,452.06L231.56,452.06z"/>
	</g>
</g>
<g>
	<g>
		<path class="st0" d="M335.56,495.51c-2.44,7.29-2.29,16.65-2.34,24.26c-0.03,4.93,7.71,4.94,7.66,0
			c-0.07-7.63,0.05-16.99-2.41-24.26C338,494.08,336.05,494.07,335.56,495.51L335.56,495.51z"/>
	</g>
</g>
<g>
	<g>
		<path class="st0" d="M364.29,166.51c7.01,0.97,14.07,2.94,20.92,4.73c7.15,1.87,14.24,4.16,20.96,7.27
			c13.02,6.02,25.38,13.67,36.19,23.11c22.51,19.66,38.55,45.46,45.17,74.68c7.13,31.48,3.07,63.78-7.99,93.8
			c-11.09,30.1-31.48,55.71-57.13,74.8c-28.26,21.03-61.99,34.08-96.8,38.96c-5.05,0.71-2.89,8.34,2.11,7.66
			c65.58-8.95,126.28-48.39,155.62-108.57c28.9-59.26,20.16-133.56-27.68-180.28c-11.88-11.6-26.21-21.79-41.59-28.15
			c-7.95-3.29-16.19-6.06-24.62-7.83c-8.47-1.78-16.4-1.79-25-1.35C363.82,165.37,363.59,166.42,364.29,166.51L364.29,166.51z"/>
	</g>
</g>
<g>
	<g>
		<path class="st0" d="M300.91,446.76c12.39,4.43,26.29,3.72,39.12,1.81c13.3-1.97,26.33-6.73,38.24-12.88
			c24.37-12.57,44.79-32.63,57.59-56.9c25.54-48.45,27.74-115.94-4.03-162.13c-17.57-25.55-47.57-43-79.06-41.17
			c-4.72,0.27-4.76,7.64,0,7.38c26.98-1.45,51.59,12.18,68.51,32.57c17.51,21.09,25.82,49.02,27.3,76.06
			c1.44,26.3-3.04,53.09-15.17,76.59c-11.93,23.1-28.43,42.92-50.85,56.46c-12.15,7.34-25.4,12.62-39.27,15.61
			c-14.02,3.03-27.72,2.81-41.95,3.28C299.41,443.51,299.14,446.13,300.91,446.76L300.91,446.76z"/>
	</g>
</g>
<g>
	<g>
		<path class="st0" d="M356.36,179.36c3.61-2.53,7.03-5.2,10.93-7.28c3.86-2.05,8.44-2.86,12.07-5.19c2.48-1.59,1.55-5.62-1.53-5.63
			c-4.52-0.02-9.29,2.63-13.17,4.79c-4.25,2.36-8.47,5.25-11.73,8.88C350.91,177.17,353.59,181.3,356.36,179.36L356.36,179.36z"/>
	</g>
</g>
<g>
	<g>
		<path class="st0" d="M120.51,397.33c-0.36,3.72,2.22,6.59,4.27,9.47c2.41,3.39,4.96,6.67,7.69,9.81
			c5.87,6.76,12.31,13.03,19.33,18.59c13.62,10.77,29.03,19.62,45.58,25.01c4.14,1.35,5.75-4.97,1.78-6.45
			c-16.09-6-31.27-13.8-44.8-24.45c-6.43-5.06-12.54-10.48-18.17-16.42c-2.89-3.05-5.7-6.18-8.39-9.41
			c-2.1-2.53-3.73-5.39-7.04-6.34C120.64,397.09,120.53,397.2,120.51,397.33L120.51,397.33z"/>
	</g>
</g>
<g>
	<g>
		<path class="st0" d="M200.37,461.29c2.13-3.98,3.76-8.19,5.52-12.34c0.42-0.99,0.35-1.81-0.34-2.64
			c-0.09-0.11-0.19-0.23-0.28-0.34c-0.3-0.36-0.81-0.4-1.23-0.33c-0.2,0.03-0.4,0.07-0.61,0.1c-0.75,0.13-1.31,0.85-1.52,1.52
			c-1.37,4.33-2.87,8.61-3.85,13.05C197.76,461.66,199.67,462.61,200.37,461.29L200.37,461.29z"/>
	</g>
</g>
<g>
	<g>
		<path class="st0" d="M135.77,387.15c-2.17-0.22-3.34-1.37-3.5-3.46c-1.12,0.15-2.25,0.3-3.37,0.46
			c2.71,6.5,8.38,12.53,12.94,17.81c5.51,6.37,11.56,12.35,17.68,18.13c11.9,11.23,24.7,21.36,38.28,30.49
			c4.14,2.79,8.02-3.91,3.9-6.68c-13.25-8.91-25.91-18.76-37.73-29.51c-5.61-5.1-10.97-10.43-16.23-15.88
			c-5.17-5.36-10.22-12.03-16.33-16.3c-1.74-1.22-3.17,1.3-2.08,2.7c1.79,2.29,2.78,3.86,5.85,4.35
			C136.55,389.46,137.17,387.45,135.77,387.15L135.77,387.15z"/>
	</g>
</g>
<g>
	<g>
		<path class="st0" d="M113.51,388.61c-0.68,2.22,1.95,4.67,3.16,6.34c2.03,2.8,3.99,5.6,5.87,8.48c1.97,3.02,6.39-0.5,3.86-2.98
			c-2.48-2.42-4.84-4.91-7.2-7.46c-1.42-1.54-3.33-4.63-5.66-4.41C113.53,388.59,113.52,388.6,113.51,388.61L113.51,388.61z"/>
	</g>
</g>
<g>
	<g>
		<path class="st0" d="M125.34,374.47c0.94,2.93,2.29,5.63,3.6,8.42c1.28,2.72,2.48,6.03,4.78,8.05c1.9,1.67,4.69,0.06,4.17-2.43
			c-0.62-2.99-2.92-5.68-4.66-8.13c-1.77-2.51-3.46-5.02-5.55-7.27C126.75,372.08,124.92,373.14,125.34,374.47L125.34,374.47z"/>
	</g>
</g>
<g>
	<g>
		<path class="st0" d="M109.88,383.55c-3.7-10.59-7.42-20.92-9.41-32.01c-1.02-5.68-1.62-11.42-1.95-17.18
			c-0.23-3.96,1.23-10.26-2.23-12.95c-0.54-0.42-1.4-0.74-2.04-0.26c-3.76,2.79-2.32,8.1-2.02,12.31c0.42,5.97,1.3,11.93,2.49,17.8
			c2.34,11.53,5.88,23.46,11.69,33.76C107.44,386.84,110.6,385.62,109.88,383.55L109.88,383.55z"/>
	</g>
</g>
<g>
	<g>
		<path class="st0" d="M112.82,324.76c-1.08,6.54-0.37,13.46,0.78,19.95c0.86,4.86,1.94,14.73,6.94,16.99
			c0.88,0.4,1.79,0.08,2.12-0.86c0.94-2.73-0.22-4.31-1.19-7c-1.13-3.13-2.12-6.33-2.97-9.54c-1.7-6.46-2.14-12.98-3.1-19.55
			C115.21,323.48,113.03,323.49,112.82,324.76L112.82,324.76z"/>
	</g>
</g>
<g>
	<g>
		<path class="st0" d="M188.25,169.67c17.28-4.74,34.33-8.82,52.31-9.83c8.54-0.48,17.06,0.5,25.56,1.23
			c4.38,0.38,8.77,0.86,13.13,1.43c3.85,0.5,7.33,1.86,10.88-0.04c1.58-0.85,1.66-2.97,0.54-4.2c-2.76-3.01-7.06-2.77-10.92-3.25
			c-4.23-0.53-8.46-0.86-12.73-1c-9.45-0.32-18.89,0.81-28.29,1.69c-17.39,1.63-35.23,5.08-51.33,11.97
			C186.25,168.17,187.08,169.98,188.25,169.67L188.25,169.67z"/>
	</g>
</g>
<g>
	<g>
		<path class="st0" d="M288.76,155.83c-0.4-3.39-4.26-4.81-6.7-6.88c-3.73-3.15-7.23-6.59-10.43-10.28
			c-6.53-7.52-11.03-15.99-15.24-24.94c-1.59-3.39-7.42-0.99-6.1,2.57c3.47,9.42,9.39,18,16.22,25.31
			c3.32,3.55,6.95,6.77,10.85,9.66c2.72,2.02,7.3,6.56,10.89,5.23C288.5,156.41,288.79,156.14,288.76,155.83L288.76,155.83z"/>
	</g>
</g>
<g>
	<g>
		<path class="st0" d="M254.31,113.89c16.19,4.62,28.52,16.76,41.18,27.35c13.16,11,25.85,22.51,38.38,34.21
			c1.28,1.2,2.88,1.28,4.41,0.57c1.06-0.49,1.26-1.13,1.67-2.18c0.46-1.15-0.08-2.72-0.94-3.54
			c-13.52-12.95-27.69-25.26-42.17-37.13c-6.68-5.48-13.44-10.98-20.47-16c-6.19-4.42-13.51-8.89-21.42-8.12
			C252.32,109.3,251.48,113.08,254.31,113.89L254.31,113.89z"/>
	</g>
</g>
<g>
	<g>
		<path class="st0" d="M332.88,171.87c-3.64,1.99-6.2,5.35-8.95,8.38c-3.07,3.38-6.14,6.76-9.2,10.14
			c-5.2,5.72-10.27,11.57-15.64,17.13c-10.53,10.91-22.41,20.65-37.38,24.45c-5.76,1.47-0.46,10.17,3.42,5.87
			c0.58-0.48,1.17-0.96,1.75-1.45c0.85-0.53,1.07-2.08,0-2.55c-0.58-0.32-1.17-0.65-1.75-0.97c-0.52,1.96-1.03,3.91-1.55,5.87
			c15.18-4.1,27.54-13.85,38.45-24.84c6.02-6.06,11.66-12.51,17.29-18.93c3.01-3.44,6.02-6.88,9.03-10.31
			c2.87-3.28,5.98-6.34,7.64-10.41C336.72,172.44,334.35,171.07,332.88,171.87L332.88,171.87z"/>
	</g>
</g>
<g>
	<g>
		<path class="st0" d="M258.2,220.88c0.25,1.93,0.58,3.81,0.98,5.72c0.41,1.91,0.75,4.12,2.32,5.42c1.32,1.09,3.93,0.96,4.28-1.13
			c0.61-3.75-2.57-7.83-4.57-10.83C260.42,218.88,257.97,219.15,258.2,220.88L258.2,220.88z"/>
	</g>
</g>
<g>
	<g>
		<path class="st0" d="M263.08,223.53c8.29-5.83,16.07-12.37,23.48-19.27c3.75-3.49,7.4-7.09,10.94-10.8
			c2.7-2.83,6.79-5.64,6.89-9.77c0.02-0.94-0.87-1.42-1.69-1.29c-3.81,0.63-6.13,4.91-8.65,7.61c-3.5,3.75-7.1,7.39-10.82,10.92
			c-7.21,6.86-14.87,13.18-22.63,19.4C258.82,221.77,261.19,224.87,263.08,223.53L263.08,223.53z"/>
	</g>
</g>
<g>
	<g>
		<path class="st0" d="M301.42,184.44c-3.76-1.56-8.15-1.73-12.15-2.38c-3.37-0.55-6.71-1.21-10.09-1.63
			c-7.93-0.97-15.95-1.49-23.93-1.81c-7.67-0.3-15.32-0.36-22.98,0c-3.82,0.18-7.64,0.43-11.46,0.75c-3.82,0.32-7.11-0.05-9.78,2.93
			c-1.37,1.54-1.07,3.66,0.62,4.8c3.04,2.06,5.65,1.13,9.16,0.71c3.81-0.45,7.63-0.84,11.46-1.15c7.64-0.62,15.32-1.11,22.98-1.28
			c7.67-0.17,15.31,0.04,22.97,0.38c3.49,0.16,7,0.18,10.49,0.42c4.06,0.28,8.29,1.31,12.34,0.95
			C302.65,186.99,302.85,185.03,301.42,184.44L301.42,184.44z"/>
	</g>
</g>
<g>
	<g>
		<path class="st0" d="M185.66,169.96c-2.34,0.14-4.78,0.68-7.11,0.45c0.14,1.01,0.27,2.02,0.41,3.03c2.94-0.8,5.78-2.01,8.64-3.06
			c2.59-0.95,5.53-1.63,7.78-3.26c1.2-0.87,1.02-3.45-0.87-3.21c-2.76,0.36-5.24,1.71-7.79,2.8c-2.98,1.27-6.08,2.4-8.94,3.92
			c-1.75,0.93-0.16,3.67,1.56,2.66c1.94-1.14,4.35-1.67,6.44-2.5C186.18,170.62,186.18,169.93,185.66,169.96L185.66,169.96z"/>
	</g>
</g>
</svg>
