<svg width="21" height="16" viewBox="0 0 21 16" fill="none" xmlns="http://www.w3.org/2000/svg">
<path d="M20.2778 1.89155C19.5593 2.21522 18.7846 2.43059 17.9757 2.52658C18.8042 2.02692 19.4383 1.23436 19.7402 0.29167C18.9654 0.753172 18.1053 1.09161 17.1937 1.27252C16.4605 0.487348 15.4182 0 14.2647 0C12.0494 0 10.2557 1.80786 10.2557 4.03784C10.2557 4.3529 10.2899 4.66057 10.3582 4.95716C7.02488 4.78732 4.06906 3.18006 2.09078 0.734713C1.74742 1.33036 1.54825 2.02692 1.54825 2.76532C1.54825 4.16583 2.25451 5.40389 3.33102 6.1263C2.67363 6.1066 2.05534 5.92201 1.51281 5.62295V5.67341C1.51281 7.63141 2.8948 9.26578 4.73134 9.63493C4.39531 9.72729 4.03973 9.77769 3.67315 9.77769C3.41411 9.77769 3.16484 9.75067 2.91679 9.70507C3.42877 11.3087 4.90974 12.4778 6.66319 12.5123C5.28853 13.5965 3.56196 14.2426 1.68021 14.2426C1.35518 14.2426 1.03871 14.2229 0.722229 14.1848C2.50134 15.3342 4.60914 16 6.87336 16C14.2501 16 18.2873 9.84293 18.2873 4.50427C18.2873 4.32705 18.2837 4.15476 18.2763 3.98124C19.0596 3.41636 19.7389 2.7038 20.2765 1.89277L20.2778 1.89155Z" fill="black" fill-opacity="0.6"/>
</svg>
