<?xml version="1.0" encoding="utf-8"?>
<!-- Generator: Adobe Illustrator 27.2.0, SVG Export Plug-In . SVG Version: 6.00 Build 0)  -->
<svg version="1.1" id="Layer_1" xmlns="http://www.w3.org/2000/svg" xmlns:xlink="http://www.w3.org/1999/xlink" x="0px" y="0px"
	 viewBox="0 0 600 600" style="enable-background:new 0 0 600 600;" xml:space="preserve">
<style type="text/css">
	.st0{fill:#121212;}
	.st1{fill:#E23A2E;}
	.st2{fill:#279847;}
	.st3{fill:#FBBF12;}
	.st4{fill:#336FEA;}
	.st5{fill:#913BD2;}
	.st6{fill:#F8C54A;}
	.st7{fill:#A11414;}
	.st8{fill:#D41F1F;}
	.st9{fill:#6686D1;}
	.st10{fill:#419E6C;}
	.st11{fill:#F5B84E;}
	.st12{fill:#E89634;}
	.st13{fill:#E45656;}
	.st14{fill:#243E80;}
	.st15{fill:#80C9E8;}
	.st16{fill:#5F9D5F;}
	.st17{fill:#68B672;}
</style>
<g>
	<g>
		<path fill="#fff" class="st0" d="M283.37,86.44c-18.49-1.31-37.39,14.03-48.47,27.55c-12.18,14.88-19.54,33.43-19.48,52.78
			c0.13,39.28,30.59,76,68.79,84.43c37.98,8.38,80.02-10.33,99.32-44.09c19.16-33.51,14.06-78.91-12.89-106.78
			c-14.71-15.22-35.53-23.35-56.52-24.01c-10.42-0.33-21.14,1.22-30.93,4.83c-9.9,3.65-20.24,8.76-25.51,18.23
			c-1.55,2.78,1.49,5.52,4.18,4.18c7.33-3.63,13.78-8.78,21.39-11.96c7.79-3.25,16.24-5.11,24.66-5.54
			c16.83-0.86,33.91,3.58,47.68,13.44c27.94,20,35.68,59.77,24.36,90.98c-11.94,32.92-47.28,54.2-81.78,52.36
			c-34.88-1.86-64.48-29.69-71.64-63.34c-4.12-19.36,0.84-39.49,11.5-55.94c5.29-8.16,12.11-15.4,20.04-21.03
			c8.07-5.73,17.32-8.92,25.96-13.56C285.34,88.31,284.65,86.53,283.37,86.44L283.37,86.44z"/>
	</g>
</g>
<g>
	<g>
		<path fill="#fff" class="st0" d="M242.66,263.33c1.91,5.68,6.19,10.36,10.01,14.88c4.21,4.98,8.63,9.78,13.25,14.39
			c4.41,4.4,9.02,8.61,13.72,12.7c4.4,3.83,9.83,9.88,15.77,10.9c3.43,0.59,6.34-2.65,4.57-5.94c-2.76-5.11-9.15-8.16-13.6-11.69
			c-4.89-3.88-9.55-8.04-14.05-12.37c-4.49-4.33-8.8-8.84-12.92-13.52c-3.88-4.41-7.31-9.47-12.16-12.87
			C245.03,258.26,241.82,260.83,242.66,263.33L242.66,263.33z"/>
	</g>
</g>
<g>
	<g>
		<path fill="#fff" class="st0" d="M242.87,258.26c-10.15,7.19-16.94,17.03-25.47,25.83c-8.36,8.64-14.74,20.25-20.51,30.74
			c-1.78,3.23,0.41,7.85,4.4,7.66c15.43-0.74,30.87-1.28,46.31-1.85c7.55-0.28,15.11-0.54,22.66-0.83
			c7.51-0.29,14.16,0.06,20.38-4.62c0.8-0.61,0.91-1.72,0-2.31c-6.45-4.16-12.97-3.39-20.38-3.12c-7.55,0.27-15.11,0.59-22.66,0.89
			c-15.43,0.6-30.87,1.23-46.31,1.66c1.47,2.55,2.93,5.11,4.4,7.66c5.96-10.32,13.35-19.77,19.27-30.05
			c5.85-10.15,14.83-18.45,21.47-28.1C247.87,259.72,244.97,256.77,242.87,258.26L242.87,258.26z"/>
	</g>
</g>
<g>
	<g>
		<path fill="#fff" class="st0" d="M311.09,313.21c13.63-7.84,26.45-18.09,38.47-28.17c5.98-5.01,11.81-10.2,17.5-15.54
			c3.06-2.87,6.09-5.79,9.06-8.75c2.58-2.57,5.44-4.98,6.24-8.65c0.5-2.28-1.44-4.44-3.81-3.81c-3.66,0.98-5.87,3.78-8.45,6.43
			c-2.52,2.57-5.06,5.12-7.64,7.63c-5.8,5.65-11.76,11.13-17.87,16.44c-12.01,10.44-24.81,19.68-37.21,29.6
			C304.62,310.62,308.16,314.9,311.09,313.21L311.09,313.21z"/>
	</g>
</g>
<g>
	<g>
		<path fill="#fff" class="st0" d="M315.87,313.02c12.41,2.8,25.37,3.59,38.04,4.31c6.2,0.35,12.4,0.61,18.6,0.74
			c5.51,0.12,13.71,1.76,18.43-1.55c2.24-1.57,2.27-4.51,0-6.07c-4.59-3.16-12.07-1.67-17.45-1.78c-6.2-0.12-12.41-0.31-18.6-0.59
			c-12.68-0.57-25.39-1.96-38.08-1.96C312.92,306.13,311.93,312.13,315.87,313.02L315.87,313.02z"/>
	</g>
</g>
<g>
	<g>
		<path fill="#fff" class="st0" d="M381.13,252.3c-0.08,5.17-1.2,10.19-0.89,15.39c0.29,4.81,0.81,9.64,1.37,14.42
			c1.12,9.7,1.97,19.49,3.47,29.14c0.81,5.21,9.69,4.03,9.25-1.25c-0.83-9.95-2.33-19.9-3.58-29.81c-0.58-4.55-1.19-9.14-1.99-13.65
			c-0.91-5.09-3.17-9.69-4.45-14.66C383.85,250.08,381.16,250.48,381.13,252.3L381.13,252.3z"/>
	</g>
</g>
<g>
	<g>
		<path fill="#fff" class="st0" d="M217.26,283.43c-8.05-0.87-15.69,2.59-22.85,5.93c-7.32,3.4-14.36,7.25-21.03,11.8
			c-13.61,9.3-25.75,20.62-35.93,33.6c-22.27,28.41-34.46,63.89-34.71,99.98c-0.07,10.44,1.03,20.87,3.02,31.12
			c0.98,5.05,2.23,10,3.86,14.88c1.72,5.14,2.84,8.82,7.76,11.55c1.06,0.59,2.25,0.03,2.63-1.07c2.67-7.66-1.71-16.27-3.39-23.93
			c-1.92-8.76-2.95-17.61-3.4-26.56c-0.88-17.53,1.11-35.09,6.05-51.94c9.1-31.01,29.09-58.16,54.74-77.6
			c6.78-5.13,14.02-9.92,21.5-13.97c7.46-4.04,15.9-6.83,22.24-12.58C218.26,284.18,217.82,283.49,217.26,283.43L217.26,283.43z"/>
	</g>
</g>
<g>
	<g>
		<path fill="#fff" class="st0" d="M389.96,285.18c13.08,7.53,26.07,15.24,37.65,25c11.46,9.66,21.94,20.78,30.69,32.96
			c19.14,26.64,30.42,58.38,32.18,91.16c0.5,9.29,0.27,18.61-0.69,27.87c-0.52,5.04-1.29,10.05-2.29,15.02
			c-0.82,4.11-2.67,8.53,0.01,12.29c1.05,1.48,2.67,1.94,4.33,1.14c3.64-1.76,4.31-5.35,5.09-9.02c0.96-4.49,1.72-9.01,2.34-13.55
			c1.2-8.87,1.78-17.81,1.65-26.76c-0.25-18.15-3.18-36.38-8.75-53.66c-10.04-31.15-28.77-59.44-53.89-80.48
			c-13.72-11.49-29.03-21.57-46.08-27.29C389.04,278.78,387.13,283.55,389.96,285.18L389.96,285.18z"/>
	</g>
</g>
<g>
	<g>
		<path fill="#fff" class="st0" d="M112.58,488.72c9.77,20.59,34.54,29.27,55.15,34.33c27.82,6.84,56.72,10.54,85.18,13.51
			c30.26,3.16,60.64,4.67,91.06,4.46c29.03-0.2,59.29-0.37,87.53-7.88c13.39-3.56,26.42-9.15,37.72-17.21
			c10.01-7.14,22.43-17.85,25.31-30.32c0.88-3.79-3.8-6.86-6.7-3.9c-3.86,3.95-6.66,8.64-10.36,12.74
			c-3.75,4.16-7.95,7.94-12.47,11.24c-9.39,6.86-19.99,11.78-31.08,15.19c-26.67,8.21-55.41,8.53-83.09,8.94
			c-56.67,0.84-113.93-3.19-169.67-13.62c-11.96-2.24-24.04-5.03-35.24-9.89c-11.26-4.89-20.9-11.95-29.75-20.37
			C114.22,484.09,111.48,486.42,112.58,488.72L112.58,488.72z"/>
	</g>
</g>
<g>
	<g>
		<path fill="#fff" class="st0" d="M294.64,310.83c-1.85,4.04-1.27,8.86-1.16,13.22c0.13,5.57,0.48,11.15,0.69,16.72
			c0.44,11.48,0.79,22.96,1.08,34.44c0.58,22.66,0.22,45.3,0.52,67.95c0.06,4.89,7.46,4.89,7.59,0c0.6-22.61-0.31-45.36-1.21-67.95
			c-0.45-11.16-1.06-22.31-1.81-33.46c-0.38-5.57-0.68-11.16-1.21-16.72c-0.43-4.59-0.43-10.24-2.98-14.2
			C295.83,310.32,294.93,310.19,294.64,310.83L294.64,310.83z"/>
	</g>
</g>
<g>
	<g>
		<path fill="#fff" class="st0" d="M313.84,304.57c-2.3,5.7-2.83,12.14-3.7,18.2c-0.79,5.55-1.64,11.09-2.36,16.64
			c-1.61,12.4-3,24.84-4.49,37.25c-1.45,12.09-2.88,24.18-4.28,36.27c-0.68,5.88-1.37,11.76-2.05,17.65
			c-0.72,6.17-1.54,12.1,0.54,18.09c0.48,1.38,2.28,1.67,3.08,0.4c3.03-4.77,3.83-10.04,4.47-15.56c0.72-6.21,1.44-12.42,2.17-18.63
			c1.44-12.42,2.88-24.83,4.28-37.25c1.36-12.09,2.76-24.18,4.08-36.27c0.67-6.2,1.18-12.42,1.72-18.63
			c0.52-6.03,1.34-12.16,0.42-18.18C317.37,302.38,314.48,302.99,313.84,304.57L313.84,304.57z"/>
	</g>
</g>
<g>
	<g>
		<path fill="#fff" class="st0" d="M192.79,470.59c-1.32,10.13-1.3,20.48-1.07,30.68c0.12,5.11,0.36,10.21,0.81,15.31
			c0.35,4.02-0.08,8.76,3.28,11.5c1.51,1.23,3.2,0.96,4.36-0.56c2.74-3.59,1.03-8.65,0.65-12.85c-0.42-4.78-0.86-9.56-1.17-14.35
			c-0.64-9.9-0.54-19.81-0.97-29.72C198.52,466.68,193.26,466.91,192.79,470.59L192.79,470.59z"/>
	</g>
</g>
<g>
	<g>
		<path fill="#fff" class="st0" d="M426.68,465.76c-1.05,2.77-1.77,3.84-1.92,6.82c-0.13,2.59-0.12,5.19-0.18,7.78
			c-0.14,5.83-0.3,11.67-0.41,17.5c-0.11,5.51-0.12,11.02-0.13,16.53c-0.01,4.38-1.45,10.48,2.38,13.48c1.16,0.91,2.47,1,3.63,0
			c3.69-3.16,2.02-9.14,1.8-13.48c-0.3-5.83-0.61-11.67-1.02-17.5c-0.4-5.51-0.81-11.02-1.22-16.53c-0.21-2.91-0.32-5.85-0.64-8.75
			c-0.29-2.57-1.19-3.55-2.19-5.86C426.76,465.7,426.7,465.72,426.68,465.76L426.68,465.76z"/>
	</g>
</g>
<g>
	<g>
		<path fill="#fff" class="st0" d="M305.63,219.81c0.6,1.8,0.85,3.21,1.83,4.86c1.2,2.03,2.52,3.99,3.78,5.97c1.93,3.03,3.92,6.84,7.08,8.71
			c0.84,0.5,1.62-0.32,1.5-1.15c-0.54-3.7-3.47-7.14-5.56-10.14c-1.08-1.55-2.14-3.12-3.24-4.65c-1.36-1.88-2.52-2.74-4.26-4.25
			C306.28,218.75,305.41,219.13,305.63,219.81L305.63,219.81z"/>
	</g>
</g>
<g>
	<g>
		<path fill="#fff" class="st0" d="M324.25,204.79c1.35,5.53,5.98,10.58,9.12,15.26c3.27,4.86,6.33,10.59,10.9,14.35
			c0.96,0.79,2.78,0.08,2.29-1.33c-2.03-5.87-6.53-10.94-10.13-15.93c-3.18-4.4-6.27-10.29-10.83-13.37
			C324.9,203.29,324.07,204.06,324.25,204.79L324.25,204.79z"/>
	</g>
</g>
<g>
	<g>
		<path fill="#fff" class="st0" d="M336.82,201.3c2.42,5.41,5.8,10.37,8.96,15.37c2.6,4.12,4.93,8.6,8.97,11.46c0.9,0.64,1.98-0.41,1.76-1.35
			c-1.25-5.22-5.19-9.55-8.3-13.82c-3.16-4.35-6.25-8.85-10.01-12.72C337.46,199.47,336.43,200.44,336.82,201.3L336.82,201.3z"/>
	</g>
</g>
<g>
	<g>
		<path fill="#fff" class="st0" d="M347.39,192.17c2.22,5.35,6.47,10.17,9.92,14.8c3.37,4.51,6.63,9.07,11.33,12.27
			c1.04,0.7,1.94-0.62,1.54-1.54c-2.34-5.4-6.46-9.59-10.4-13.89c-3.7-4.03-7.49-8.86-12.08-11.88
			C347.55,191.83,347.31,191.99,347.39,192.17L347.39,192.17z"/>
	</g>
</g>
<g>
	<g>
		<path fill="#fff" class="st0" d="M356.47,178.25c4.23,4.81,7.96,10.11,12,15.08c3.47,4.27,7.28,10.18,12.34,12.58
			c1.05,0.5,2.74-0.36,2.22-1.71c-2.01-5.19-7.17-9.2-11.13-12.95c-4.86-4.61-10.1-8.88-14.79-13.65
			C356.7,177.18,356.09,177.81,356.47,178.25L356.47,178.25z"/>
	</g>
</g>
<g>
	<g>
		<path fill="#fff" class="st0" d="M304.87,234.35c-1.47,2-0.1,3.99,0.82,6.01c0.87,1.9,1.91,4.52,3.91,5.45c0.75,0.35,1.81,0.12,2.01-0.82
			c0.58-2.69-1.4-5.66-2.69-7.91c-0.59-1.02-1.23-2.49-2.44-2.89C306.04,234.04,305.19,233.91,304.87,234.35L304.87,234.35z"/>
	</g>
</g>
<g>
	<g>
		<path fill="#fff" class="st0" d="M321.35,218.44c0.09,0,0.09-0.14,0-0.14C321.26,218.3,321.26,218.44,321.35,218.44L321.35,218.44z"/>
	</g>
</g>
<g>
	<g>
		<path fill="#fff" class="st0" d="M324.75,227.35c0.4,1.69-0.41,2.51,0.23,4.25c0.69,1.89,1.75,3.81,2.66,5.61c1.67,3.31,3.36,8.15,6.7,10.03
			c0.92,0.52,1.95-0.15,2.01-1.15c0.23-3.81-3-7.94-4.87-11.12c-1-1.69-1.99-3.45-3.14-5.04c-1.3-1.8-2.09-1.11-3.53-2.61
			C324.78,227.29,324.74,227.32,324.75,227.35L324.75,227.35z"/>
	</g>
</g>
</svg>
