<?xml version="1.0" encoding="utf-8"?>
<!-- Generator: Adobe Illustrator 27.2.0, SVG Export Plug-In . SVG Version: 6.00 Build 0)  -->
<svg version="1.1" id="Layer_1" xmlns="http://www.w3.org/2000/svg" xmlns:xlink="http://www.w3.org/1999/xlink" x="0px" y="0px"
	 viewBox="0 0 600 600" style="enable-background:new 0 0 600 600;" xml:space="preserve">
<style type="text/css">
	.st0{fill:#121212;}
</style>
<g>
	<g>
		<path class="st0" d="M108.15,272.93c16.72-12.3,31.13-28.23,45.41-43.19c7.15-7.5,14.13-15.16,21-22.91
			c6.86-7.74,15.43-15.6,20.4-24.7c2.02-3.69-2.5-6.67-5.52-4.26c-7.88,6.3-14.06,15.54-20.74,23.1
			c-6.86,7.77-13.82,15.45-20.79,23.11c-13.9,15.27-29.32,29.58-42.1,45.81C104.59,271.44,106.22,274.36,108.15,272.93
			L108.15,272.93z"/>
	</g>
</g>
<g>
	<g>
		<path class="st0" d="M100.47,265.16c6.36,7.75,10.97,16.61,17.48,24.3c6.38,7.54,12.93,14.93,19.56,22.26
			c13.03,14.41,26.27,28.65,39.79,42.61c27.26,28.13,55.39,55.4,84.44,81.67c16.21,14.66,32.36,30.04,49.89,43.13
			c4.22,3.15,9.32-3.69,5.58-7.23c-14.07-13.33-29.43-25.41-43.89-38.34c-14.49-12.95-28.77-26.12-42.88-39.49
			c-28.2-26.73-55.59-54.33-82.13-82.71c-7.58-8.1-15.12-16.25-22.64-24.41c-3.54-3.84-7.06-7.76-10.96-11.25
			c-4.4-3.93-9.04-7.38-13.01-11.79C100.94,263.07,99.76,264.3,100.47,265.16L100.47,265.16z"/>
	</g>
</g>
<g>
	<g>
		<path class="st0" d="M314.9,469.91c-2.67,0.12-4.8,0.9-7.33,1.73c0.7,1.66,1.4,3.31,2.1,4.97c7.58-4.57,14.22-11.3,20.96-17.02
			c7.39-6.27,14.75-12.58,22.03-18.97c14.33-12.58,28.49-25.34,42.5-38.28c27.77-25.65,55.05-51.87,81.38-79
			c15.01-15.47,29.8-31.17,44.37-47.06c3.82-4.16-2.38-10.39-6.21-6.21c-51.09,55.71-104.66,109.25-160.82,159.85
			c-7.66,6.9-15.34,13.77-23.07,20.59c-8.02,7.09-17.44,13.72-24.44,21.82c-2.32,2.69,1.13,6.01,3.85,3.85
			c2.09-1.66,3.8-2.95,5.35-5.11C315.91,470.6,315.45,469.89,314.9,469.91L314.9,469.91z"/>
	</g>
</g>
<g>
	<g>
		<path class="st0" d="M184.15,183.77c6.99,2.79,15.74,2.06,23.16,2.24c8.6,0.2,17.21,0.15,25.82,0.21
			c16.55,0.13,33.1,0.27,49.65,0.42c33.43,0.3,66.86,0.44,100.29,0.57c19.15,0.07,38.45,0.85,57.59,0.11c5.07-0.19,5.07-7.65,0-7.88
			c-16.83-0.74-33.8-0.18-50.64-0.21c-16.55-0.03-33.1-0.07-49.65-0.1c-33.43-0.07-66.86,0.12-100.29,0.17
			c-9.6,0.02-19.2,0.03-28.8,0.05c-8.53,0.01-19.07-1.04-27.13,2.12C183.02,181.91,183.03,183.32,184.15,183.77L184.15,183.77z"/>
	</g>
</g>
<g>
	<g>
		<path class="st0" d="M442.01,184.45c0.56,1.72,0.04,2.78,1,4.4c1.14,1.93,3.07,3.49,4.62,5.08c3.85,3.96,7.61,8,11.29,12.11
			c7.34,8.18,14.33,16.68,20.99,25.42c6.33,8.31,12.31,16.89,17.94,25.69c2.97,4.65,5.85,9.36,8.68,14.09
			c2.63,4.41,4.54,8.69,8.79,11.72c1.85,1.31,4.67-0.44,4.55-2.61c-0.28-5.24-3.04-9.17-5.66-13.6c-2.81-4.76-5.75-9.42-8.81-14.01
			c-5.99-9-12.37-17.74-19.07-26.23c-6.65-8.43-13.72-16.52-21.1-24.32c-3.79-4.01-7.68-7.92-11.65-11.75
			c-1.84-1.78-3.66-3.75-5.75-5.24c-2.1-1.51-2.96-0.72-5.26-1.32C442.25,183.8,441.9,184.11,442.01,184.45L442.01,184.45z"/>
	</g>
</g>
<g>
	<g>
		<path class="st0" d="M107.45,269.75c26.46,1.93,53.32,1.16,79.84,1.29c25.95,0.13,51.9,0.26,77.85,0.39
			c52.56,0.27,105.13,0.71,157.69,0.98c14.64,0.08,29.28,0.16,43.91,0.24c15.09,0.08,30.92,1.47,45.91-0.3
			c5.16-0.61,5.14-7.37,0-8.02c-13.05-1.63-26.77-0.59-39.92-0.61c-13.31-0.02-26.61-0.05-39.92-0.07
			c-25.95-0.04-51.9-0.1-77.85-0.14c-52.56-0.1-105.13-0.05-157.69-0.16c-29.83-0.06-60.05-1.26-89.82,0.7
			C103.78,264.3,103.79,269.49,107.45,269.75L107.45,269.75z"/>
	</g>
</g>
<g>
	<g>
		<path class="st0" d="M189.16,190.73c18.01,28.08,36.21,56.08,54.84,83.76c3.29,4.89,11.28,0.29,7.95-4.65
			c-18.66-27.72-37.77-55.17-57.03-82.48C192.49,183.9,186.81,187.06,189.16,190.73L189.16,190.73z"/>
	</g>
</g>
<g>
	<g>
		<path class="st0" d="M241.9,265.76c2.93,8.84,4.44,18.03,7.22,26.96c2.77,8.88,5.62,17.76,8.57,26.58
			c5.81,17.36,11.87,34.64,17.8,51.95c5.93,17.32,11.92,34.62,17.88,51.93c3.04,8.81,6.08,17.62,9.11,26.44
			c1.52,4.41,3.04,8.81,4.56,13.22c1.41,4.09,2.48,8.47,4.79,12.15c1.94,3.08,7.94,2.18,7.47-2.02c-0.97-8.67-5.42-17.48-8.32-25.69
			c-3.11-8.79-6.22-17.58-9.33-26.38c-6.11-17.27-12.2-34.55-18.34-51.8c-6.14-17.26-12.19-34.56-18.42-51.78
			c-3.18-8.78-6.55-17.5-9.87-26.23c-3.36-8.82-7.99-17.04-11.22-25.85C243.36,264.07,241.49,264.55,241.9,265.76L241.9,265.76z"/>
	</g>
</g>
<g>
	<g>
		<path class="st0" d="M310.49,478.64c5.39-7.56,8.61-17.27,12.22-25.79c3.36-7.93,6.53-15.94,9.61-23.98
			c6.49-17,12.72-34.09,18.65-51.3c11.96-34.7,22.82-69.78,32.62-105.15c1.33-4.8-6.13-6.85-7.46-2.06
			c-9.72,35.07-20.47,69.84-32.31,104.25c-5.81,16.9-11.85,33.72-18.14,50.45c-3.14,8.36-6.33,16.7-9.41,25.08
			c-3.22,8.73-7.64,17.87-9.18,27.06C306.73,479.3,309.23,480.41,310.49,478.64L310.49,478.64z"/>
	</g>
</g>
<g>
	<g>
		<path class="st0" d="M375.79,272.33c7.11-5.67,12.48-13.71,18.15-20.75c5.79-7.19,11.54-14.4,17.27-21.63
			c11.29-14.25,22.81-28.35,33.84-42.8c3.07-4.03-3.83-9.4-7.07-5.45c-11.7,14.27-22.93,28.95-34.37,43.43
			c-5.73,7.25-11.42,14.52-17.09,21.82c-5.37,6.9-11.72,13.78-15.48,21.73C369.53,271.86,373.09,274.48,375.79,272.33L375.79,272.33
			z"/>
	</g>
</g>
<g>
	<g>
		<path class="st0" d="M238.48,271.89c24.45-30.21,49.22-59.78,77.15-86.88c3.61-3.5-1.91-9.02-5.52-5.52
			c-27.91,27.08-54.4,56.64-75.66,89.29C232.89,271.18,236.63,274.18,238.48,271.89L238.48,271.89z"/>
	</g>
</g>
<g>
	<g>
		<path class="st0" d="M308.58,187.42c-0.09,0.16-0.19,0.33-0.28,0.49c-0.53,0.94-0.59,2.18,0,3.11
			c4.39,6.93,10.31,13.07,15.48,19.43c5.21,6.42,10.27,12.95,15.18,19.59c9.86,13.34,19.12,27.12,27.81,41.25
			c2.91,4.73,10.43,0.36,7.47-4.37c-8.99-14.33-18.57-28.26-28.8-41.74c-4.85-6.39-9.82-12.69-14.93-18.89
			c-5.36-6.5-10.8-13.7-17.37-19.02c-0.8-0.65-1.94-1.23-3-0.79C309.61,186.72,308.89,186.87,308.58,187.42L308.58,187.42z"/>
	</g>
</g>
<g>
	<g>
		<path class="st0" d="M313.03,205.85c-6.52,6.82-12.55,14.04-18.67,21.22c-5.61,6.58-12.52,13.11-16.84,20.63
			c-0.54,0.94,0.66,1.75,1.44,1.11c7.05-5.87,12.64-14.36,18.48-21.41c5.67-6.84,11.36-13.6,16.63-20.74
			C314.53,206.04,313.55,205.31,313.03,205.85L313.03,205.85z"/>
	</g>
</g>
<g>
	<g>
		<path class="st0" d="M320.18,206.48c-15.11,17.08-32.31,33.36-44.53,52.74c-0.51,0.8,0.61,1.57,1.27,0.98
			c16.99-15.26,30.11-34.92,44.36-52.63C321.88,206.82,320.85,205.72,320.18,206.48L320.18,206.48z"/>
	</g>
</g>
<g>
	<g>
		<path class="st0" d="M328.86,217.72c-8.46,4.73-15.99,12.31-22.59,19.31c-6.14,6.51-13.64,14.24-16.76,22.78
			c-0.29,0.78,0.81,1.33,1.35,0.79c6.67-6.69,11.41-15.31,17.86-22.31c6.53-7.1,14.14-12.73,21.12-19.3
			C330.52,218.35,329.65,217.28,328.86,217.72L328.86,217.72z"/>
	</g>
</g>
<g>
	<g>
		<path class="st0" d="M329.9,222.77c-4.77,4.02-8.98,8.71-13.35,13.16c-4.03,4.1-8.07,7.99-11.2,12.84
			c-0.48,0.75,0.49,1.77,1.25,1.25c4.76-3.27,8.52-7.39,12.51-11.54c4.32-4.49,8.89-8.85,12.78-13.73
			C333.01,223.35,331.31,221.58,329.9,222.77L329.9,222.77z"/>
	</g>
</g>
<g>
	<g>
		<path class="st0" d="M450.74,204.58c0.21-0.29,0.69-0.48,0.98-0.67c0.31-0.19,0.61-0.38,0.92-0.58c0.73-0.46-0.26-1.46-0.72-0.72
			c-0.19,0.31-0.38,0.61-0.58,0.92c-0.19,0.3-0.38,0.77-0.67,0.98C450.61,204.56,450.69,204.65,450.74,204.58L450.74,204.58z"/>
	</g>
</g>
<g>
	<g>
		<path class="st0" d="M449.5,203.44c-6.8,7.89-13.65,15.75-20.31,23.76c-6.1,7.34-14.1,14.79-18.24,23.46
			c-0.41,0.87,0.53,2.22,1.49,1.49c7.66-5.77,13.34-14.95,19.32-22.39c6.55-8.16,12.92-16.46,19.33-24.73
			C451.96,203.91,450.47,202.32,449.5,203.44L449.5,203.44z"/>
	</g>
</g>
<g>
	<g>
		<path class="st0" d="M458.92,202.91c-7.75,8.35-14.63,17.58-21.8,26.43c-6.8,8.4-14.41,16.68-19.52,26.24
			c-0.44,0.83,0.58,1.58,1.27,0.98c8.54-7.44,15.17-17.2,22.13-26.09c6.72-8.58,13.83-16.97,19.96-25.98
			C461.79,203.27,459.91,201.84,458.92,202.91L458.92,202.91z"/>
	</g>
</g>
<g>
	<g>
		<path class="st0" d="M470.13,206.83c-13.34,7.38-26.92,21.46-32.11,35.99c-0.34,0.95,1.12,1.86,1.76,1.03
			c4.88-6.28,8.95-13.07,14.22-19.07c5.26-5.98,11.33-11.19,17.23-16.51C472.03,207.56,471.02,206.34,470.13,206.83L470.13,206.83z"
			/>
	</g>
</g>
<g>
	<g>
		<path class="st0" d="M467.26,221.12c-4.56,4.27-8.85,8.84-13.02,13.49c-3.78,4.21-7.95,8.25-11.07,12.98
			c-0.6,0.91,0.69,1.76,1.44,1.11c4.68-4.07,8.49-9.29,12.51-14c3.66-4.29,7.2-8.73,10.48-13.32
			C467.73,221.18,467.42,220.96,467.26,221.12L467.26,221.12z"/>
	</g>
</g>
<g>
	<g>
		<path class="st0" d="M408.44,279.17c-4.58,2.37-7.84,8.62-11,12.66c-3.81,4.88-7.63,9.76-11.44,14.63
			c-7.29,9.32-14.7,18.52-21.32,28.33c-0.42,0.63,0.54,1.37,1.05,0.81c8.37-9.09,15.93-18.86,23.65-28.5
			c3.66-4.57,7.32-9.15,10.98-13.72c3.15-3.94,8.19-8.23,9.42-13.18C409.98,279.41,409.15,278.8,408.44,279.17L408.44,279.17z"/>
	</g>
</g>
<g>
	<g>
		<path class="st0" d="M437.85,273.67c-17.62,14.5-34.31,30.03-49.89,46.7c-7.67,8.21-15.1,16.66-22.25,25.34
			c-3.31,4.01-6.56,8.06-9.7,12.2c-3.13,4.14-7.38,8.5-8.99,13.49c-0.29,0.91,0.88,1.91,1.7,1.31c3.89-2.84,6.48-7.46,9.4-11.23
			c3.57-4.62,7.16-9.23,10.82-13.78c7.05-8.77,14.38-17.31,21.96-25.63c15.15-16.61,31.27-32.36,48.24-47.1
			C440.04,274.18,438.75,272.93,437.85,273.67L437.85,273.67z"/>
	</g>
</g>
<g>
	<g>
		<path class="st0" d="M452.18,278.01c-17.27,17.34-34.35,34.87-51.17,52.64c-16.8,17.74-34.22,35.28-49.21,54.61
			c-0.65,0.84,0.36,1.93,1.19,1.19c18.31-16.17,34.65-34.68,51.25-52.57c16.67-17.96,33.08-36.16,49.28-54.53
			C454.32,278.44,453.05,277.13,452.18,278.01L452.18,278.01z"/>
	</g>
</g>
<g>
	<g>
		<path class="st0" d="M475.78,271.45c-11.8,10.73-22.2,22.87-32.88,34.71c-10.69,11.85-21.39,23.7-32.25,35.4
			c-10.86,11.7-21.83,23.3-32.91,34.79c-5.32,5.52-10.66,11.01-16.03,16.48c-5.38,5.48-11.54,10.76-15.53,17.37
			c-0.56,0.93,0.56,2.05,1.49,1.49c6.6-3.99,11.86-10.2,17.24-15.66c5.38-5.46,10.73-10.94,16.06-16.45
			c11.32-11.7,22.53-23.52,33.62-35.43c10.87-11.68,21.71-23.42,32.29-35.36c10.45-11.8,21-23.54,29.8-36.64
			C477.04,271.58,476.24,271.04,475.78,271.45L475.78,271.45z"/>
	</g>
</g>
<g>
	<g>
		<path class="st0" d="M202.29,110.47c-0.85-2.61-1.98-5.47-2.05-8.24c-1.96,0.26-3.91,0.53-5.87,0.79
			c3.16,8.8,11.49,17.06,17.71,23.86c3.36,3.67,6.84,7.24,10.54,10.57c3.33,3,6.71,6.75,11.51,6.63c1.41-0.03,2.21-1.27,1.97-2.58
			c-0.77-4.16-4.18-6.44-7.14-9.15c-3.67-3.37-7.28-6.79-10.73-10.38c-3.25-3.37-6.37-6.87-9.36-10.47
			c-3.08-3.72-5.82-8.28-9.51-11.39c-2.91-2.46-7.15,1.71-4.22,4.22c2.19,1.88,3.73,4.51,5.29,6.91
			C201.03,112.19,202.67,111.62,202.29,110.47L202.29,110.47z"/>
	</g>
</g>
<g>
	<g>
		<path class="st0" d="M244.07,75.7c0.35,1.45-0.1,2.78,0.29,4.24c0.57,2.15,2.18,4.35,3.19,6.32c2.01,3.94,3.84,7.96,5.47,12.07
			c1.52,3.84,2.82,7.74,4.05,11.68c1.16,3.73,1.45,7.34,4.74,9.7c1.05,0.75,2.92,0.25,3.46-0.91c1.75-3.69,0.2-7.02-1.02-10.77
			c-1.37-4.21-3.03-8.35-4.79-12.41c-1.87-4.32-3.94-8.55-6.22-12.68c-1.06-1.93-2.16-4.44-3.74-6c-1.16-1.15-2.42-1.21-3.67-2.26
			C245.04,74.01,243.81,74.62,244.07,75.7L244.07,75.7z"/>
	</g>
</g>
<g>
	<g>
		<path class="st0" d="M307.78,62.27c-0.97,8.34-0.13,17.04,0.36,25.4c0.23,3.91,0.5,7.81,0.75,11.72c0.24,3.8,0.13,7.46,2.38,10.67
			c0.72,1.02,2.44,1.29,3.1,0c1.77-3.49,1.29-6.86,0.99-10.67c-0.33-4.23-0.64-8.47-1.01-12.7c-0.71-8.23-1.12-16.86-3.24-24.87
			C310.57,59.86,307.99,60.49,307.78,62.27L307.78,62.27z"/>
	</g>
</g>
<g>
	<g>
		<path class="st0" d="M367.39,69.77c-3.71,9.22-7.42,18.43-11.13,27.65c-1.73,4.3-3.48,8.59-5.12,12.92
			c-1.51,4-3.54,7.34-1.73,11.43c0.52,1.18,2.08,1.27,3.08,0.81c3.89-1.82,4.61-6.46,6-10.22c1.59-4.33,3.07-8.71,4.57-13.07
			c3.21-9.35,6.41-18.71,9.62-28.06C373.84,67.83,368.67,66.57,367.39,69.77L367.39,69.77z"/>
	</g>
</g>
<g>
	<g>
		<path class="st0" d="M390.48,146.89c7.43-5.35,14.02-12.12,20.7-18.36c3.29-3.08,6.57-6.17,9.85-9.26
			c3.23-3.03,6.78-5.61,8.46-9.79c0.75-1.86-1.48-3.92-3.29-3.29c-3.68,1.3-6,4.08-8.75,6.77c-3.45,3.38-6.9,6.75-10.35,10.13
			c-6.59,6.45-13.78,12.84-19.49,20.1C386.14,145.08,388.1,148.6,390.48,146.89L390.48,146.89z"/>
	</g>
</g>
<g>
	<g>
		<path class="st0" d="M227.33,107.68c2.88,4.47,5.71,8.94,8.82,13.25c2.62,3.63,5.01,8.05,8.93,10.37
			c1.68,0.99,3.85-0.65,3.31-2.54c-1.26-4.39-4.94-7.81-7.8-11.26c-3.39-4.09-7.01-7.96-10.61-11.87
			C228.69,104.24,226.29,106.06,227.33,107.68L227.33,107.68z"/>
	</g>
</g>
<g>
	<g>
		<path class="st0" d="M287.9,90.83c-0.13,1.61-1.56,2.91-1.78,4.56c-0.32,2.39,0.49,5.54,0.74,7.94c0.42,3.95,0.16,8.25,3.55,10.8
			c0.61,0.46,1.81,0.29,2.3-0.3c2.85-3.43,1.32-8.07,0.79-12.17c-0.27-2.1-0.18-4.75-0.87-6.72c-0.6-1.72-2.38-2.69-2.93-4.35
			C289.37,89.58,287.99,89.81,287.9,90.83L287.9,90.83z"/>
	</g>
</g>
<g>
	<g>
		<path class="st0" d="M338.86,86.28c-4.02,4.32-6.06,10.9-7.26,16.57c-1,4.72-2.97,12.11,0.62,16c0.93,1.01,2.33,0.55,3.04-0.39
			c2.72-3.59,1.34-10.11,1.92-14.47c0.75-5.64,2.85-10.99,3.62-16.58C340.94,86.37,339.74,85.34,338.86,86.28L338.86,86.28z"/>
	</g>
</g>
<g>
	<g>
		<path class="st0" d="M371.11,129.07c4.65-0.71,7.99-7.17,10.71-10.59c2.98-3.74,6.94-7.6,7.47-12.5c0.13-1.17-1.35-2.31-2.45-1.86
			c-4.54,1.83-7.21,6.68-9.98,10.54c-2.57,3.58-7.89,8.53-7.31,13.23C369.66,128.74,370.25,129.2,371.11,129.07L371.11,129.07z"/>
	</g>
</g>
</svg>
