<svg width="55" height="55" viewBox="0 0 14 15" fill="none" xmlns="http://www.w3.org/2000/svg">
<g clip-path="url(#clip0_53_4639)">
<path d="M5.58724 12.8918C5.90399 12.8918 6.14899 12.7605 6.32224 12.5033L11.9459 3.74626C12.0719 3.54851 12.1252 3.38139 12.1252 3.21951C12.1252 2.79514 11.8269 2.50201 11.3964 2.50201C11.1032 2.50201 10.9239 2.60964 10.7436 2.89051L5.55837 11.1155L2.89662 7.70039C2.71724 7.46676 2.53174 7.37139 2.26837 7.37139C1.83787 7.37139 1.52637 7.67589 1.52637 8.09501C1.52637 8.28051 1.59199 8.45989 1.74774 8.64539L4.84612 12.5094C5.05612 12.7719 5.27574 12.8918 5.58724 12.8918Z" fill="black" fill-opacity="0.4"/>
</g>
<defs>
<clipPath id="clip0_53_4639">
<rect width="14" height="14" fill="white" transform="translate(0 0.5)"/>
</clipPath>
</defs>
</svg>
