<svg width="21" height="18" viewBox="0 0 21 18" fill="none" xmlns="http://www.w3.org/2000/svg">
<path fill-rule="evenodd" clip-rule="evenodd" d="M2.5769 4.15379C3.72334 4.15379 4.65379 3.22334 4.65379 2.0769C4.65379 0.93045 3.72334 0 2.5769 0C1.43045 0 0.5 0.93045 0.5 2.0769C0.5 3.22334 1.43045 4.15379 2.5769 4.15379ZM0.5 18V5.53857H4.65379V18H0.5ZM7.42371 5.53857H11.2549V7.50193H11.3103C11.8433 6.54518 13.1476 5.53857 15.093 5.53857C19.1374 5.53857 19.8851 8.05577 19.8851 11.3303V18H15.8905V12.0877C15.8905 10.6782 15.8614 8.86299 13.8136 8.86299C11.734 8.86299 11.4155 10.3985 11.4155 11.9853V18H7.42371V5.53857Z" fill="black" fill-opacity="0.6"/>
</svg>
